{
.appVersion = "1342";
DisplayStrings = (
"/we-kata/ve-kata/wo-kata/vo-kata"
);
copyright = "Copyright 2020 The Rock 3D Project Authors (https://github.com/shibuyafont/3d-rock-font), all rights reserved.";
customParameters = (
{
name = vendorID;
value = SBYA;
},
{
name = panose;
value = (
2,
11,
5,
0,
0,
0,
0,
0,
0,
0
);
},
{
name = license;
value = "This Font Software is licensed under the SIL Open Font License, Version 1.1. This license is available with a FAQ at: https://scripts.sil.org/OFL";
},
{
name = licenseURL;
value = "https://scripts.sil.org/OFL";
},
{
name = fsType;
value = (
);
}
);
date = "2020-01-16 21:16:48 +0000";
designer = Shibuyafont;
designerURL = "http://www.shibuyafont.jp/index.html";
disablesAutomaticAlignment = 1;
familyName = "Rock 3D";
featurePrefixes = (
{
automatic = 1;
code = "languagesystem DFLT dflt;\012";
name = Languagesystems;
}
);
features = (
{
automatic = 1;
code = "feature vert;\012feature vkna;\012feature vrt2;\012";
name = aalt;
},
{
automatic = 1;

glyphs = (
{
glyphname = A;
lastChange = "2020-11-05 19:14:31 +0000";
layers = (
{
layerId = "FAEB3F87-0FE7-4D5C-BA65-CB0BBFD78DC9";
paths = (
{
closed = 1;
nodes = (
"321 123 OFFCURVE",
"322 77 OFFCURVE",
"314 33 CURVE SMOOTH",
"311 15 OFFCURVE",
"309 -2 OFFCURVE",
"306 -20 CURVE",
"306 -26 OFFCURVE",
"306 -33 OFFCURVE",
"314 -34 CURVE SMOOTH",
"321 -35 OFFCURVE",
"323 -30 OFFCURVE",
"325 -24 CURVE SMOOTH",
"326 -18 OFFCURVE",
"328 -12 OFFCURVE",
"328 -5 CURVE SMOOTH",
"331 51 OFFCURVE",
"333 109 OFFCURVE",
"335 166 CURVE"
);
},
{
closed = 1;
nodes = (
"505 219 OFFCURVE",
"510 119 OFFCURVE",
"527 21 CURVE",
"529 21 OFFCURVE",
"532 21 OFFCURVE",
"534 22 CURVE",
"524 121 OFFCURVE",
"514 220 OFFCURVE",
"504 319 CURVE"
);
},
{
closed = 1;
nodes = (
"295 663 OFFCURVE",
"291 642 OFFCURVE",
"318 648 CURVE SMOOTH",
"371 659 OFFCURVE",
"426 666 OFFCURVE",
"477 689 CURVE SMOOTH",
"496 698 OFFCURVE",
"503 709 OFFCURVE",
"497 730 CURVE SMOOTH",
"493 746 OFFCURVE",
"491 764 OFFCURVE",
"490 781 CURVE SMOOTH",
"489 799 OFFCURVE",
"479 804 OFFCURVE",
"463 801 CURVE SMOOTH",
"431 796 OFFCURVE",
"397 795 OFFCURVE",
"367 785 CURVE SMOOTH",
"290 761 OFFCURVE",
"302 780 OFFCURVE",
"295 700 CURVE SMOOTH",
"294 693 OFFCURVE",
"294 686 OFFCURVE",
"294 680 CURVE SMOOTH"
);
},
{
closed = 1;
nodes = (
"76 -9 OFFCURVE",
"76 -17 OFFCURVE",
"77 -25 CURVE SMOOTH",
"78 -37 OFFCURVE",
"85 -44 OFFCURVE",
"97 -43 CURVE SMOOTH",
"108 -43 OFFCURVE",
"112 -35 OFFCURVE",
"112 -25 CURVE SMOOTH",
"112 -21 OFFCURVE",
"112 -18 OFFCURVE",
"112 -14 CURVE SMOOTH",
"111 117 OFFCURVE",
"143 243 OFFCURVE",
"188 366 CURVE SMOOTH",
"216 442 OFFCURVE",
"243 519 OFFCURVE",
"270 596 CURVE SMOOTH",
"272 602 OFFCURVE",
"278 610 OFFCURVE",
"272 616 CURVE SMOOTH",
"267 622 OFFCURVE",
"259 616 OFFCURVE",
"253 613 CURVE SMOOTH",
"222 600 OFFCURVE",
"192 585 OFFCURVE",
"161 571 CURVE SMOOTH",
"148 566 OFFCURVE",
"146 556 OFFCURVE",
"145 543 CURVE SMOOTH",
"142 501 OFFCURVE",
"141 458 OFFCURVE",
"130 417 CURVE SMOOTH",
"91 280 OFFCURVE",
"87 139 OFFCURVE",
"76 5 CURVE"
);
},
{
closed = 1;
nodes = (
"324 317 OFFCURVE",
"327 319 OFFCURVE",
"364 313 CURVE SMOOTH",
"376 312 OFFCURVE",
"389 312 OFFCURVE",
"402 312 CURVE SMOOTH",
"437 313 OFFCURVE",
"446 306 OFFCURVE",
"454 271 CURVE SMOOTH",
"477 167 OFFCURVE",
"483 60 OFFCURVE",
"507 -43 CURVE SMOOTH",
"512 -67 OFFCURVE",
"520 -74 OFFCURVE",
"545 -70 CURVE SMOOTH",
"608 -60 OFFCURVE",
"667 -39 OFFCURVE",
"728 -21 CURVE SMOOTH",
"756 -13 OFFCURVE",
"763 2 OFFCURVE",
"757 29 CURVE SMOOTH",
"737 118 OFFCURVE",
"718 209 OFFCURVE",
"705 300 CURVE SMOOTH",
"688 424 OFFCURVE",
"658 546 OFFCURVE",
"611 663 CURVE SMOOTH",
"605 678 OFFCURVE",
"599 692 OFFCURVE",
"580 682 CURVE SMOOTH",
"568 676 OFFCURVE",
"545 675 OFFCURVE",
"553 650 CURVE SMOOTH",
"580 570 OFFCURVE",
"602 488 OFFCURVE",
"626 406 CURVE SMOOTH",
"657 296 OFFCURVE",
"693 187 OFFCURVE",
"719 75 CURVE SMOOTH",
"732 23 OFFCURVE",
"731 23 OFFCURVE",
"680 13 CURVE",
"676 13 OFFCURVE",
"671 11 OFFCURVE",
"667 11 CURVE SMOOTH",
"628 6 OFFCURVE",
"592 -9 OFFCURVE",
"553 -10 CURVE SMOOTH",
"514 -10 OFFCURVE",
"506 -3 OFFCURVE",
"503 33 CURVE SMOOTH",
"494 126 OFFCURVE",
"483 218 OFFCURVE",
"483 311 CURVE SMOOTH",
"483 324 OFFCURVE",
"469 342 OFFCURVE",
"493 350 CURVE SMOOTH",
"498 351 OFFCURVE",
"493 359 OFFCURVE",
"489 360 CURVE SMOOTH",
"482 361 OFFCURVE",
"474 363 OFFCURVE",
"468 362 CURVE SMOOTH",
"420 351 OFFCURVE",
"373 340 OFFCURVE",
"326 328 CURVE SMOOTH",
"312 324 OFFCURVE",
"306 314 OFFCURVE",
"306 299 CURVE SMOOTH",
"306 272 OFFCURVE",
"306 245 OFFCURVE",
"303 218 CURVE SMOOTH",
"294 140 OFFCURVE",
"297 61 OFFCURVE",
"269 -14 CURVE",
"266 -20 OFFCURVE",
"258 -31 OFFCURVE",
"269 -35 CURVE SMOOTH",
"280 -38 OFFCURVE",
"285 -28 OFFCURVE",
"287 -19 CURVE SMOOTH",
"292 13 OFFCURVE",
"298 45 OFFCURVE",
"302 77 CURVE SMOOTH",
"309 144 OFFCURVE",
"323 211 OFFCURVE",
"326 269 CURVE"
);
},
{
closed = 1;
nodes = (
"131 -26 OFFCURVE",
"127 -43 OFFCURVE",
"145 -52 CURVE SMOOTH",
"181 -69 OFFCURVE",
"233 -52 OFFCURVE",
"249 -15 CURVE SMOOTH",
"261 9 OFFCURVE",
"269 37 OFFCURVE",
"272 64 CURVE SMOOTH",
"279 138 OFFCURVE",
"291 211 OFFCURVE",
"289 286 CURVE SMOOTH",
"289 329 OFFCURVE",
"298 340 OFFCURVE",
"341 348 CURVE SMOOTH",
"373 353 OFFCURVE",
"404 361 OFFCURVE",
"436 370 CURVE SMOOTH",
"449 374 OFFCURVE",
"464 374 OFFCURVE",
"478 375 CURVE SMOOTH",
"498 378 OFFCURVE",
"509 368 OFFCURVE",
"514 350 CURVE SMOOTH",
"524 317 OFFCURVE",
"526 284 OFFCURVE",
"529 251 CURVE SMOOTH",
"535 180 OFFCURVE",
"543 109 OFFCURVE",
"549 38 CURVE SMOOTH",
"551 14 OFFCURVE",
"562 4 OFFCURVE",
"586 10 CURVE SMOOTH",
"620 18 OFFCURVE",
"653 26 OFFCURVE",
"687 33 CURVE SMOOTH",
"703 36 OFFCURVE",
"708 44 OFFCURVE",
"704 59 CURVE SMOOTH",
"698 86 OFFCURVE",
"694 113 OFFCURVE",
"687 139 CURVE SMOOTH",
"653 268 OFFCURVE",
"609 394 OFFCURVE",
"576 524 CURVE SMOOTH",
"562 574 OFFCURVE",
"547 625 OFFCURVE",
"525 672 CURVE SMOOTH",
"520 684 OFFCURVE",
"515 691 OFFCURVE",
"501 684 CURVE SMOOTH",
"447 656 OFFCURVE",
"388 647 OFFCURVE",
"329 635 CURVE SMOOTH",
"310 631 OFFCURVE",
"300 622 OFFCURVE",
"293 604 CURVE SMOOTH",
"249 491 OFFCURVE",
"208 377 OFFCURVE",
"172 262 CURVE SMOOTH",
"143 172 OFFCURVE",
"130 81 OFFCURVE",
"130 -12 CURVE SMOOTH"
);
},
{
closed = 1;
nodes = (
"356 283 OFFCURVE",
"355 280 OFFCURVE",
"355 277 CURVE SMOOTH",
"359 178 OFFCURVE",
"345 80 OFFCURVE",
"343 -17 CURVE SMOOTH",
"342 -41 OFFCURVE",
"335 -53 OFFCURVE",
"307 -52 CURVE SMOOTH",
"279 -50 OFFCURVE",
"250 -55 OFFCURVE",
"224 -65 CURVE SMOOTH",
"177 -84 OFFCURVE",
"132 -65 OFFCURVE",
"86 -58 CURVE SMOOTH",
"66 -55 OFFCURVE",
"59 -36 OFFCURVE",
"59 -16 CURVE SMOOTH",
"57 47 OFFCURVE",
"70 109 OFFCURVE",
"71 172 CURVE SMOOTH",
"72 274 OFFCURVE",
"105 370 OFFCURVE",
"120 469 CURVE SMOOTH",
"124 496 OFFCURVE",
"125 525 OFFCURVE",
"126 553 CURVE SMOOTH",
"126 568 OFFCURVE",
"132 578 OFFCURVE",
"147 583 CURVE SMOOTH",
"187 599 OFFCURVE",
"222 623 OFFCURVE",
"264 634 CURVE SMOOTH",
"280 638 OFFCURVE",
"282 649 OFFCURVE",
"281 663 CURVE SMOOTH",
"280 694 OFFCURVE",
"283 726 OFFCURVE",
"288 757 CURVE SMOOTH",
"290 772 OFFCURVE",
"296 779 OFFCURVE",
"311 783 CURVE SMOOTH",
"365 799 OFFCURVE",
"421 809 OFFCURVE",
"478 818 CURVE SMOOTH",
"495 821 OFFCURVE",
"505 814 OFFCURVE",
"507 795 CURVE SMOOTH",
"509 773 OFFCURVE",
"512 751 OFFCURVE",
"515 728 CURVE SMOOTH",
"519 702 OFFCURVE",
"531 694 OFFCURVE",
"556 702 CURVE SMOOTH",
"573 708 OFFCURVE",
"590 716 OFFCURVE",
"606 723 CURVE SMOOTH",
"624 732 OFFCURVE",
"632 728 OFFCURVE",
"636 708 CURVE SMOOTH",
"678 529 OFFCURVE",
"719 349 OFFCURVE",
"745 166 CURVE SMOOTH",
"752 116 OFFCURVE",
"766 67 OFFCURVE",
"778 18 CURVE SMOOTH",
"784 -8 OFFCURVE",
"775 -24 OFFCURVE",
"748 -33 CURVE SMOOTH",
"676 -57 OFFCURVE",
"603 -78 OFFCURVE",
"528 -90 CURVE SMOOTH",
"497 -95 OFFCURVE",
"463 -67 OFFCURVE",
"461 -36 CURVE SMOOTH",
"456 35 OFFCURVE",
"439 104 OFFCURVE",
"429 175 CURVE SMOOTH",
"425 203 OFFCURVE",
"419 230 OFFCURVE",
"418 258 CURVE SMOOTH",
"418 264 OFFCURVE",
"417 279 OFFCURVE",
"409 273 CURVE SMOOTH",
"385 255 OFFCURVE",
"375 281 OFFCURVE",
"357 288 CURVE"
);
},
{
closed = 1;
nodes = (
"412 550 OFFCURVE",
"419 570 OFFCURVE",
"400 575 CURVE SMOOTH",
"379 581 OFFCURVE",
"370 562 OFFCURVE",
"363 546 CURVE SMOOTH",
"353 521 OFFCURVE",
"345 496 OFFCURVE",
"336 470 CURVE SMOOTH",
"329 452 OFFCURVE",
"313 427 OFFCURVE",
"325 415 CURVE SMOOTH",
"337 403 OFFCURVE",
"363 417 OFFCURVE",
"383 419 CURVE SMOOTH",
"400 420 OFFCURVE",
"408 430 OFFCURVE",
"409 447 CURVE SMOOTH",
"410 477 OFFCURVE",
"414 506 OFFCURVE",
"416 536 CURVE"
);
},
{
closed = 1;
nodes = (
"431 500 OFFCURVE",
"429 470 OFFCURVE",
"426 441 CURVE SMOOTH",
"424 421 OFFCURVE",
"415 409 OFFCURVE",
"394 407 CURVE SMOOTH",
"371 405 OFFCURVE",
"348 400 OFFCURVE",
"325 396 CURVE SMOOTH",
"306 393 OFFCURVE",
"303 403 OFFCURVE",
"304 418 CURVE SMOOTH",
"308 445 OFFCURVE",
"320 470 OFFCURVE",
"327 496 CURVE SMOOTH",
"333 517 OFFCURVE",
"341 537 OFFCURVE",
"349 557 CURVE SMOOTH",
"352 564 OFFCURVE",
"356 572 OFFCURVE",
"361 578 CURVE",
"375 591 OFFCURVE",
"394 596 OFFCURVE",
"411 592 CURVE SMOOTH",
"428 589 OFFCURVE",
"426 570 OFFCURVE",
"429 556 CURVE SMOOTH",
"430 547 OFFCURVE",
"431 538 OFFCURVE",
"433 528 CURVE"
);
}
);
vertWidth = 1000;
width = 900;
}
);
note = cid00034;
unicode = 0041;
},
{
glyphname = B;
lastChange = "2020-11-05 19:14:31 +0000";
layers = (
{
layerId = "FAEB3F87-0FE7-4D5C-BA65-CB0BBFD78DC9";
paths = (
{
closed = 1;
nodes = (
"182 772 OFFCURVE",
"218 774 OFFCURVE",
"255 765 CURVE SMOOTH",
"386 734 OFFCURVE",
"442 648 OFFCURVE",
"407 528 CURVE SMOOTH",
"404 516 OFFCURVE",
"407 509 OFFCURVE",
"417 502 CURVE SMOOTH",
"449 481 OFFCURVE",
"471 491 OFFCURVE",
"476 529 CURVE SMOOTH",
"483 580 OFFCURVE",
"456 622 OFFCURVE",
"438 667 CURVE SMOOTH",
"394 777 OFFCURVE",
"266 838 OFFCURVE",
"144 770 CURVE"
);
},
{
closed = 1;
nodes = (
"292 366 OFFCURVE",
"326 363 OFFCURVE",
"346 339 CURVE SMOOTH",
"402 276 OFFCURVE",
"441 204 OFFCURVE",
"445 119 CURVE SMOOTH",
"447 64 OFFCURVE",
"446 64 OFFCURVE",
"503 63 CURVE SMOOTH",
"576 61 OFFCURVE",
"611 93 OFFCURVE",
"611 164 CURVE SMOOTH",
"610 226 OFFCURVE",
"594 284 OFFCURVE",
"572 342 CURVE SMOOTH",
"544 418 OFFCURVE",
"483 455 OFFCURVE",
"412 483 CURVE SMOOTH",
"401 487 OFFCURVE",
"389 491 OFFCURVE",
"380 479 CURVE SMOOTH",
"349 440 OFFCURVE",
"316 403 OFFCURVE",
"259 385 CURVE"
);
},
{
closed = 1;
nodes = (
"261 -61 OFFCURVE",
"312 -46 OFFCURVE",
"362 -27 CURVE SMOOTH",
"388 -17 OFFCURVE",
"406 0 OFFCURVE",
"414 27 CURVE SMOOTH",
"429 73 OFFCURVE",
"431 120 OFFCURVE",
"418 165 CURVE SMOOTH",
"374 312 OFFCURVE",
"334 366 OFFCURVE",
"197 365 CURVE SMOOTH",
"189 365 OFFCURVE",
"180 365 OFFCURVE",
"179 374 CURVE SMOOTH",
"179 387 OFFCURVE",
"191 387 OFFCURVE",
"200 389 CURVE SMOOTH",
"289 403 OFFCURVE",
"346 457 OFFCURVE",
"384 532 CURVE SMOOTH",
"410 580 OFFCURVE",
"409 631 OFFCURVE",
"376 673 CURVE SMOOTH",
"322 740 OFFCURVE",
"220 775 OFFCURVE",
"131 741 CURVE SMOOTH",
"112 733 OFFCURVE",
"101 721 OFFCURVE",
"101 701 CURVE SMOOTH",
"100 634 OFFCURVE",
"84 568 OFFCURVE",
"87 501 CURVE SMOOTH",
"90 444 OFFCURVE",
"88 387 OFFCURVE",
"90 330 CURVE SMOOTH",
"95 227 OFFCURVE",
"103 124 OFFCURVE",
"118 22 CURVE SMOOTH",
"128 -49 OFFCURVE",
"132 -48 OFFCURVE",
"215 -54 CURVE"
);
},
{
closed = 1;
nodes = (
"497 526 OFFCURVE",
"499 514 OFFCURVE",
"494 506 CURVE SMOOTH",
"476 478 OFFCURVE",
"491 463 OFFCURVE",
"515 450 CURVE SMOOTH",
"570 419 OFFCURVE",
"588 363 OFFCURVE",
"607 309 CURVE SMOOTH",
"621 269 OFFCURVE",
"628 227 OFFCURVE",
"632 185 CURVE SMOOTH",
"639 93 OFFCURVE",
"591 42 OFFCURVE",
"497 44 CURVE SMOOTH",
"471 45 OFFCURVE",
"447 40 OFFCURVE",
"435 19 CURVE SMOOTH",
"398 -45 OFFCURVE",
"331 -54 OFFCURVE",
"268 -69 CURVE SMOOTH",
"227 -78 OFFCURVE",
"187 -68 OFFCURVE",
"147 -63 CURVE SMOOTH",
"121 -59 OFFCURVE",
"111 -41 OFFCURVE",
"106 -17 CURVE SMOOTH",
"92 53 OFFCURVE",
"88 125 OFFCURVE",
"83 197 CURVE SMOOTH",
"72 355 OFFCURVE",
"66 512 OFFCURVE",
"79 670 CURVE SMOOTH",
"86 759 OFFCURVE",
"76 772 OFFCURVE",
"189 805 CURVE SMOOTH",
"292 835 OFFCURVE",
"390 795 OFFCURVE",
"444 700 CURVE SMOOTH",
"472 650 OFFCURVE",
"499 597 OFFCURVE",
"499 543 CURVE"
);
},
{
closed = 1;
nodes = (
"239 112 OFFCURVE",
"238 166 OFFCURVE",
"236 219 CURVE SMOOTH",
"235 230 OFFCURVE",
"241 247 OFFCURVE",
"221 247 CURVE SMOOTH",
"205 247 OFFCURVE",
"195 237 OFFCURVE",
"195 221 CURVE SMOOTH",
"195 165 OFFCURVE",
"196 110 OFFCURVE",
"198 55 CURVE SMOOTH",
"198 39 OFFCURVE",
"206 25 OFFCURVE",
"225 27 CURVE SMOOTH",
"245 29 OFFCURVE",
"240 46 OFFCURVE",
"241 51 CURVE"
);
},
{
closed = 1;
nodes = (
"339 162 OFFCURVE",
"316 201 OFFCURVE",
"283 235 CURVE SMOOTH",
"273 246 OFFCURVE",
"259 247 OFFCURVE",
"257 227 CURVE SMOOTH",
"253 165 OFFCURVE",
"256 104 OFFCURVE",
"262 42 CURVE SMOOTH",
"264 26 OFFCURVE",
"275 22 OFFCURVE",
"286 31 CURVE SMOOTH",
"313 53 OFFCURVE",
"338 77 OFFCURVE",
"341 116 CURVE"
);
},
{
closed = 1;
nodes = (
"176 189 OFFCURVE",
"179 207 OFFCURVE",
"177 226 CURVE SMOOTH",
"174 256 OFFCURVE",
"192 266 OFFCURVE",
"218 268 CURVE SMOOTH",
"268 273 OFFCURVE",
"297 258 OFFCURVE",
"321 216 CURVE SMOOTH",
"340 181 OFFCURVE",
"361 148 OFFCURVE",
"356 106 CURVE SMOOTH",
"350 49 OFFCURVE",
"292 0 OFFCURVE",
"233 6 CURVE SMOOTH",
"195 10 OFFCURVE",
"180 25 OFFCURVE",
"178 62 CURVE SMOOTH",
"176 98 OFFCURVE",
"176 134 OFFCURVE",
"175 174 CURVE"
);
},
{
closed = 1;
nodes = (
"169 569 OFFCURVE",
"169 569 OFFCURVE",
"168 569 CURVE",
"169 586 OFFCURVE",
"170 604 OFFCURVE",
"171 621 CURVE SMOOTH",
"171 626 OFFCURVE",
"172 632 OFFCURVE",
"166 634 CURVE SMOOTH",
"158 637 OFFCURVE",
"152 632 OFFCURVE",
"151 626 CURVE SMOOTH",
"144 591 OFFCURVE",
"134 556 OFFCURVE",
"142 519 CURVE SMOOTH",
"144 512 OFFCURVE",
"148 505 OFFCURVE",
"157 506 CURVE SMOOTH",
"167 507 OFFCURVE",
"167 515 OFFCURVE",
"168 522 CURVE SMOOTH",
"169 538 OFFCURVE",
"169 553 OFFCURVE",
"170 569 CURVE"
);
},
{
closed = 1;
nodes = (
"254 607 OFFCURVE",
"252 622 OFFCURVE",
"247 635 CURVE SMOOTH",
"240 650 OFFCURVE",
"227 653 OFFCURVE",
"212 653 CURVE SMOOTH",
"197 652 OFFCURVE",
"193 641 OFFCURVE",
"193 629 CURVE SMOOTH",
"191 600 OFFCURVE",
"190 570 OFFCURVE",
"189 540 CURVE SMOOTH",
"189 533 OFFCURVE",
"189 525 OFFCURVE",
"197 521 CURVE SMOOTH",
"206 517 OFFCURVE",
"214 523 OFFCURVE",
"220 528 CURVE SMOOTH",
"240 545 OFFCURVE",
"251 567 OFFCURVE",
"252 587 CURVE SMOOTH"
);
},
{
closed = 1;
nodes = (
"122 584 OFFCURVE",
"129 603 OFFCURVE",
"122 623 CURVE SMOOTH",
"119 631 OFFCURVE",
"122 638 OFFCURVE",
"129 642 CURVE SMOOTH",
"155 658 OFFCURVE",
"181 674 OFFCURVE",
"214 673 CURVE SMOOTH",
"261 671 OFFCURVE",
"289 621 OFFCURVE",
"271 570 CURVE SMOOTH",
"255 525 OFFCURVE",
"219 499 OFFCURVE",
"174 488 CURVE SMOOTH",
"139 479 OFFCURVE",
"122 494 OFFCURVE",
"122 530 CURVE SMOOTH",
"122 542 OFFCURVE",
"123 553 OFFCURVE",
"124 562 CURVE"
);
}
);
vertWidth = 1000;
width = 740;
}
);
note = cid00035;
unicode = 0042;
},
{
glyphname = C;
lastChange = "2020-11-05 19:14:31 +0000";
layers = (
{
layerId = "FAEB3F87-0FE7-4D5C-BA65-CB0BBFD78DC9";
paths = (
{
closed = 1;
nodes = (
"572 623 OFFCURVE",
"545 531 OFFCURVE",
"511 440 CURVE",
"537 465 OFFCURVE",
"594 450 OFFCURVE",
"588 568 CURVE SMOOTH",
"585 617 OFFCURVE",
"566 673 OFFCURVE",
"540 726 CURVE"
);
},
{
closed = 1;
nodes = (
"528 0 OFFCURVE",
"532 0 OFFCURVE",
"536 0 CURVE",
"554 63 OFFCURVE",
"542 132 OFFCURVE",
"545 199 CURVE SMOOTH",
"545 205 OFFCURVE",
"543 212 OFFCURVE",
"532 212 CURVE SMOOTH",
"520 212 OFFCURVE",
"513 207 OFFCURVE",
"513 198 CURVE SMOOTH",
"513 185 OFFCURVE",
"515 172 OFFCURVE",
"516 158 CURVE SMOOTH",
"519 106 OFFCURVE",
"521 53 OFFCURVE",
"524 0 CURVE"
);
},
{
closed = 1;
nodes = (
"171 211 OFFCURVE",
"135 289 OFFCURVE",
"111 366 CURVE",
"108 290 OFFCURVE",
"103 214 OFFCURVE",
"154 136 CURVE"
);
},
{
closed = 1;
nodes = (
"413 117 OFFCURVE",
"428 131 OFFCURVE",
"438 145 CURVE SMOOTH",
"469 195 OFFCURVE",
"501 243 OFFCURVE",
"581 261 CURVE",
"589 262 OFFCURVE",
"596 268 OFFCURVE",
"590 276 CURVE SMOOTH",
"582 286 OFFCURVE",
"572 286 OFFCURVE",
"561 285 CURVE SMOOTH",
"529 281 OFFCURVE",
"508 269 OFFCURVE",
"489 252 CURVE SMOOTH",
"444 211 OFFCURVE",
"418 162 OFFCURVE",
"380 112 CURVE"
);
},
{
closed = 1;
nodes = (
"220 400 OFFCURVE",
"269 422 OFFCURVE",
"360 409 CURVE SMOOTH",
"390 405 OFFCURVE",
"420 402 OFFCURVE",
"450 398 CURVE SMOOTH",
"463 397 OFFCURVE",
"473 399 OFFCURVE",
"474 407 CURVE SMOOTH",
"475 418 OFFCURVE",
"462 420 OFFCURVE",
"451 423 CURVE SMOOTH",
"380 440 OFFCURVE",
"309 453 OFFCURVE",
"238 460 CURVE SMOOTH",
"214 462 OFFCURVE",
"201 457 OFFCURVE",
"197 439 CURVE SMOOTH",
"189 407 OFFCURVE",
"193 374 OFFCURVE",
"206 332 CURVE"
);
},
{
closed = 1;
nodes = (
"531 582 OFFCURVE",
"527 646 OFFCURVE",
"511 713 CURVE SMOOTH",
"504 742 OFFCURVE",
"482 759 OFFCURVE",
"446 767 CURVE SMOOTH",
"375 782 OFFCURVE",
"304 794 OFFCURVE",
"233 790 CURVE SMOOTH",
"158 786 OFFCURVE",
"124 762 OFFCURVE",
"126 718 CURVE SMOOTH",
"126 702 OFFCURVE",
"132 697 OFFCURVE",
"153 699 CURVE SMOOTH",
"204 706 OFFCURVE",
"257 698 OFFCURVE",
"309 688 CURVE SMOOTH",
"421 667 OFFCURVE",
"477 634 OFFCURVE",
"482 565 CURVE SMOOTH",
"483 551 OFFCURVE",
"484 536 OFFCURVE",
"502 515 CURVE"
);
},
{
closed = 1;
nodes = (
"475 147 OFFCURVE",
"465 136 OFFCURVE",
"452 127 CURVE SMOOTH",
"386 78 OFFCURVE",
"326 83 OFFCURVE",
"265 152 CURVE SMOOTH",
"174 252 OFFCURVE",
"161 356 OFFCURVE",
"180 459 CURVE SMOOTH",
"183 474 OFFCURVE",
"198 473 OFFCURVE",
"218 472 CURVE SMOOTH",
"293 470 OFFCURVE",
"367 456 OFFCURVE",
"441 439 CURVE SMOOTH",
"470 432 OFFCURVE",
"484 436 OFFCURVE",
"479 458 CURVE SMOOTH",
"469 503 OFFCURVE",
"459 548 OFFCURVE",
"450 593 CURVE SMOOTH",
"445 617 OFFCURVE",
"427 633 OFFCURVE",
"398 648 CURVE SMOOTH",
"334 681 OFFCURVE",
"265 684 OFFCURVE",
"197 688 CURVE SMOOTH",
"134 692 OFFCURVE",
"118 680 OFFCURVE",
"108 637 CURVE SMOOTH",
"92 572 OFFCURVE",
"99 505 OFFCURVE",
"117 437 CURVE SMOOTH",
"149 318 OFFCURVE",
"189 198 OFFCURVE",
"185 80 CURVE SMOOTH",
"183 25 OFFCURVE",
"208 -28 OFFCURVE",
"301 -57 CURVE SMOOTH",
"381 -82 OFFCURVE",
"490 -58 OFFCURVE",
"498 -1 CURVE SMOOTH",
"505 50 OFFCURVE",
"493 104 OFFCURVE",
"494 165 CURVE"
);
},
{
closed = 1;
nodes = (
"612 514 OFFCURVE",
"611 511 OFFCURVE",
"610 508 CURVE",
"590 479 OFFCURVE",
"554 433 OFFCURVE",
"519 400 CURVE SMOOTH",
"499 380 OFFCURVE",
"476 379 OFFCURVE",
"446 381 CURVE SMOOTH",
"400 384 OFFCURVE",
"354 397 OFFCURVE",
"309 393 CURVE SMOOTH",
"260 390 OFFCURVE",
"230 372 OFFCURVE",
"230 337 CURVE SMOOTH",
"229 279 OFFCURVE",
"218 220 OFFCURVE",
"275 162 CURVE SMOOTH",
"291 145 OFFCURVE",
"308 122 OFFCURVE",
"335 120 CURVE SMOOTH",
"362 119 OFFCURVE",
"375 138 OFFCURVE",
"385 155 CURVE SMOOTH",
"412 199 OFFCURVE",
"439 242 OFFCURVE",
"485 277 CURVE SMOOTH",
"502 290 OFFCURVE",
"521 300 OFFCURVE",
"548 303 CURVE SMOOTH",
"571 306 OFFCURVE",
"596 305 OFFCURVE",
"610 284 CURVE SMOOTH",
"623 264 OFFCURVE",
"627 245 OFFCURVE",
"595 237 CURVE SMOOTH",
"572 232 OFFCURVE",
"566 219 OFFCURVE",
"566 202 CURVE SMOOTH",
"567 154 OFFCURVE",
"568 104 OFFCURVE",
"565 56 CURVE SMOOTH",
"562 2 OFFCURVE",
"550 -47 OFFCURVE",
"477 -72 CURVE SMOOTH",
"345 -117 OFFCURVE",
"162 -42 OFFCURVE",
"168 63 CURVE SMOOTH",
"169 79 OFFCURVE",
"153 94 OFFCURVE",
"143 108 CURVE SMOOTH",
"82 202 OFFCURVE",
"85 294 OFFCURVE",
"85 386 CURVE SMOOTH",
"84 454 OFFCURVE",
"80 522 OFFCURVE",
"80 589 CURVE SMOOTH",
"80 648 OFFCURVE",
"108 701 OFFCURVE",
"111 760 CURVE SMOOTH",
"113 787 OFFCURVE",
"153 793 OFFCURVE",
"185 798 CURVE SMOOTH",
"296 815 OFFCURVE",
"410 790 OFFCURVE",
"522 758 CURVE SMOOTH",
"564 746 OFFCURVE",
"583 718 OFFCURVE",
"589 686 CURVE SMOOTH",
"598 629 OFFCURVE",
"627 578 OFFCURVE",
"613 516 CURVE"
);
}
);
vertWidth = 1000;
width = 820;
}
);
note = cid00036;
unicode = 0043;
},
{
glyphname = D;
lastChange = "2020-11-05 19:14:31 +0000";
layers = (
{
layerId = "FAEB3F87-0FE7-4D5C-BA65-CB0BBFD78DC9";
paths = (
{
closed = 1;
nodes = (
"572 176 OFFCURVE",
"585 249 OFFCURVE",
"572 291 CURVE",
"567 244 OFFCURVE",
"562 196 OFFCURVE",
"546 151 CURVE"
);
},
{
closed = 1;
nodes = (
"376 739 OFFCURVE",
"508 703 OFFCURVE",
"552 704 CURVE",
"492 749 OFFCURVE",
"422 752 OFFCURVE",
"354 760 CURVE"
);
},
{
closed = 1;
nodes = (
"554 496 OFFCURVE",
"504 617 OFFCURVE",
"394 642 CURVE",
"478 572 OFFCURVE",
"538 493 OFFCURVE",
"562 390 CURVE"
);
},
{
closed = 1;
nodes = (
"686 580 OFFCURVE",
"712 517 OFFCURVE",
"725 450 CURVE SMOOTH",
"737 384 OFFCURVE",
"741 318 OFFCURVE",
"720 243 CURVE",
"804 340 OFFCURVE",
"757 596 OFFCURVE",
"651 644 CURVE"
);
},
{
closed = 1;
nodes = (
"255 695 OFFCURVE",
"291 692 OFFCURVE",
"326 685 CURVE SMOOTH",
"414 667 OFFCURVE",
"495 632 OFFCURVE",
"536 548 CURVE SMOOTH",
"590 434 OFFCURVE",
"609 312 OFFCURVE",
"583 185 CURVE SMOOTH",
"581 177 OFFCURVE",
"574 167 OFFCURVE",
"581 160 CURVE SMOOTH",
"588 154 OFFCURVE",
"597 160 OFFCURVE",
"606 163 CURVE SMOOTH",
"669 184 OFFCURVE",
"704 229 OFFCURVE",
"713 293 CURVE SMOOTH",
"729 406 OFFCURVE",
"702 510 OFFCURVE",
"649 609 CURVE SMOOTH",
"627 651 OFFCURVE",
"594 674 OFFCURVE",
"546 686 CURVE SMOOTH",
"470 707 OFFCURVE",
"390 716 OFFCURVE",
"317 751 CURVE SMOOTH",
"277 771 OFFCURVE",
"232 781 OFFCURVE",
"186 776 CURVE SMOOTH",
"150 771 OFFCURVE",
"137 758 OFFCURVE",
"135 722 CURVE SMOOTH",
"135 708 OFFCURVE",
"141 700 OFFCURVE",
"156 701 CURVE SMOOTH",
"177 701 OFFCURVE",
"198 700 OFFCURVE",
"219 700 CURVE"
);
},
{
closed = 1;
nodes = (
"113 64 OFFCURVE",
"110 36 OFFCURVE",
"106 9 CURVE SMOOTH",
"105 0 OFFCURVE",
"100 -11 OFFCURVE",
"116 -13 CURVE SMOOTH",
"162 -21 OFFCURVE",
"207 -35 OFFCURVE",
"255 -30 CURVE SMOOTH",
"328 -22 OFFCURVE",
"383 18 OFFCURVE",
"441 59 CURVE SMOOTH",
"541 128 OFFCURVE",
"556 228 OFFCURVE",
"552 333 CURVE SMOOTH",
"547 442 OFFCURVE",
"494 531 OFFCURVE",
"413 604 CURVE SMOOTH",
"336 674 OFFCURVE",
"243 693 OFFCURVE",
"142 684 CURVE SMOOTH",
"119 682 OFFCURVE",
"108 671 OFFCURVE",
"108 646 CURVE SMOOTH",
"108 576 OFFCURVE",
"114 506 OFFCURVE",
"110 436 CURVE SMOOTH",
"105 321 OFFCURVE",
"118 206 OFFCURVE",
"112 87 CURVE"
);
},
{
closed = 1;
nodes = (
"73 138 OFFCURVE",
"84 187 OFFCURVE",
"89 236 CURVE SMOOTH",
"98 323 OFFCURVE",
"87 409 OFFCURVE",
"74 494 CURVE SMOOTH",
"64 556 OFFCURVE",
"69 619 OFFCURVE",
"89 675 CURVE SMOOTH",
"101 710 OFFCURVE",
"125 743 OFFCURVE",
"141 779 CURVE SMOOTH",
"144 786 OFFCURVE",
"153 787 OFFCURVE",
"161 787 CURVE SMOOTH",
"204 788 OFFCURVE",
"246 787 OFFCURVE",
"288 776 CURVE SMOOTH",
"296 774 OFFCURVE",
"305 773 OFFCURVE",
"314 773 CURVE SMOOTH",
"412 776 OFFCURVE",
"505 757 OFFCURVE",
"588 700 CURVE SMOOTH",
"616 681 OFFCURVE",
"648 666 OFFCURVE",
"678 648 CURVE SMOOTH",
"714 627 OFFCURVE",
"737 597 OFFCURVE",
"747 556 CURVE SMOOTH",
"764 489 OFFCURVE",
"786 422 OFFCURVE",
"780 351 CURVE SMOOTH",
"774 288 OFFCURVE",
"751 235 OFFCURVE",
"694 200 CURVE SMOOTH",
"658 178 OFFCURVE",
"622 155 OFFCURVE",
"584 136 CURVE SMOOTH",
"552 119 OFFCURVE",
"529 84 OFFCURVE",
"502 58 CURVE SMOOTH",
"494 50 OFFCURVE",
"487 40 OFFCURVE",
"478 36 CURVE SMOOTH",
"400 9 OFFCURVE",
"329 -39 OFFCURVE",
"244 -44 CURVE SMOOTH",
"189 -48 OFFCURVE",
"136 -29 OFFCURVE",
"82 -22 CURVE SMOOTH",
"67 -20 OFFCURVE",
"67 -5 OFFCURVE",
"67 7 CURVE SMOOTH",
"69 34 OFFCURVE",
"71 61 OFFCURVE",
"73 89 CURVE SMOOTH"
);
},
{
closed = 1;
nodes = (
"465 423 OFFCURVE",
"411 489 OFFCURVE",
"336 530 CURVE SMOOTH",
"306 547 OFFCURVE",
"270 554 OFFCURVE",
"234 551 CURVE SMOOTH",
"206 548 OFFCURVE",
"192 535 OFFCURVE",
"199 505 CURVE SMOOTH",
"203 488 OFFCURVE",
"202 471 OFFCURVE",
"201 453 CURVE SMOOTH",
"196 359 OFFCURVE",
"211 265 OFFCURVE",
"209 171 CURVE SMOOTH",
"208 153 OFFCURVE",
"217 143 OFFCURVE",
"238 147 CURVE SMOOTH",
"267 151 OFFCURVE",
"297 155 OFFCURVE",
"325 165 CURVE SMOOTH",
"403 192 OFFCURVE",
"449 247 OFFCURVE",
"457 316 CURVE SMOOTH"
);
},
{
closed = 1;
nodes = (
"383 554 OFFCURVE",
"475 455 OFFCURVE",
"476 335 CURVE SMOOTH",
"476 253 OFFCURVE",
"404 169 OFFCURVE",
"314 147 CURVE SMOOTH",
"289 140 OFFCURVE",
"263 135 OFFCURVE",
"237 132 CURVE SMOOTH",
"204 129 OFFCURVE",
"192 140 OFFCURVE",
"191 172 CURVE SMOOTH",
"188 259 OFFCURVE",
"186 345 OFFCURVE",
"184 432 CURVE SMOOTH",
"184 454 OFFCURVE",
"186 477 OFFCURVE",
"180 500 CURVE SMOOTH",
"169 539 OFFCURVE",
"181 557 OFFCURVE",
"222 563 CURVE SMOOTH",
"235 564 OFFCURVE",
"248 563 OFFCURVE",
"252 563 CURVE SMOOTH"
);
},
{
closed = 1;
nodes = (
"266 508 OFFCURVE",
"255 506 OFFCURVE",
"256 484 CURVE SMOOTH",
"260 426 OFFCURVE",
"262 368 OFFCURVE",
"263 310 CURVE SMOOTH",
"264 287 OFFCURVE",
"274 286 OFFCURVE",
"290 295 CURVE SMOOTH",
"321 313 OFFCURVE",
"346 336 OFFCURVE",
"362 369 CURVE SMOOTH",
"371 387 OFFCURVE",
"383 403 OFFCURVE",
"378 424 CURVE SMOOTH",
"368 461 OFFCURVE",
"322 500 OFFCURVE",
"280 505 CURVE"
);
},
{
closed = 1;
nodes = (
"239 367 OFFCURVE",
"252 438 OFFCURVE",
"231 506 CURVE SMOOTH",
"226 523 OFFCURVE",
"242 521 OFFCURVE",
"250 521 CURVE SMOOTH",
"295 523 OFFCURVE",
"337 511 OFFCURVE",
"366 474 CURVE SMOOTH",
"414 414 OFFCURVE",
"411 369 OFFCURVE",
"364 308 CURVE SMOOTH",
"342 279 OFFCURVE",
"314 260 OFFCURVE",
"281 247 CURVE SMOOTH",
"248 233 OFFCURVE",
"242 237 OFFCURVE",
"244 272 CURVE SMOOTH",
"244 280 OFFCURVE",
"245 289 OFFCURVE",
"246 306 CURVE"
);
}
);
vertWidth = 1000;
width = 920;
}
);
note = cid00037;
unicode = 0044;
},
{
glyphname = E;
lastChange = "2020-11-05 19:14:31 +0000";
layers = (
{
layerId = "FAEB3F87-0FE7-4D5C-BA65-CB0BBFD78DC9";
paths = (
{
closed = 1;
nodes = (
"486 344 OFFCURVE",
"498 342 OFFCURVE",
"510 341 CURVE SMOOTH",
"516 341 OFFCURVE",
"526 338 OFFCURVE",
"526 349 CURVE SMOOTH",
"526 361 OFFCURVE",
"518 366 OFFCURVE",
"508 363 CURVE SMOOTH",
"496 359 OFFCURVE",
"483 359 OFFCURVE",
"470 346 CURVE"
);
},
{
closed = 1;
nodes = (
"271 345 OFFCURVE",
"255 347 OFFCURVE",
"240 348 CURVE SMOOTH",
"235 349 OFFCURVE",
"227 361 OFFCURVE",
"225 345 CURVE SMOOTH",
"223 335 OFFCURVE",
"229 331 OFFCURVE",
"238 330 CURVE SMOOTH",
"255 329 OFFCURVE",
"271 332 OFFCURVE",
"292 342 CURVE"
);
},
{
closed = 1;
nodes = (
"349 641 OFFCURVE",
"318 654 OFFCURVE",
"284 642 CURVE",
"316 638 OFFCURVE",
"349 634 OFFCURVE",
"381 630 CURVE"
);
},
{
closed = 1;
nodes = (
"585 617 OFFCURVE",
"572 636 OFFCURVE",
"560 655 CURVE SMOOTH",
"558 659 OFFCURVE",
"553 660 OFFCURVE",
"549 657 CURVE SMOOTH",
"545 654 OFFCURVE",
"547 650 OFFCURVE",
"548 647 CURVE SMOOTH",
"556 627 OFFCURVE",
"568 609 OFFCURVE",
"586 586 CURVE"
);
},
{
closed = 1;
nodes = (
"214 223 OFFCURVE",
"212 223 OFFCURVE",
"209 223 CURVE",
"200 182 OFFCURVE",
"196 141 OFFCURVE",
"209 101 CURVE",
"216 101 LINE",
"216 142 OFFCURVE",
"217 183 OFFCURVE",
"217 223 CURVE"
);
},
{
closed = 1;
nodes = (
"203 797 OFFCURVE",
"232 797 OFFCURVE",
"261 793 CURVE SMOOTH",
"324 783 OFFCURVE",
"386 771 OFFCURVE",
"449 762 CURVE SMOOTH",
"459 760 OFFCURVE",
"478 749 OFFCURVE",
"481 765 CURVE SMOOTH",
"483 776 OFFCURVE",
"462 777 OFFCURVE",
"450 779 CURVE SMOOTH",
"365 789 OFFCURVE",
"282 807 OFFCURVE",
"196 810 CURVE SMOOTH",
"188 810 OFFCURVE",
"178 816 OFFCURVE",
"172 799 CURVE"
);
},
{
closed = 1;
nodes = (
"469 333 OFFCURVE",
"453 330 OFFCURVE",
"438 328 CURVE SMOOTH",
"403 323 OFFCURVE",
"403 323 OFFCURVE",
"408 288 CURVE SMOOTH",
"410 275 OFFCURVE",
"415 267 OFFCURVE",
"429 266 CURVE SMOOTH",
"446 264 OFFCURVE",
"463 262 OFFCURVE",
"480 258 CURVE SMOOTH",
"509 251 OFFCURVE",
"511 270 OFFCURVE",
"511 290 CURVE SMOOTH",
"512 309 OFFCURVE",
"519 333 OFFCURVE",
"486 329 CURVE"
);
},
{
closed = 1;
nodes = (
"483 576 OFFCURVE",
"496 551 OFFCURVE",
"510 526 CURVE SMOOTH",
"511 524 OFFCURVE",
"514 521 OFFCURVE",
"516 521 CURVE SMOOTH",
"538 523 OFFCURVE",
"557 533 OFFCURVE",
"573 548 CURVE SMOOTH",
"586 560 OFFCURVE",
"573 572 OFFCURVE",
"568 584 CURVE SMOOTH",
"562 596 OFFCURVE",
"557 608 OFFCURVE",
"550 619 CURVE SMOOTH",
"543 628 OFFCURVE",
"543 649 OFFCURVE",
"526 643 CURVE SMOOTH",
"509 637 OFFCURVE",
"493 625 OFFCURVE",
"484 610 CURVE"
);
},
{
closed = 1;
nodes = (
"447 50 OFFCURVE",
"447 42 OFFCURVE",
"447 34 CURVE SMOOTH",
"446 11 OFFCURVE",
"455 3 OFFCURVE",
"479 9 CURVE SMOOTH",
"497 14 OFFCURVE",
"515 15 OFFCURVE",
"534 18 CURVE SMOOTH",
"597 26 OFFCURVE",
"599 29 OFFCURVE",
"590 91 CURVE SMOOTH",
"590 92 OFFCURVE",
"590 93 OFFCURVE",
"590 94 CURVE SMOOTH",
"588 109 OFFCURVE",
"580 115 OFFCURVE",
"565 115 CURVE SMOOTH",
"537 115 OFFCURVE",
"513 104 OFFCURVE",
"487 98 CURVE SMOOTH",
"465 93 OFFCURVE",
"438 93 OFFCURVE",
"447 58 CURVE"
);
},
{
closed = 1;
nodes = (
"281 774 OFFCURVE",
"282 777 OFFCURVE",
"282 779 CURVE",
"272 780 OFFCURVE",
"262 782 OFFCURVE",
"253 783 CURVE SMOOTH",
"184 790 OFFCURVE",
"184 790 OFFCURVE",
"166 723 CURVE SMOOTH",
"146 648 OFFCURVE",
"147 646 OFFCURVE",
"225 652 CURVE SMOOTH",
"271 656 OFFCURVE",
"317 665 OFFCURVE",
"363 652 CURVE SMOOTH",
"390 643 OFFCURVE",
"418 637 OFFCURVE",
"446 630 CURVE SMOOTH",
"460 627 OFFCURVE",
"467 630 OFFCURVE",
"469 646 CURVE SMOOTH",
"472 673 OFFCURVE",
"475 700 OFFCURVE",
"482 726 CURVE SMOOTH",
"486 744 OFFCURVE",
"481 747 OFFCURVE",
"465 749 CURVE SMOOTH",
"404 756 OFFCURVE",
"342 764 OFFCURVE",
"281 771 CURVE"
);
},
{
closed = 1;
nodes = (
"123 475 OFFCURVE",
"116 434 OFFCURVE",
"115 393 CURVE SMOOTH",
"112 268 OFFCURVE",
"125 145 OFFCURVE",
"143 22 CURVE SMOOTH",
"150 -27 OFFCURVE",
"143 -24 OFFCURVE",
"197 -22 CURVE",
"203 -21 OFFCURVE",
"208 -22 OFFCURVE",
"214 -23 CURVE SMOOTH",
"274 -30 OFFCURVE",
"335 -29 OFFCURVE",
"396 -39 CURVE SMOOTH",
"418 -43 OFFCURVE",
"432 -35 OFFCURVE",
"433 -9 CURVE SMOOTH",
"433 9 OFFCURVE",
"433 27 OFFCURVE",
"435 46 CURVE SMOOTH",
"437 78 OFFCURVE",
"419 81 OFFCURVE",
"397 79 CURVE SMOOTH",
"344 73 OFFCURVE",
"292 75 OFFCURVE",
"239 78 CURVE SMOOTH",
"210 80 OFFCURVE",
"197 89 OFFCURVE",
"193 119 CURVE SMOOTH",
"189 145 OFFCURVE",
"188 172 OFFCURVE",
"191 199 CURVE SMOOTH",
"196 238 OFFCURVE",
"195 238 OFFCURVE",
"235 245 CURVE SMOOTH",
"280 253 OFFCURVE",
"326 249 OFFCURVE",
"371 260 CURVE SMOOTH",
"379 262 OFFCURVE",
"389 261 OFFCURVE",
"391 270 CURVE SMOOTH",
"396 288 OFFCURVE",
"397 308 OFFCURVE",
"390 325 CURVE SMOOTH",
"384 338 OFFCURVE",
"366 332 OFFCURVE",
"353 332 CURVE SMOOTH",
"314 330 OFFCURVE",
"276 315 OFFCURVE",
"236 316 CURVE SMOOTH",
"217 316 OFFCURVE",
"209 326 OFFCURVE",
"210 344 CURVE SMOOTH",
"211 373 OFFCURVE",
"216 401 OFFCURVE",
"222 429 CURVE SMOOTH",
"229 461 OFFCURVE",
"248 464 OFFCURVE",
"275 463 CURVE SMOOTH",
"323 461 OFFCURVE",
"371 465 OFFCURVE",
"420 468 CURVE SMOOTH",
"439 470 OFFCURVE",
"444 480 OFFCURVE",
"444 496 CURVE SMOOTH",
"443 525 OFFCURVE",
"441 553 OFFCURVE",
"442 582 CURVE SMOOTH",
"443 601 OFFCURVE",
"436 606 OFFCURVE",
"419 609 CURVE SMOOTH",
"331 626 OFFCURVE",
"242 635 OFFCURVE",
"154 644 CURVE SMOOTH",
"141 646 OFFCURVE",
"135 642 OFFCURVE",
"136 631 CURVE SMOOTH",
"139 592 OFFCURVE",
"127 554 OFFCURVE",
"125 516 CURVE SMOOTH"
);
},
{
closed = 1;
nodes = (
"502 645 OFFCURVE",
"519 656 OFFCURVE",
"537 666 CURVE SMOOTH",
"553 675 OFFCURVE",
"567 673 OFFCURVE",
"576 654 CURVE SMOOTH",
"590 626 OFFCURVE",
"600 599 OFFCURVE",
"602 567 CURVE SMOOTH",
"604 539 OFFCURVE",
"595 524 OFFCURVE",
"570 514 CURVE SMOOTH",
"520 494 OFFCURVE",
"491 510 OFFCURVE",
"477 565 CURVE SMOOTH",
"474 575 OFFCURVE",
"475 587 OFFCURVE",
"465 599 CURVE",
"456 584 OFFCURVE",
"457 570 OFFCURVE",
"457 556 CURVE SMOOTH",
"457 531 OFFCURVE",
"457 506 OFFCURVE",
"457 481 CURVE SMOOTH",
"458 466 OFFCURVE",
"453 458 OFFCURVE",
"436 457 CURVE SMOOTH",
"385 453 OFFCURVE",
"335 448 OFFCURVE",
"284 451 CURVE SMOOTH",
"259 453 OFFCURVE",
"248 446 OFFCURVE",
"247 419 CURVE SMOOTH",
"246 359 OFFCURVE",
"245 361 OFFCURVE",
"305 351 CURVE SMOOTH",
"372 340 OFFCURVE",
"435 351 OFFCURVE",
"498 371 CURVE SMOOTH",
"533 382 OFFCURVE",
"536 378 OFFCURVE",
"540 342 CURVE SMOOTH",
"542 324 OFFCURVE",
"543 306 OFFCURVE",
"544 289 CURVE SMOOTH",
"547 261 OFFCURVE",
"531 243 OFFCURVE",
"503 245 CURVE SMOOTH",
"480 247 OFFCURVE",
"457 244 OFFCURVE",
"434 253 CURVE SMOOTH",
"413 262 OFFCURVE",
"395 247 OFFCURVE",
"375 245 CURVE SMOOTH",
"337 241 OFFCURVE",
"300 237 OFFCURVE",
"262 237 CURVE SMOOTH",
"242 237 OFFCURVE",
"230 230 OFFCURVE",
"229 206 CURVE SMOOTH",
"228 172 OFFCURVE",
"229 138 OFFCURVE",
"229 104 CURVE SMOOTH",
"229 93 OFFCURVE",
"234 92 OFFCURVE",
"243 91 CURVE SMOOTH",
"282 84 OFFCURVE",
"320 88 OFFCURVE",
"359 91 CURVE SMOOTH",
"400 93 OFFCURVE",
"441 96 OFFCURVE",
"482 110 CURVE SMOOTH",
"509 120 OFFCURVE",
"534 136 OFFCURVE",
"562 144 CURVE SMOOTH",
"596 154 OFFCURVE",
"608 151 OFFCURVE",
"619 117 CURVE SMOOTH",
"625 96 OFFCURVE",
"629 73 OFFCURVE",
"632 51 CURVE SMOOTH",
"634 31 OFFCURVE",
"613 12 OFFCURVE",
"586 8 CURVE SMOOTH",
"554 4 OFFCURVE",
"522 1 OFFCURVE",
"490 -2 CURVE SMOOTH",
"469 -5 OFFCURVE",
"448 -7 OFFCURVE",
"440 -34 CURVE SMOOTH",
"435 -52 OFFCURVE",
"415 -56 OFFCURVE",
"399 -54 CURVE SMOOTH",
"325 -41 OFFCURVE",
"249 -41 OFFCURVE",
"174 -38 CURVE SMOOTH",
"146 -37 OFFCURVE",
"138 -23 OFFCURVE",
"135 0 CURVE SMOOTH",
"127 64 OFFCURVE",
"121 128 OFFCURVE",
"113 192 CURVE SMOOTH",
"93 362 OFFCURVE",
"115 529 OFFCURVE",
"134 697 CURVE SMOOTH",
"138 734 OFFCURVE",
"155 768 OFFCURVE",
"159 804 CURVE SMOOTH",
"161 814 OFFCURVE",
"166 817 OFFCURVE",
"176 817 CURVE SMOOTH",
"233 816 OFFCURVE",
"289 818 OFFCURVE",
"344 803 CURVE SMOOTH",
"368 797 OFFCURVE",
"394 796 OFFCURVE",
"419 793 CURVE",
"422 792 OFFCURVE",
"426 792 OFFCURVE",
"429 792 CURVE SMOOTH",
"499 785 OFFCURVE",
"506 775 OFFCURVE",
"489 709 CURVE SMOOTH",
"482 685 OFFCURVE",
"480 660 OFFCURVE",
"480 631 CURVE"
);
}
);
vertWidth = 1000;
width = 800;
}
);
note = cid00038;
unicode = 0045;
},
{
glyphname = F;
lastChange = "2020-11-05 19:14:31 +0000";
layers = (
{
layerId = "FAEB3F87-0FE7-4D5C-BA65-CB0BBFD78DC9";
paths = (
{
closed = 1;
nodes = (
"331 677 OFFCURVE",
"313 681 OFFCURVE",
"295 679 CURVE SMOOTH",
"277 677 OFFCURVE",
"256 671 OFFCURVE",
"240 660 CURVE",
"349 667 LINE"
);
},
{
closed = 1;
nodes = (
"143 -7 OFFCURVE",
"143 -21 OFFCURVE",
"143 -34 CURVE SMOOTH",
"144 -43 OFFCURVE",
"149 -50 OFFCURVE",
"159 -47 CURVE SMOOTH",
"169 -43 OFFCURVE",
"160 -37 OFFCURVE",
"159 -33 CURVE SMOOTH",
"156 -19 OFFCURVE",
"156 -5 OFFCURVE",
"143 5 CURVE"
);
},
{
closed = 1;
nodes = (
"399 262 OFFCURVE",
"410 238 OFFCURVE",
"415 212 CURVE SMOOTH",
"416 205 OFFCURVE",
"422 199 OFFCURVE",
"430 202 CURVE SMOOTH",
"443 207 OFFCURVE",
"432 214 OFFCURVE",
"430 219 CURVE SMOOTH",
"421 242 OFFCURVE",
"420 266 OFFCURVE",
"417 290 CURVE SMOOTH",
"416 297 OFFCURVE",
"419 307 OFFCURVE",
"410 307 CURVE SMOOTH",
"399 307 OFFCURVE",
"400 297 OFFCURVE",
"400 289 CURVE SMOOTH"
);
},
{
closed = 1;
nodes = (
"537 687 OFFCURVE",
"542 664 OFFCURVE",
"545 638 CURVE SMOOTH",
"548 609 OFFCURVE",
"551 581 OFFCURVE",
"548 552 CURVE SMOOTH",
"544 505 OFFCURVE",
"546 505 OFFCURVE",
"592 506 CURVE SMOOTH",
"603 507 OFFCURVE",
"615 508 OFFCURVE",
"626 509 CURVE SMOOTH",
"642 510 OFFCURVE",
"649 518 OFFCURVE",
"647 535 CURVE SMOOTH",
"642 583 OFFCURVE",
"638 631 OFFCURVE",
"634 679 CURVE SMOOTH",
"632 697 OFFCURVE",
"623 703 OFFCURVE",
"606 701 CURVE SMOOTH",
"572 695 OFFCURVE",
"537 690 OFFCURVE",
"503 684 CURVE"
);
},
{
closed = 1;
nodes = (
"434 278 OFFCURVE",
"436 259 OFFCURVE",
"439 240 CURVE SMOOTH",
"440 225 OFFCURVE",
"449 218 OFFCURVE",
"462 216 CURVE SMOOTH",
"493 212 OFFCURVE",
"523 209 OFFCURVE",
"554 210 CURVE SMOOTH",
"564 210 OFFCURVE",
"572 211 OFFCURVE",
"573 223 CURVE SMOOTH",
"576 259 OFFCURVE",
"583 294 OFFCURVE",
"578 330 CURVE SMOOTH",
"576 348 OFFCURVE",
"569 352 OFFCURVE",
"552 349 CURVE SMOOTH",
"522 343 OFFCURVE",
"492 336 OFFCURVE",
"462 334 CURVE SMOOTH",
"437 331 OFFCURVE",
"426 323 OFFCURVE",
"431 297 CURVE SMOOTH"
);
},
{
closed = 1;
nodes = (
"378 797 OFFCURVE",
"295 785 OFFCURVE",
"213 766 CURVE SMOOTH",
"153 752 OFFCURVE",
"154 750 OFFCURVE",
"153 693 CURVE SMOOTH",
"152 666 OFFCURVE",
"156 662 OFFCURVE",
"183 668 CURVE SMOOTH",
"232 678 OFFCURVE",
"277 695 OFFCURVE",
"326 694 CURVE SMOOTH",
"361 694 OFFCURVE",
"399 677 OFFCURVE",
"432 685 CURVE SMOOTH",
"505 701 OFFCURVE",
"504 678 OFFCURVE",
"503 766 CURVE SMOOTH",
"503 803 OFFCURVE",
"503 803 OFFCURVE",
"462 802 CURVE SMOOTH"
);
},
{
closed = 1;
nodes = (
"533 589 OFFCURVE",
"533 611 OFFCURVE",
"528 634 CURVE SMOOTH",
"521 667 OFFCURVE",
"520 668 OFFCURVE",
"487 664 CURVE SMOOTH",
"381 651 OFFCURVE",
"274 642 OFFCURVE",
"167 645 CURVE SMOOTH",
"152 646 OFFCURVE",
"148 639 OFFCURVE",
"147 627 CURVE SMOOTH",
"144 582 OFFCURVE",
"136 536 OFFCURVE",
"141 490 CURVE SMOOTH",
"147 441 OFFCURVE",
"153 391 OFFCURVE",
"151 341 CURVE SMOOTH",
"145 221 OFFCURVE",
"133 101 OFFCURVE",
"172 -15 CURVE SMOOTH",
"174 -23 OFFCURVE",
"173 -33 OFFCURVE",
"185 -34 CURVE SMOOTH",
"206 -37 OFFCURVE",
"227 -37 OFFCURVE",
"245 -28 CURVE SMOOTH",
"259 -20 OFFCURVE",
"251 -1 OFFCURVE",
"253 13 CURVE SMOOTH",
"254 17 OFFCURVE",
"253 21 OFFCURVE",
"253 26 CURVE SMOOTH",
"252 71 OFFCURVE",
"251 115 OFFCURVE",
"250 160 CURVE SMOOTH",
"249 181 OFFCURVE",
"258 190 OFFCURVE",
"279 190 CURVE SMOOTH",
"303 189 OFFCURVE",
"327 186 OFFCURVE",
"350 192 CURVE SMOOTH",
"398 204 OFFCURVE",
"399 205 OFFCURVE",
"387 253 CURVE SMOOTH",
"386 259 OFFCURVE",
"385 265 OFFCURVE",
"384 271 CURVE SMOOTH",
"382 286 OFFCURVE",
"374 290 OFFCURVE",
"360 288 CURVE SMOOTH",
"333 283 OFFCURVE",
"307 279 OFFCURVE",
"280 273 CURVE SMOOTH",
"252 268 OFFCURVE",
"246 272 OFFCURVE",
"246 300 CURVE SMOOTH",
"246 345 OFFCURVE",
"248 391 OFFCURVE",
"248 436 CURVE SMOOTH",
"248 453 OFFCURVE",
"255 459 OFFCURVE",
"272 460 CURVE SMOOTH",
"311 465 OFFCURVE",
"352 466 OFFCURVE",
"390 481 CURVE SMOOTH",
"415 491 OFFCURVE",
"441 493 OFFCURVE",
"468 495 CURVE SMOOTH",
"530 500 OFFCURVE",
"530 500 OFFCURVE",
"532 563 CURVE SMOOTH"
);
},
{
closed = 1;
nodes = (
"259 343 OFFCURVE",
"260 324 OFFCURVE",
"259 306 CURVE SMOOTH",
"258 288 OFFCURVE",
"265 282 OFFCURVE",
"283 285 CURVE SMOOTH",
"304 289 OFFCURVE",
"326 293 OFFCURVE",
"348 296 CURVE SMOOTH",
"371 300 OFFCURVE",
"393 306 OFFCURVE",
"404 329 CURVE SMOOTH",
"409 339 OFFCURVE",
"419 339 OFFCURVE",
"427 340 CURVE SMOOTH",
"472 348 OFFCURVE",
"517 354 OFFCURVE",
"562 363 CURVE SMOOTH",
"584 367 OFFCURVE",
"592 356 OFFCURVE",
"595 337 CURVE SMOOTH",
"601 294 OFFCURVE",
"591 253 OFFCURVE",
"590 211 CURVE SMOOTH",
"589 197 OFFCURVE",
"576 195 OFFCURVE",
"566 195 CURVE SMOOTH",
"521 196 OFFCURVE",
"477 186 OFFCURVE",
"432 190 CURVE SMOOTH",
"407 192 OFFCURVE",
"383 189 OFFCURVE",
"359 181 CURVE SMOOTH",
"337 174 OFFCURVE",
"314 174 OFFCURVE",
"291 176 CURVE SMOOTH",
"272 178 OFFCURVE",
"265 169 OFFCURVE",
"265 153 CURVE SMOOTH",
"266 95 OFFCURVE",
"265 37 OFFCURVE",
"270 -20 CURVE SMOOTH",
"271 -39 OFFCURVE",
"265 -45 OFFCURVE",
"252 -48 CURVE SMOOTH",
"223 -53 OFFCURVE",
"194 -57 OFFCURVE",
"166 -59 CURVE SMOOTH",
"143 -60 OFFCURVE",
"129 -48 OFFCURVE",
"129 -24 CURVE SMOOTH",
"129 -19 OFFCURVE",
"128 -15 OFFCURVE",
"128 -11 CURVE SMOOTH",
"131 32 OFFCURVE",
"134 75 OFFCURVE",
"124 119 CURVE SMOOTH",
"113 168 OFFCURVE",
"132 217 OFFCURVE",
"135 265 CURVE SMOOTH",
"140 342 OFFCURVE",
"137 418 OFFCURVE",
"129 494 CURVE SMOOTH",
"123 551 OFFCURVE",
"126 608 OFFCURVE",
"137 664 CURVE SMOOTH",
"141 684 OFFCURVE",
"140 705 OFFCURVE",
"141 725 CURVE SMOOTH",
"142 743 OFFCURVE",
"150 755 OFFCURVE",
"169 761 CURVE SMOOTH",
"273 797 OFFCURVE",
"381 809 OFFCURVE",
"490 813 CURVE SMOOTH",
"511 814 OFFCURVE",
"521 805 OFFCURVE",
"520 783 CURVE SMOOTH",
"520 762 OFFCURVE",
"520 741 OFFCURVE",
"519 720 CURVE SMOOTH",
"518 704 OFFCURVE",
"524 699 OFFCURVE",
"539 702 CURVE SMOOTH",
"565 706 OFFCURVE",
"590 713 OFFCURVE",
"617 712 CURVE SMOOTH",
"635 711 OFFCURVE",
"646 705 OFFCURVE",
"649 687 CURVE SMOOTH",
"659 633 OFFCURVE",
"659 577 OFFCURVE",
"665 522 CURVE SMOOTH",
"667 508 OFFCURVE",
"656 505 OFFCURVE",
"646 501 CURVE SMOOTH",
"618 488 OFFCURVE",
"587 495 OFFCURVE",
"558 493 CURVE SMOOTH",
"493 487 OFFCURVE",
"428 481 OFFCURVE",
"366 462 CURVE SMOOTH",
"340 454 OFFCURVE",
"314 451 OFFCURVE",
"288 450 CURVE SMOOTH",
"272 450 OFFCURVE",
"263 444 OFFCURVE",
"263 427 CURVE SMOOTH",
"264 405 OFFCURVE",
"263 383 OFFCURVE",
"263 361 CURVE",
"259 361 LINE"
);
}
);
vertWidth = 1000;
width = 820;
}
);
note = cid00039;
unicode = 0046;
},
{
glyphname = G;
lastChange = "2020-11-05 19:14:31 +0000";
layers = (
{
layerId = "FAEB3F87-0FE7-4D5C-BA65-CB0BBFD78DC9";
paths = (
{
closed = 1;
nodes = (
"186 -56 OFFCURVE",
"261 -74 OFFCURVE",
"300 -34 CURVE",
"247 -33 OFFCURVE",
"198 -25 OFFCURVE",
"151 1 CURVE"
);
},
{
closed = 1;
nodes = (
"526 631 OFFCURVE",
"522 559 OFFCURVE",
"551 497 CURVE",
"563 571 OFFCURVE",
"539 635 OFFCURVE",
"484 690 CURVE"
);
},
{
closed = 1;
nodes = (
"99 135 OFFCURVE",
"100 167 OFFCURVE",
"102 199 CURVE SMOOTH",
"108 296 OFFCURVE",
"126 392 OFFCURVE",
"103 487 CURVE",
"97 464 OFFCURVE",
"95 438 OFFCURVE",
"95 413 CURVE SMOOTH",
"94 360 OFFCURVE",
"95 307 OFFCURVE",
"87 253 CURVE SMOOTH",
"78 202 OFFCURVE",
"85 152 OFFCURVE",
"103 102 CURVE"
);
},
{
closed = 1;
nodes = (
"549 154 OFFCURVE",
"549 148 OFFCURVE",
"550 141 CURVE SMOOTH",
"550 135 OFFCURVE",
"546 126 OFFCURVE",
"557 126 CURVE SMOOTH",
"567 126 OFFCURVE",
"573 134 OFFCURVE",
"571 143 CURVE SMOOTH",
"564 172 OFFCURVE",
"582 194 OFFCURVE",
"595 218 CURVE SMOOTH",
"610 243 OFFCURVE",
"630 267 OFFCURVE",
"635 296 CURVE SMOOTH",
"641 332 OFFCURVE",
"630 358 OFFCURVE",
"598 374 CURVE SMOOTH",
"552 398 OFFCURVE",
"503 396 OFFCURVE",
"453 387 CURVE SMOOTH",
"449 386 OFFCURVE",
"443 385 OFFCURVE",
"442 380 CURVE SMOOTH",
"441 374 OFFCURVE",
"446 372 OFFCURVE",
"451 370 CURVE SMOOTH",
"510 347 OFFCURVE",
"529 300 OFFCURVE",
"546 251 CURVE SMOOTH",
"557 221 OFFCURVE",
"551 191 OFFCURVE",
"549 161 CURVE SMOOTH"
);
},
{
closed = 1;
nodes = (
"607 469 OFFCURVE",
"641 501 OFFCURVE",
"675 531 CURVE SMOOTH",
"687 542 OFFCURVE",
"683 555 OFFCURVE",
"677 568 CURVE SMOOTH",
"646 640 OFFCURVE",
"594 699 OFFCURVE",
"532 752 CURVE SMOOTH",
"499 780 OFFCURVE",
"456 799 OFFCURVE",
"409 803 CURVE SMOOTH",
"384 806 OFFCURVE",
"361 796 OFFCURVE",
"340 787 CURVE SMOOTH",
"302 771 OFFCURVE",
"256 767 OFFCURVE",
"226 737 CURVE SMOOTH",
"206 718 OFFCURVE",
"189 697 OFFCURVE",
"171 677 CURVE",
"234 704 OFFCURVE",
"299 724 OFFCURVE",
"367 733 CURVE SMOOTH",
"419 739 OFFCURVE",
"468 732 OFFCURVE",
"503 692 CURVE SMOOTH",
"552 637 OFFCURVE",
"574 575 OFFCURVE",
"568 506 CURVE SMOOTH",
"566 486 OFFCURVE",
"563 466 OFFCURVE",
"561 441 CURVE"
);
},
{
closed = 1;
nodes = (
"131 571 OFFCURVE",
"137 557 OFFCURVE",
"137 542 CURVE SMOOTH",
"137 525 OFFCURVE",
"143 520 OFFCURVE",
"162 529 CURVE SMOOTH",
"218 554 OFFCURVE",
"277 569 OFFCURVE",
"339 577 CURVE SMOOTH",
"366 580 OFFCURVE",
"392 579 OFFCURVE",
"413 560 CURVE SMOOTH",
"433 541 OFFCURVE",
"435 518 OFFCURVE",
"437 494 CURVE SMOOTH",
"440 448 OFFCURVE",
"443 445 OFFCURVE",
"492 435 CURVE SMOOTH",
"501 434 OFFCURVE",
"510 432 OFFCURVE",
"519 430 CURVE SMOOTH",
"539 427 OFFCURVE",
"547 435 OFFCURVE",
"547 452 CURVE SMOOTH",
"547 459 OFFCURVE",
"545 467 OFFCURVE",
"542 475 CURVE SMOOTH",
"531 503 OFFCURVE",
"525 532 OFFCURVE",
"518 561 CURVE SMOOTH",
"508 602 OFFCURVE",
"497 642 OFFCURVE",
"475 680 CURVE SMOOTH",
"453 720 OFFCURVE",
"417 730 OFFCURVE",
"373 724 CURVE SMOOTH",
"305 713 OFFCURVE",
"238 700 OFFCURVE",
"178 665 CURVE SMOOTH",
"142 644 OFFCURVE",
"129 620 OFFCURVE",
"133 584 CURVE"
);
},
{
closed = 1;
nodes = (
"375 291 LINE",
"375 278 OFFCURVE",
"376 265 OFFCURVE",
"375 252 CURVE SMOOTH",
"372 212 OFFCURVE",
"343 189 OFFCURVE",
"296 190 CURVE SMOOTH",
"258 191 OFFCURVE",
"234 211 OFFCURVE",
"224 241 CURVE SMOOTH",
"211 278 OFFCURVE",
"189 303 OFFCURVE",
"142 310 CURVE SMOOTH",
"125 313 OFFCURVE",
"122 310 OFFCURVE",
"122 299 CURVE SMOOTH",
"122 227 OFFCURVE",
"105 156 OFFCURVE",
"121 83 CURVE SMOOTH",
"132 34 OFFCURVE",
"163 3 OFFCURVE",
"218 -10 CURVE SMOOTH",
"271 -24 OFFCURVE",
"321 -17 OFFCURVE",
"371 -2 CURVE SMOOTH",
"389 2 OFFCURVE",
"401 13 OFFCURVE",
"401 30 CURVE SMOOTH",
"402 47 OFFCURVE",
"407 63 OFFCURVE",
"416 78 CURVE SMOOTH",
"426 96 OFFCURVE",
"440 96 OFFCURVE",
"456 86 CURVE SMOOTH",
"467 79 OFFCURVE",
"477 70 OFFCURVE",
"488 63 CURVE SMOOTH",
"498 57 OFFCURVE",
"509 49 OFFCURVE",
"522 54 CURVE SMOOTH",
"535 60 OFFCURVE",
"534 72 OFFCURVE",
"534 83 CURVE SMOOTH",
"535 115 OFFCURVE",
"532 147 OFFCURVE",
"537 178 CURVE SMOOTH",
"544 232 OFFCURVE",
"527 278 OFFCURVE",
"495 322 CURVE SMOOTH",
"485 336 OFFCURVE",
"472 349 OFFCURVE",
"454 356 CURVE SMOOTH",
"409 373 OFFCURVE",
"372 353 OFFCURVE",
"374 311 CURVE SMOOTH",
"374 304 OFFCURVE",
"374 298 OFFCURVE",
"374 291 CURVE"
);
},
{
closed = 1;
nodes = (
"447 822 OFFCURVE",
"493 804 OFFCURVE",
"537 776 CURVE SMOOTH",
"602 736 OFFCURVE",
"651 685 OFFCURVE",
"688 625 CURVE SMOOTH",
"703 601 OFFCURVE",
"708 575 OFFCURVE",
"699 547 CURVE SMOOTH",
"693 531 OFFCURVE",
"679 522 OFFCURVE",
"668 511 CURVE SMOOTH",
"638 479 OFFCURVE",
"603 451 OFFCURVE",
"563 429 CURVE SMOOTH",
"548 420 OFFCURVE",
"533 417 OFFCURVE",
"516 419 CURVE SMOOTH",
"485 423 OFFCURVE",
"454 429 OFFCURVE",
"423 433 CURVE SMOOTH",
"402 436 OFFCURVE",
"393 444 OFFCURVE",
"395 464 CURVE SMOOTH",
"398 486 OFFCURVE",
"399 508 OFFCURVE",
"399 531 CURVE SMOOTH",
"400 560 OFFCURVE",
"388 571 OFFCURVE",
"354 567 CURVE SMOOTH",
"311 563 OFFCURVE",
"269 554 OFFCURVE",
"228 542 CURVE SMOOTH",
"173 527 OFFCURVE",
"135 504 OFFCURVE",
"133 446 CURVE SMOOTH",
"132 414 OFFCURVE",
"128 381 OFFCURVE",
"127 349 CURVE SMOOTH",
"126 331 OFFCURVE",
"141 320 OFFCURVE",
"161 317 CURVE SMOOTH",
"198 312 OFFCURVE",
"220 295 OFFCURVE",
"228 262 CURVE SMOOTH",
"232 247 OFFCURVE",
"241 233 OFFCURVE",
"254 221 CURVE SMOOTH",
"270 205 OFFCURVE",
"290 198 OFFCURVE",
"314 203 CURVE SMOOTH",
"337 208 OFFCURVE",
"351 221 OFFCURVE",
"358 241 CURVE SMOOTH",
"366 264 OFFCURVE",
"363 288 OFFCURVE",
"360 312 CURVE SMOOTH",
"355 350 OFFCURVE",
"365 362 OFFCURVE",
"408 371 CURVE SMOOTH",
"414 372 OFFCURVE",
"422 371 OFFCURVE",
"423 377 CURVE SMOOTH",
"428 397 OFFCURVE",
"448 399 OFFCURVE",
"466 401 CURVE SMOOTH",
"520 406 OFFCURVE",
"573 406 OFFCURVE",
"620 375 CURVE SMOOTH",
"646 356 OFFCURVE",
"654 332 OFFCURVE",
"650 305 CURVE SMOOTH",
"648 283 OFFCURVE",
"636 262 OFFCURVE",
"629 241 CURVE SMOOTH",
"615 194 OFFCURVE",
"587 151 OFFCURVE",
"586 100 CURVE SMOOTH",
"585 53 OFFCURVE",
"528 27 OFFCURVE",
"482 52 CURVE SMOOTH",
"476 55 OFFCURVE",
"471 58 OFFCURVE",
"466 62 CURVE SMOOTH",
"456 68 OFFCURVE",
"448 81 OFFCURVE",
"435 76 CURVE SMOOTH",
"422 70 OFFCURVE",
"417 56 OFFCURVE",
"418 44 CURVE SMOOTH",
"420 7 OFFCURVE",
"401 -14 OFFCURVE",
"360 -22 CURVE SMOOTH",
"352 -24 OFFCURVE",
"344 -30 OFFCURVE",
"337 -35 CURVE SMOOTH",
"308 -56 OFFCURVE",
"273 -66 OFFCURVE",
"236 -67 CURVE SMOOTH",
"217 -68 OFFCURVE",
"199 -63 OFFCURVE",
"184 -51 CURVE SMOOTH",
"154 -28 OFFCURVE",
"128 -4 OFFCURVE",
"120 31 CURVE SMOOTH",
"119 36 OFFCURVE",
"117 42 OFFCURVE",
"113 47 CURVE",
"66 122 OFFCURVE",
"66 202 OFFCURVE",
"77 285 CURVE SMOOTH",
"84 341 OFFCURVE",
"78 398 OFFCURVE",
"83 454 CURVE SMOOTH",
"88 505 OFFCURVE",
"90 557 OFFCURVE",
"103 608 CURVE SMOOTH",
"107 625 OFFCURVE",
"115 639 OFFCURVE",
"131 652 CURVE SMOOTH",
"161 675 OFFCURVE",
"181 706 OFFCURVE",
"206 733 CURVE SMOOTH",
"254 784 OFFCURVE",
"312 817 OFFCURVE",
"393 814 CURVE"
);
}
);
vertWidth = 1000;
width = 840;
}
);
note = cid00040;
unicode = 0047;
},
{
glyphname = H;
lastChange = "2020-11-05 19:14:31 +0000";
layers = (
{
layerId = "FAEB3F87-0FE7-4D5C-BA65-CB0BBFD78DC9";
paths = (
{
closed = 1;
nodes = (
"92 -2 OFFCURVE",
"129 230 OFFCURVE",
"119 290 CURVE",
"99 184 OFFCURVE",
"87 78 OFFCURVE",
"65 -28 CURVE"
);
},
{
closed = 1;
nodes = (
"680 308 OFFCURVE",
"682 309 OFFCURVE",
"683 309 CURVE",
"684 311 OFFCURVE",
"684 313 OFFCURVE",
"684 315 CURVE SMOOTH",
"688 457 OFFCURVE",
"654 597 OFFCURVE",
"649 738 CURVE SMOOTH",
"648 746 OFFCURVE",
"646 753 OFFCURVE",
"644 760 CURVE",
"637 776 OFFCURVE",
"618 771 OFFCURVE",
"603 768 CURVE SMOOTH",
"583 764 OFFCURVE",
"598 756 OFFCURVE",
"602 750 CURVE SMOOTH",
"610 739 OFFCURVE",
"614 727 OFFCURVE",
"617 715 CURVE SMOOTH",
"634 631 OFFCURVE",
"651 547 OFFCURVE",
"669 462 CURVE SMOOTH",
"674 441 OFFCURVE",
"675 420 OFFCURVE",
"676 398 CURVE SMOOTH",
"677 368 OFFCURVE",
"678 338 OFFCURVE",
"679 308 CURVE"
);
},
{
closed = 1;
nodes = (
"571 733 OFFCURVE",
"572 738 OFFCURVE",
"572 743 CURVE SMOOTH",
"573 757 OFFCURVE",
"570 768 OFFCURVE",
"545 770 CURVE SMOOTH",
"500 773 OFFCURVE",
"488 771 OFFCURVE",
"482 750 CURVE SMOOTH",
"475 729 OFFCURVE",
"471 707 OFFCURVE",
"466 686 CURVE SMOOTH",
"464 677 OFFCURVE",
"469 673 OFFCURVE",
"482 671 CURVE SMOOTH",
"553 660 OFFCURVE",
"570 669 OFFCURVE",
"571 719 CURVE SMOOTH",
"571 722 OFFCURVE",
"571 725 OFFCURVE",
"571 724 CURVE SMOOTH"
);
},
{
closed = 1;
nodes = (
"269 729 OFFCURVE",
"268 735 OFFCURVE",
"269 741 CURVE SMOOTH",
"272 761 OFFCURVE",
"260 768 OFFCURVE",
"230 766 CURVE SMOOTH",
"156 760 OFFCURVE",
"152 757 OFFCURVE",
"154 705 CURVE SMOOTH",
"155 676 OFFCURVE",
"160 673 OFFCURVE",
"201 674 CURVE SMOOTH",
"271 676 OFFCURVE",
"271 676 OFFCURVE",
"269 724 CURVE SMOOTH"
);
},
{
closed = 1;
nodes = (
"592 724 OFFCURVE",
"589 724 OFFCURVE",
"585 724 CURVE",
"586 709 OFFCURVE",
"586 694 OFFCURVE",
"586 679 CURVE",
"587 674 OFFCURVE",
"589 666 OFFCURVE",
"581 663 CURVE SMOOTH",
"559 655 OFFCURVE",
"565 643 OFFCURVE",
"568 632 CURVE SMOOTH",
"590 520 OFFCURVE",
"616 408 OFFCURVE",
"619 294 CURVE SMOOTH",
"619 254 OFFCURVE",
"626 214 OFFCURVE",
"628 174 CURVE SMOOTH",
"631 108 OFFCURVE",
"641 42 OFFCURVE",
"606 -21 CURVE SMOOTH",
"600 -33 OFFCURVE",
"598 -47 OFFCURVE",
"596 -60 CURVE SMOOTH",
"592 -83 OFFCURVE",
"607 -91 OFFCURVE",
"651 -92 CURVE SMOOTH",
"684 -93 OFFCURVE",
"679 -76 OFFCURVE",
"679 -62 CURVE SMOOTH",
"679 -49 OFFCURVE",
"678 -37 OFFCURVE",
"678 -24 CURVE SMOOTH",
"673 68 OFFCURVE",
"666 160 OFFCURVE",
"663 253 CURVE SMOOTH",
"661 338 OFFCURVE",
"661 423 OFFCURVE",
"641 508 CURVE SMOOTH",
"625 580 OFFCURVE",
"611 652 OFFCURVE",
"596 724 CURVE"
);
},
{
closed = 1;
nodes = (
"418 31 OFFCURVE",
"419 1 OFFCURVE",
"421 -29 CURVE SMOOTH",
"421 -38 OFFCURVE",
"420 -50 OFFCURVE",
"438 -48 CURVE SMOOTH",
"478 -44 OFFCURVE",
"518 -47 OFFCURVE",
"557 -38 CURVE SMOOTH",
"568 -35 OFFCURVE",
"577 -31 OFFCURVE",
"583 -23 CURVE SMOOTH",
"595 -6 OFFCURVE",
"606 11 OFFCURVE",
"608 31 CURVE SMOOTH",
"617 106 OFFCURVE",
"613 181 OFFCURVE",
"606 255 CURVE SMOOTH",
"602 296 OFFCURVE",
"607 339 OFFCURVE",
"599 379 CURVE SMOOTH",
"584 457 OFFCURVE",
"572 536 OFFCURVE",
"554 613 CURVE SMOOTH",
"542 663 OFFCURVE",
"546 660 OFFCURVE",
"470 657 CURVE SMOOTH",
"469 657 OFFCURVE",
"468 657 OFFCURVE",
"467 657 CURVE SMOOTH",
"447 657 OFFCURVE",
"438 649 OFFCURVE",
"435 636 CURVE SMOOTH",
"421 574 OFFCURVE",
"407 513 OFFCURVE",
"403 451 CURVE SMOOTH",
"401 407 OFFCURVE",
"396 362 OFFCURVE",
"391 318 CURVE SMOOTH",
"390 308 OFFCURVE",
"388 297 OFFCURVE",
"371 296 CURVE SMOOTH",
"333 293 OFFCURVE",
"294 289 OFFCURVE",
"255 294 CURVE SMOOTH",
"237 296 OFFCURVE",
"225 304 OFFCURVE",
"231 318 CURVE SMOOTH",
"254 378 OFFCURVE",
"257 441 OFFCURVE",
"268 502 CURVE SMOOTH",
"276 547 OFFCURVE",
"277 592 OFFCURVE",
"277 638 CURVE SMOOTH",
"277 664 OFFCURVE",
"268 667 OFFCURVE",
"232 664 CURVE SMOOTH",
"214 662 OFFCURVE",
"195 661 OFFCURVE",
"177 662 CURVE SMOOTH",
"160 662 OFFCURVE",
"154 659 OFFCURVE",
"151 647 CURVE SMOOTH",
"137 592 OFFCURVE",
"130 537 OFFCURVE",
"132 481 CURVE SMOOTH",
"133 437 OFFCURVE",
"141 394 OFFCURVE",
"143 350 CURVE SMOOTH",
"145 286 OFFCURVE",
"135 221 OFFCURVE",
"128 156 CURVE SMOOTH",
"122 101 OFFCURVE",
"110 46 OFFCURVE",
"97 -8 CURVE SMOOTH",
"95 -15 OFFCURVE",
"90 -27 OFFCURVE",
"102 -29 CURVE SMOOTH",
"125 -34 OFFCURVE",
"151 -37 OFFCURVE",
"174 -32 CURVE SMOOTH",
"192 -28 OFFCURVE",
"188 -13 OFFCURVE",
"190 -3 CURVE SMOOTH",
"200 59 OFFCURVE",
"193 122 OFFCURVE",
"197 186 CURVE SMOOTH",
"200 230 OFFCURVE",
"198 230 OFFCURVE",
"260 236 CURVE SMOOTH",
"272 238 OFFCURVE",
"284 240 OFFCURVE",
"296 242 CURVE SMOOTH",
"329 248 OFFCURVE",
"362 253 OFFCURVE",
"396 255 CURVE SMOOTH",
"420 256 OFFCURVE",
"428 250 OFFCURVE",
"426 232 CURVE SMOOTH",
"421 176 OFFCURVE",
"409 119 OFFCURVE",
"417 77 CURVE"
);
},
{
closed = 1;
nodes = (
"675 575 OFFCURVE",
"705 471 OFFCURVE",
"702 365 CURVE SMOOTH",
"698 263 OFFCURVE",
"718 163 OFFCURVE",
"714 62 CURVE SMOOTH",
"713 36 OFFCURVE",
"712 10 OFFCURVE",
"698 -14 CURVE SMOOTH",
"687 -33 OFFCURVE",
"692 -53 OFFCURVE",
"693 -72 CURVE SMOOTH",
"693 -103 OFFCURVE",
"686 -108 OFFCURVE",
"644 -105 CURVE SMOOTH",
"590 -102 OFFCURVE",
"583 -98 OFFCURVE",
"578 -58 CURVE SMOOTH",
"576 -45 OFFCURVE",
"565 -47 OFFCURVE",
"554 -50 CURVE SMOOTH",
"517 -60 OFFCURVE",
"479 -57 OFFCURVE",
"441 -60 CURVE SMOOTH",
"418 -62 OFFCURVE",
"408 -57 OFFCURVE",
"406 -40 CURVE SMOOTH",
"398 33 OFFCURVE",
"399 107 OFFCURVE",
"405 181 CURVE SMOOTH",
"407 216 OFFCURVE",
"406 218 OFFCURVE",
"358 216 CURVE SMOOTH",
"318 214 OFFCURVE",
"279 209 OFFCURVE",
"239 205 CURVE SMOOTH",
"223 204 OFFCURVE",
"217 198 OFFCURVE",
"216 186 CURVE SMOOTH",
"211 141 OFFCURVE",
"205 96 OFFCURVE",
"209 51 CURVE SMOOTH",
"212 25 OFFCURVE",
"207 0 OFFCURVE",
"204 -24 CURVE SMOOTH",
"202 -39 OFFCURVE",
"192 -49 OFFCURVE",
"168 -47 CURVE SMOOTH",
"135 -44 OFFCURVE",
"102 -46 OFFCURVE",
"70 -48 CURVE SMOOTH",
"46 -50 OFFCURVE",
"43 -44 OFFCURVE",
"45 -29 CURVE SMOOTH",
"55 32 OFFCURVE",
"74 93 OFFCURVE",
"82 154 CURVE SMOOTH",
"99 270 OFFCURVE",
"121 385 OFFCURVE",
"113 501 CURVE SMOOTH",
"109 560 OFFCURVE",
"127 619 OFFCURVE",
"134 677 CURVE SMOOTH",
"137 697 OFFCURVE",
"135 718 OFFCURVE",
"136 738 CURVE SMOOTH",
"137 756 OFFCURVE",
"149 767 OFFCURVE",
"176 770 CURVE SMOOTH",
"206 774 OFFCURVE",
"235 777 OFFCURVE",
"265 777 CURVE SMOOTH",
"278 777 OFFCURVE",
"289 775 OFFCURVE",
"297 767 CURVE SMOOTH",
"319 747 OFFCURVE",
"320 692 OFFCURVE",
"299 670 CURVE",
"294 666 OFFCURVE",
"291 663 OFFCURVE",
"292 657 CURVE SMOOTH",
"301 579 OFFCURVE",
"283 502 OFFCURVE",
"272 425 CURVE SMOOTH",
"267 391 OFFCURVE",
"262 357 OFFCURVE",
"249 324 CURVE SMOOTH",
"244 310 OFFCURVE",
"253 304 OFFCURVE",
"271 303 CURVE SMOOTH",
"299 302 OFFCURVE",
"327 305 OFFCURVE",
"354 308 CURVE SMOOTH",
"370 310 OFFCURVE",
"371 320 OFFCURVE",
"374 328 CURVE SMOOTH",
"387 373 OFFCURVE",
"386 418 OFFCURVE",
"388 463 CURVE SMOOTH",
"391 514 OFFCURVE",
"400 564 OFFCURVE",
"412 614 CURVE SMOOTH",
"423 658 OFFCURVE",
"427 703 OFFCURVE",
"441 746 CURVE SMOOTH",
"447 765 OFFCURVE",
"458 776 OFFCURVE",
"485 780 CURVE SMOOTH",
"502 783 OFFCURVE",
"519 788 OFFCURVE",
"535 792 CURVE SMOOTH",
"555 797 OFFCURVE",
"574 802 OFFCURVE",
"589 785 CURVE",
"596 775 OFFCURVE",
"613 780 OFFCURVE",
"626 781 CURVE SMOOTH",
"651 783 OFFCURVE",
"663 777 OFFCURVE",
"666 758 CURVE SMOOTH",
"671 733 OFFCURVE",
"670 707 OFFCURVE",
"674 679 CURVE"
);
}
);
vertWidth = 1000;
width = 840;
}
);
note = cid00041;
unicode = 0048;
},
{
glyphname = I;
lastChange = "2020-11-05 19:14:31 +0000";
layers = (
{
layerId = "FAEB3F87-0FE7-4D5C-BA65-CB0BBFD78DC9";
paths = (
{
closed = 1;
nodes = (
"429 83 OFFCURVE",
"409 183 OFFCURVE",
"380 283 CURVE",
"381 179 OFFCURVE",
"393 77 OFFCURVE",
"427 -21 CURVE"
);
},
{
closed = 1;
nodes = (
"98 348 OFFCURVE",
"94 268 OFFCURVE",
"95 208 CURVE SMOOTH",
"97 137 OFFCURVE",
"106 66 OFFCURVE",
"102 -4 CURVE",
"101 -8 OFFCURVE",
"99 -12 OFFCURVE",
"109 -17 CURVE",
"118 119 OFFCURVE",
"119 255 OFFCURVE",
"118 392 CURVE"
);
},
{
closed = 1;
nodes = (
"240 747 OFFCURVE",
"240 754 OFFCURVE",
"239 761 CURVE SMOOTH",
"237 782 OFFCURVE",
"234 786 OFFCURVE",
"212 783 CURVE SMOOTH",
"197 782 OFFCURVE",
"183 778 OFFCURVE",
"168 773 CURVE SMOOTH",
"138 765 OFFCURVE",
"136 762 OFFCURVE",
"140 730 CURVE",
"140 723 OFFCURVE",
"140 716 OFFCURVE",
"139 709 CURVE SMOOTH",
"139 699 OFFCURVE",
"141 693 OFFCURVE",
"153 695 CURVE SMOOTH",
"173 699 OFFCURVE",
"192 702 OFFCURVE",
"212 706 CURVE SMOOTH",
"234 711 OFFCURVE",
"238 718 OFFCURVE",
"240 745 CURVE SMOOTH"
);
},
{
closed = 1;
nodes = (
"317 -19 OFFCURVE",
"315 -11 OFFCURVE",
"316 -3 CURVE SMOOTH",
"320 26 OFFCURVE",
"313 55 OFFCURVE",
"314 84 CURVE SMOOTH",
"315 127 OFFCURVE",
"313 169 OFFCURVE",
"309 211 CURVE SMOOTH",
"305 262 OFFCURVE",
"297 314 OFFCURVE",
"292 365 CURVE SMOOTH",
"290 378 OFFCURVE",
"288 392 OFFCURVE",
"290 405 CURVE SMOOTH",
"300 471 OFFCURVE",
"278 532 OFFCURVE",
"262 594 CURVE SMOOTH",
"258 609 OFFCURVE",
"255 626 OFFCURVE",
"246 640 CURVE",
"247 581 OFFCURVE",
"251 523 OFFCURVE",
"264 466 CURVE SMOOTH",
"276 411 OFFCURVE",
"281 356 OFFCURVE",
"287 302 CURVE SMOOTH",
"290 275 OFFCURVE",
"294 248 OFFCURVE",
"293 221 CURVE SMOOTH",
"292 149 OFFCURVE",
"296 78 OFFCURVE",
"302 6 CURVE SMOOTH",
"303 -4 OFFCURVE",
"304 -16 OFFCURVE",
"309 -29 CURVE"
);
},
{
closed = 1;
nodes = (
"414 -64 OFFCURVE",
"420 -58 OFFCURVE",
"411 -26 CURVE SMOOTH",
"392 45 OFFCURVE",
"377 117 OFFCURVE",
"371 191 CURVE SMOOTH",
"367 256 OFFCURVE",
"362 320 OFFCURVE",
"361 385 CURVE SMOOTH",
"360 435 OFFCURVE",
"359 485 OFFCURVE",
"345 535 CURVE SMOOTH",
"330 586 OFFCURVE",
"318 638 OFFCURVE",
"304 690 CURVE SMOOTH",
"302 697 OFFCURVE",
"299 704 OFFCURVE",
"296 711 CURVE SMOOTH",
"294 717 OFFCURVE",
"289 719 OFFCURVE",
"282 719 CURVE SMOOTH",
"255 720 OFFCURVE",
"245 709 OFFCURVE",
"251 683 CURVE SMOOTH",
"264 631 OFFCURVE",
"278 579 OFFCURVE",
"293 528 CURVE SMOOTH",
"301 501 OFFCURVE",
"305 473 OFFCURVE",
"303 445 CURVE SMOOTH",
"302 433 OFFCURVE",
"302 421 OFFCURVE",
"302 410 CURVE SMOOTH",
"305 347 OFFCURVE",
"313 286 OFFCURVE",
"320 224 CURVE SMOOTH",
"327 155 OFFCURVE",
"325 85 OFFCURVE",
"329 16 CURVE SMOOTH",
"329 6 OFFCURVE",
"330 -4 OFFCURVE",
"329 -14 CURVE SMOOTH",
"325 -44 OFFCURVE",
"327 -48 OFFCURVE",
"356 -57 CURVE SMOOTH",
"363 -59 OFFCURVE",
"372 -61 OFFCURVE",
"377 -62 CURVE"
);
},
{
closed = 1;
nodes = (
"200 -61 OFFCURVE",
"239 -47 OFFCURVE",
"278 -46 CURVE SMOOTH",
"292 -45 OFFCURVE",
"295 -40 OFFCURVE",
"293 -27 CURVE SMOOTH",
"285 24 OFFCURVE",
"282 77 OFFCURVE",
"282 130 CURVE SMOOTH",
"283 226 OFFCURVE",
"276 322 OFFCURVE",
"261 416 CURVE SMOOTH",
"252 478 OFFCURVE",
"240 540 OFFCURVE",
"233 602 CURVE SMOOTH",
"230 629 OFFCURVE",
"226 657 OFFCURVE",
"235 684 CURVE SMOOTH",
"238 694 OFFCURVE",
"235 701 OFFCURVE",
"221 698 CURVE SMOOTH",
"201 693 OFFCURVE",
"180 689 OFFCURVE",
"159 686 CURVE SMOOTH",
"143 684 OFFCURVE",
"134 676 OFFCURVE",
"132 659 CURVE SMOOTH",
"128 633 OFFCURVE",
"125 607 OFFCURVE",
"125 581 CURVE SMOOTH",
"124 547 OFFCURVE",
"123 513 OFFCURVE",
"130 481 CURVE SMOOTH",
"134 464 OFFCURVE",
"136 450 OFFCURVE",
"133 433 CURVE SMOOTH",
"129 409 OFFCURVE",
"130 384 OFFCURVE",
"129 359 CURVE SMOOTH",
"129 315 OFFCURVE",
"126 271 OFFCURVE",
"130 227 CURVE SMOOTH",
"133 197 OFFCURVE",
"126 166 OFFCURVE",
"126 136 CURVE SMOOTH",
"126 87 OFFCURVE",
"128 38 OFFCURVE",
"121 -9 CURVE SMOOTH",
"114 -58 OFFCURVE",
"115 -51 OFFCURVE",
"167 -56 CURVE SMOOTH"
);
},
{
closed = 1;
nodes = (
"92 48 OFFCURVE",
"88 87 OFFCURVE",
"86 127 CURVE SMOOTH",
"85 173 OFFCURVE",
"82 219 OFFCURVE",
"83 266 CURVE SMOOTH",
"84 317 OFFCURVE",
"95 368 OFFCURVE",
"109 418 CURVE SMOOTH",
"117 448 OFFCURVE",
"120 479 OFFCURVE",
"117 510 CURVE SMOOTH",
"112 561 OFFCURVE",
"110 612 OFFCURVE",
"117 663 CURVE SMOOTH",
"120 678 OFFCURVE",
"126 692 OFFCURVE",
"126 707 CURVE SMOOTH",
"127 719 OFFCURVE",
"128 729 OFFCURVE",
"125 740 CURVE SMOOTH",
"122 756 OFFCURVE",
"127 768 OFFCURVE",
"142 774 CURVE SMOOTH",
"170 786 OFFCURVE",
"199 794 OFFCURVE",
"230 794 CURVE SMOOTH",
"246 794 OFFCURVE",
"252 786 OFFCURVE",
"252 773 CURVE SMOOTH",
"253 760 OFFCURVE",
"253 748 OFFCURVE",
"253 736 CURVE SMOOTH",
"253 726 OFFCURVE",
"257 722 OFFCURVE",
"266 726 CURVE SMOOTH",
"294 737 OFFCURVE",
"308 735 OFFCURVE",
"319 693 CURVE SMOOTH",
"334 629 OFFCURVE",
"350 566 OFFCURVE",
"362 502 CURVE SMOOTH",
"369 465 OFFCURVE",
"372 426 OFFCURVE",
"373 388 CURVE SMOOTH",
"373 350 OFFCURVE",
"386 315 OFFCURVE",
"396 280 CURVE SMOOTH",
"406 243 OFFCURVE",
"415 205 OFFCURVE",
"420 167 CURVE SMOOTH",
"427 121 OFFCURVE",
"436 75 OFFCURVE",
"442 28 CURVE SMOOTH",
"446 0 OFFCURVE",
"445 -27 OFFCURVE",
"436 -54 CURVE SMOOTH",
"432 -66 OFFCURVE",
"423 -70 OFFCURVE",
"412 -72 CURVE SMOOTH",
"383 -78 OFFCURVE",
"356 -71 OFFCURVE",
"330 -58 CURVE SMOOTH",
"319 -53 OFFCURVE",
"309 -52 OFFCURVE",
"297 -54 CURVE SMOOTH",
"255 -58 OFFCURVE",
"213 -68 OFFCURVE",
"171 -66 CURVE SMOOTH",
"151 -65 OFFCURVE",
"132 -63 OFFCURVE",
"113 -61 CURVE SMOOTH",
"109 -60 OFFCURVE",
"105 -59 OFFCURVE",
"105 -55 CURVE",
"101 -33 OFFCURVE",
"79 -15 OFFCURVE",
"90 6 CURVE"
);
}
);
vertWidth = 1000;
width = 600;
}
);
note = cid00042;
unicode = 0049;
},
{
glyphname = J;
lastChange = "2020-11-05 19:14:31 +0000";
layers = (
{
layerId = "FAEB3F87-0FE7-4D5C-BA65-CB0BBFD78DC9";
paths = (
{
closed = 1;
nodes = (
"248 384 OFFCURVE",
"252 307 OFFCURVE",
"254 230 CURVE",
"263 307 OFFCURVE",
"256 384 OFFCURVE",
"239 461 CURVE"
);
},
{
closed = 1;
nodes = (
"175 271 OFFCURVE",
"177 281 OFFCURVE",
"158 279 CURVE SMOOTH",
"134 277 OFFCURVE",
"115 262 OFFCURVE",
"114 244 CURVE SMOOTH",
"113 201 OFFCURVE",
"116 159 OFFCURVE",
"121 116 CURVE SMOOTH",
"122 111 OFFCURVE",
"120 105 OFFCURVE",
"129 104 CURVE SMOOTH",
"138 103 OFFCURVE",
"140 109 OFFCURVE",
"141 114 CURVE SMOOTH",
"152 164 OFFCURVE",
"162 213 OFFCURVE",
"173 263 CURVE SMOOTH"
);
},
{
closed = 1;
nodes = (
"351 731 OFFCURVE",
"352 745 OFFCURVE",
"354 759 CURVE",
"354 770 OFFCURVE",
"348 777 OFFCURVE",
"332 779 CURVE SMOOTH",
"298 784 OFFCURVE",
"266 780 OFFCURVE",
"235 772 CURVE SMOOTH",
"224 770 OFFCURVE",
"219 764 OFFCURVE",
"218 755 CURVE SMOOTH",
"216 737 OFFCURVE",
"212 718 OFFCURVE",
"210 699 CURVE SMOOTH",
"204 655 OFFCURVE",
"204 655 OFFCURVE",
"265 657 CURVE SMOOTH",
"360 659 OFFCURVE",
"345 655 OFFCURVE",
"350 718 CURVE SMOOTH"
);
},
{
closed = 1;
nodes = (
"560 220 OFFCURVE",
"561 275 OFFCURVE",
"561 329 CURVE SMOOTH",
"561 438 OFFCURVE",
"529 546 OFFCURVE",
"512 654 CURVE SMOOTH",
"510 665 OFFCURVE",
"503 670 OFFCURVE",
"488 668 CURVE SMOOTH",
"465 666 OFFCURVE",
"442 664 OFFCURVE",
"419 663 CURVE SMOOTH",
"395 661 OFFCURVE",
"386 653 OFFCURVE",
"389 635 CURVE SMOOTH",
"394 598 OFFCURVE",
"407 561 OFFCURVE",
"424 525 CURVE SMOOTH",
"449 475 OFFCURVE",
"467 423 OFFCURVE",
"479 371 CURVE SMOOTH",
"492 312 OFFCURVE",
"491 254 OFFCURVE",
"494 196 CURVE SMOOTH",
"496 143 OFFCURVE",
"490 89 OFFCURVE",
"462 40 CURVE SMOOTH",
"450 20 OFFCURVE",
"436 1 OFFCURVE",
"423 -18 CURVE SMOOTH",
"421 -21 OFFCURVE",
"417 -25 OFFCURVE",
"420 -28 CURVE SMOOTH",
"424 -33 OFFCURVE",
"430 -30 OFFCURVE",
"435 -29 CURVE SMOOTH",
"465 -23 OFFCURVE",
"490 -12 OFFCURVE",
"506 8 CURVE SMOOTH",
"544 57 OFFCURVE",
"555 110 OFFCURVE",
"559 165 CURVE SMOOTH"
);
},
{
closed = 1;
nodes = (
"360 653 OFFCURVE",
"339 648 OFFCURVE",
"314 648 CURVE SMOOTH",
"300 647 OFFCURVE",
"286 646 OFFCURVE",
"273 646 CURVE SMOOTH",
"245 646 OFFCURVE",
"239 642 OFFCURVE",
"241 621 CURVE SMOOTH",
"248 548 OFFCURVE",
"257 474 OFFCURVE",
"267 401 CURVE SMOOTH",
"277 331 OFFCURVE",
"286 260 OFFCURVE",
"264 192 CURVE SMOOTH",
"252 158 OFFCURVE",
"257 124 OFFCURVE",
"260 89 CURVE SMOOTH",
"262 69 OFFCURVE",
"265 49 OFFCURVE",
"256 31 CURVE SMOOTH",
"253 24 OFFCURVE",
"250 15 OFFCURVE",
"239 13 CURVE SMOOTH",
"227 12 OFFCURVE",
"221 20 OFFCURVE",
"215 26 CURVE SMOOTH",
"198 45 OFFCURVE",
"178 61 OFFCURVE",
"159 79 CURVE SMOOTH",
"148 89 OFFCURVE",
"135 87 OFFCURVE",
"121 84 CURVE SMOOTH",
"108 80 OFFCURVE",
"105 72 OFFCURVE",
"109 62 CURVE SMOOTH",
"114 48 OFFCURVE",
"115 33 OFFCURVE",
"116 18 CURVE SMOOTH",
"117 0 OFFCURVE",
"122 -19 OFFCURVE",
"127 -38 CURVE SMOOTH",
"134 -66 OFFCURVE",
"149 -76 OFFCURVE",
"187 -74 CURVE SMOOTH",
"247 -70 OFFCURVE",
"304 -58 OFFCURVE",
"358 -42 CURVE SMOOTH",
"387 -33 OFFCURVE",
"407 -17 OFFCURVE",
"423 3 CURVE SMOOTH",
"470 66 OFFCURVE",
"483 134 OFFCURVE",
"481 205 CURVE SMOOTH",
"480 231 OFFCURVE",
"475 257 OFFCURVE",
"475 283 CURVE SMOOTH",
"475 362 OFFCURVE",
"452 438 OFFCURVE",
"416 512 CURVE SMOOTH",
"389 565 OFFCURVE",
"374 618 OFFCURVE",
"366 678 CURVE"
);
},
{
closed = 1;
nodes = (
"573 104 OFFCURVE",
"555 59 OFFCURVE",
"528 14 CURVE SMOOTH",
"509 -18 OFFCURVE",
"477 -37 OFFCURVE",
"431 -41 CURVE SMOOTH",
"382 -45 OFFCURVE",
"341 -63 OFFCURVE",
"294 -71 CURVE SMOOTH",
"259 -76 OFFCURVE",
"224 -84 OFFCURVE",
"188 -86 CURVE SMOOTH",
"142 -89 OFFCURVE",
"121 -76 OFFCURVE",
"113 -42 CURVE SMOOTH",
"94 40 OFFCURVE",
"77 123 OFFCURVE",
"86 207 CURVE SMOOTH",
"87 222 OFFCURVE",
"90 237 OFFCURVE",
"94 252 CURVE SMOOTH",
"101 276 OFFCURVE",
"126 287 OFFCURVE",
"156 292 CURVE SMOOTH",
"179 296 OFFCURVE",
"197 280 OFFCURVE",
"190 261 CURVE SMOOTH",
"176 226 OFFCURVE",
"172 190 OFFCURVE",
"164 155 CURVE SMOOTH",
"155 119 OFFCURVE",
"155 86 OFFCURVE",
"199 60 CURVE SMOOTH",
"208 54 OFFCURVE",
"213 46 OFFCURVE",
"220 40 CURVE SMOOTH",
"224 36 OFFCURVE",
"227 31 OFFCURVE",
"234 32 CURVE SMOOTH",
"241 33 OFFCURVE",
"242 38 OFFCURVE",
"244 42 CURVE",
"250 65 OFFCURVE",
"247 88 OFFCURVE",
"244 111 CURVE SMOOTH",
"236 158 OFFCURVE",
"240 206 OFFCURVE",
"236 253 CURVE SMOOTH",
"233 307 OFFCURVE",
"236 361 OFFCURVE",
"224 415 CURVE SMOOTH",
"216 456 OFFCURVE",
"227 496 OFFCURVE",
"218 537 CURVE SMOOTH",
"209 576 OFFCURVE",
"211 616 OFFCURVE",
"191 654 CURVE SMOOTH",
"188 659 OFFCURVE",
"189 665 OFFCURVE",
"190 671 CURVE SMOOTH",
"193 697 OFFCURVE",
"200 722 OFFCURVE",
"200 748 CURVE SMOOTH",
"199 773 OFFCURVE",
"216 780 OFFCURVE",
"244 786 CURVE SMOOTH",
"279 793 OFFCURVE",
"313 794 OFFCURVE",
"349 786 CURVE SMOOTH",
"366 781 OFFCURVE",
"374 774 OFFCURVE",
"373 762 CURVE SMOOTH",
"368 734 OFFCURVE",
"387 709 OFFCURVE",
"388 682 CURVE SMOOTH",
"388 671 OFFCURVE",
"400 672 OFFCURVE",
"411 673 CURVE SMOOTH",
"439 675 OFFCURVE",
"466 678 OFFCURVE",
"494 679 CURVE SMOOTH",
"525 680 OFFCURVE",
"530 675 OFFCURVE",
"532 653 CURVE SMOOTH",
"538 595 OFFCURVE",
"549 537 OFFCURVE",
"561 480 CURVE SMOOTH",
"570 433 OFFCURVE",
"573 386 OFFCURVE",
"575 339 CURVE SMOOTH",
"577 277 OFFCURVE",
"574 216 OFFCURVE",
"574 154 CURVE SMOOTH"
);
}
);
vertWidth = 1000;
width = 760;
}
);
note = cid00043;
unicode = 004A;
},
{
glyphname = K;
lastChange = "2020-11-05 19:14:31 +0000";
layers = (
{
layerId = "FAEB3F87-0FE7-4D5C-BA65-CB0BBFD78DC9";
paths = (
{
closed = 1;
nodes = (
"646 655 OFFCURVE",
"641 659 OFFCURVE",
"632 659 CURVE SMOOTH",
"613 661 OFFCURVE",
"603 655 OFFCURVE",
"594 642 CURVE SMOOTH",
"576 614 OFFCURVE",
"570 583 OFFCURVE",
"541 559 CURVE SMOOTH",
"536 554 OFFCURVE",
"527 548 OFFCURVE",
"533 542 CURVE SMOOTH",
"540 534 OFFCURVE",
"552 532 OFFCURVE",
"563 534 CURVE SMOOTH",
"584 536 OFFCURVE",
"595 547 OFFCURVE",
"602 561 CURVE SMOOTH",
"614 585 OFFCURVE",
"627 608 OFFCURVE",
"639 632 CURVE SMOOTH",
"642 637 OFFCURVE",
"644 643 OFFCURVE",
"646 647 CURVE"
);
},
{
closed = 1;
nodes = (
"147 781 OFFCURVE",
"147 781 OFFCURVE",
"164 742 CURVE SMOOTH",
"168 734 OFFCURVE",
"171 725 OFFCURVE",
"174 717 CURVE",
"178 699 OFFCURVE",
"188 688 OFFCURVE",
"216 692 CURVE SMOOTH",
"243 695 OFFCURVE",
"258 705 OFFCURVE",
"256 726 CURVE SMOOTH",
"255 736 OFFCURVE",
"252 747 OFFCURVE",
"251 757 CURVE SMOOTH",
"248 781 OFFCURVE",
"232 791 OFFCURVE",
"202 785 CURVE"
);
},
{
closed = 1;
nodes = (
"154 378 OFFCURVE",
"150 452 OFFCURVE",
"142 525 CURVE SMOOTH",
"139 559 OFFCURVE",
"139 591 OFFCURVE",
"147 625 CURVE SMOOTH",
"156 660 OFFCURVE",
"149 695 OFFCURVE",
"143 730 CURVE",
"114 589 OFFCURVE",
"121 448 OFFCURVE",
"128 306 CURVE"
);
},
{
closed = 1;
nodes = (
"582 727 OFFCURVE",
"582 741 OFFCURVE",
"582 755 CURVE SMOOTH",
"581 769 OFFCURVE",
"574 781 OFFCURVE",
"552 781 CURVE SMOOTH",
"529 782 OFFCURVE",
"503 787 OFFCURVE",
"491 766 CURVE SMOOTH",
"476 738 OFFCURVE",
"468 708 OFFCURVE",
"466 678 CURVE SMOOTH",
"466 670 OFFCURVE",
"465 660 OFFCURVE",
"481 660 CURVE SMOOTH",
"509 661 OFFCURVE",
"529 651 OFFCURVE",
"549 638 CURVE SMOOTH",
"565 628 OFFCURVE",
"572 635 OFFCURVE",
"575 647 CURVE SMOOTH",
"581 669 OFFCURVE",
"583 691 OFFCURVE",
"582 713 CURVE SMOOTH"
);
},
{
closed = 1;
nodes = (
"515 486 OFFCURVE",
"487 489 OFFCURVE",
"461 479 CURVE SMOOTH",
"450 475 OFFCURVE",
"439 471 OFFCURVE",
"445 459 CURVE SMOOTH",
"472 401 OFFCURVE",
"495 342 OFFCURVE",
"536 289 CURVE SMOOTH",
"555 264 OFFCURVE",
"571 238 OFFCURVE",
"582 211 CURVE SMOOTH",
"598 173 OFFCURVE",
"613 136 OFFCURVE",
"629 99 CURVE SMOOTH",
"640 74 OFFCURVE",
"664 75 OFFCURVE",
"691 81 CURVE SMOOTH",
"718 88 OFFCURVE",
"723 102 OFFCURVE",
"717 120 CURVE SMOOTH",
"711 137 OFFCURVE",
"704 153 OFFCURVE",
"699 170 CURVE SMOOTH",
"672 268 OFFCURVE",
"630 362 OFFCURVE",
"591 458 CURVE SMOOTH",
"584 476 OFFCURVE",
"573 492 OFFCURVE",
"538 490 CURVE"
);
},
{
closed = 1;
nodes = (
"312 62 OFFCURVE",
"304 93 OFFCURVE",
"314 123 CURVE SMOOTH",
"317 133 OFFCURVE",
"316 146 OFFCURVE",
"334 148 CURVE SMOOTH",
"351 151 OFFCURVE",
"361 140 OFFCURVE",
"371 131 CURVE SMOOTH",
"375 128 OFFCURVE",
"378 123 OFFCURVE",
"380 119 CURVE SMOOTH",
"406 78 OFFCURVE",
"432 37 OFFCURVE",
"456 -3 CURVE SMOOTH",
"465 -18 OFFCURVE",
"477 -21 OFFCURVE",
"495 -12 CURVE SMOOTH",
"529 6 OFFCURVE",
"562 24 OFFCURVE",
"596 43 CURVE SMOOTH",
"621 56 OFFCURVE",
"638 70 OFFCURVE",
"612 93 CURVE SMOOTH",
"602 103 OFFCURVE",
"601 118 OFFCURVE",
"596 130 CURVE SMOOTH",
"580 169 OFFCURVE",
"571 209 OFFCURVE",
"544 244 CURVE SMOOTH",
"489 316 OFFCURVE",
"453 394 OFFCURVE",
"411 470 CURVE SMOOTH",
"401 488 OFFCURVE",
"404 501 OFFCURVE",
"429 511 CURVE SMOOTH",
"451 521 OFFCURVE",
"472 534 OFFCURVE",
"493 546 CURVE SMOOTH",
"515 558 OFFCURVE",
"534 571 OFFCURVE",
"544 590 CURVE SMOOTH",
"552 609 OFFCURVE",
"538 630 OFFCURVE",
"508 642 CURVE SMOOTH",
"483 651 OFFCURVE",
"471 638 OFFCURVE",
"460 625 CURVE SMOOTH",
"451 616 OFFCURVE",
"441 607 OFFCURVE",
"428 600 CURVE SMOOTH",
"386 579 OFFCURVE",
"344 558 OFFCURVE",
"302 536 CURVE SMOOTH",
"296 533 OFFCURVE",
"289 529 OFFCURVE",
"281 531 CURVE SMOOTH",
"271 535 OFFCURVE",
"273 542 OFFCURVE",
"274 549 CURVE SMOOTH",
"280 589 OFFCURVE",
"256 626 OFFCURVE",
"252 665 CURVE SMOOTH",
"251 675 OFFCURVE",
"241 682 OFFCURVE",
"227 678 CURVE SMOOTH",
"209 673 OFFCURVE",
"179 685 OFFCURVE",
"174 662 CURVE SMOOTH",
"163 610 OFFCURVE",
"154 558 OFFCURVE",
"163 506 CURVE SMOOTH",
"171 463 OFFCURVE",
"175 420 OFFCURVE",
"165 378 CURVE SMOOTH",
"131 229 OFFCURVE",
"147 81 OFFCURVE",
"166 -67 CURVE SMOOTH",
"167 -79 OFFCURVE",
"174 -90 OFFCURVE",
"193 -89 CURVE SMOOTH",
"222 -88 OFFCURVE",
"250 -85 OFFCURVE",
"278 -82 CURVE SMOOTH",
"294 -79 OFFCURVE",
"300 -69 OFFCURVE",
"303 -58 CURVE SMOOTH",
"312 -28 OFFCURVE",
"308 2 OFFCURVE",
"310 32 CURVE SMOOTH"
);
},
{
closed = 1;
nodes = (
"475 497 OFFCURVE",
"508 499 OFFCURVE",
"541 502 CURVE SMOOTH",
"573 506 OFFCURVE",
"594 494 OFFCURVE",
"605 473 CURVE SMOOTH",
"613 458 OFFCURVE",
"619 442 OFFCURVE",
"625 426 CURVE SMOOTH",
"662 328 OFFCURVE",
"698 229 OFFCURVE",
"734 131 CURVE SMOOTH",
"748 90 OFFCURVE",
"741 80 OFFCURVE",
"688 67 CURVE SMOOTH",
"626 53 OFFCURVE",
"584 18 OFFCURVE",
"535 -8 CURVE SMOOTH",
"468 -45 OFFCURVE",
"464 -46 OFFCURVE",
"429 8 CURVE SMOOTH",
"406 44 OFFCURVE",
"379 80 OFFCURVE",
"359 118 CURVE SMOOTH",
"356 124 OFFCURVE",
"354 132 OFFCURVE",
"342 130 CURVE SMOOTH",
"332 129 OFFCURVE",
"331 121 OFFCURVE",
"331 114 CURVE SMOOTH",
"330 79 OFFCURVE",
"330 44 OFFCURVE",
"330 9 CURVE SMOOTH",
"329 -5 OFFCURVE",
"329 -20 OFFCURVE",
"327 -35 CURVE SMOOTH",
"319 -89 OFFCURVE",
"248 -119 OFFCURVE",
"178 -99 CURVE SMOOTH",
"161 -94 OFFCURVE",
"153 -84 OFFCURVE",
"151 -70 CURVE SMOOTH",
"138 36 OFFCURVE",
"119 143 OFFCURVE",
"130 252 CURVE SMOOTH",
"132 265 OFFCURVE",
"115 271 OFFCURVE",
"113 283 CURVE SMOOTH",
"110 305 OFFCURVE",
"102 328 OFFCURVE",
"103 351 CURVE SMOOTH",
"104 488 OFFCURVE",
"103 625 OFFCURVE",
"122 763 CURVE SMOOTH",
"124 782 OFFCURVE",
"137 791 OFFCURVE",
"162 796 CURVE SMOOTH",
"249 811 OFFCURVE",
"294 786 OFFCURVE",
"279 720 CURVE SMOOTH",
"269 676 OFFCURVE",
"282 637 OFFCURVE",
"290 596 CURVE SMOOTH",
"299 551 OFFCURVE",
"300 551 OFFCURVE",
"353 578 CURVE SMOOTH",
"358 581 OFFCURVE",
"362 584 OFFCURVE",
"367 585 CURVE",
"423 607 OFFCURVE",
"450 638 OFFCURVE",
"443 687 CURVE SMOOTH",
"439 713 OFFCURVE",
"453 739 OFFCURVE",
"464 763 CURVE SMOOTH",
"477 790 OFFCURVE",
"515 799 OFFCURVE",
"570 792 CURVE SMOOTH",
"604 788 OFFCURVE",
"608 768 OFFCURVE",
"609 748 CURVE SMOOTH",
"609 731 OFFCURVE",
"608 715 OFFCURVE",
"605 699 CURVE SMOOTH",
"602 682 OFFCURVE",
"610 675 OFFCURVE",
"633 674 CURVE SMOOTH",
"677 672 OFFCURVE",
"681 666 OFFCURVE",
"666 635 CURVE SMOOTH",
"653 608 OFFCURVE",
"639 581 OFFCURVE",
"624 555 CURVE SMOOTH",
"611 531 OFFCURVE",
"579 513 OFFCURVE",
"552 522 CURVE SMOOTH",
"501 539 OFFCURVE",
"473 517 OFFCURVE",
"435 493 CURVE"
);
}
);
vertWidth = 1000;
width = 880;
}
);
note = cid00044;
unicode = 004B;
},
{
glyphname = L;
lastChange = "2020-11-05 19:14:31 +0000";
layers = (
{
layerId = "FAEB3F87-0FE7-4D5C-BA65-CB0BBFD78DC9";
paths = (
{
closed = 1;
nodes = (
"209 733 OFFCURVE",
"225 723 OFFCURVE",
"232 737 CURVE SMOOTH",
"239 753 OFFCURVE",
"246 771 OFFCURVE",
"237 788 CURVE SMOOTH",
"229 802 OFFCURVE",
"213 797 OFFCURVE",
"200 796 CURVE SMOOTH",
"170 795 OFFCURVE",
"159 782 OFFCURVE",
"159 750 CURVE SMOOTH",
"160 721 OFFCURVE",
"184 736 OFFCURVE",
"197 729 CURVE"
);
},
{
closed = 1;
nodes = (
"429 -67 OFFCURVE",
"431 -68 OFFCURVE",
"473 -81 CURVE SMOOTH",
"494 -87 OFFCURVE",
"505 -81 OFFCURVE",
"510 -61 CURVE SMOOTH",
"520 -22 OFFCURVE",
"517 17 OFFCURVE",
"522 57 CURVE SMOOTH",
"524 74 OFFCURVE",
"526 93 OFFCURVE",
"498 94 CURVE SMOOTH",
"457 97 OFFCURVE",
"445 92 OFFCURVE",
"441 63 CURVE SMOOTH",
"436 33 OFFCURVE",
"434 1 OFFCURVE",
"432 -27 CURVE SMOOTH"
);
},
{
closed = 1;
nodes = (
"366 700 OFFCURVE",
"367 728 OFFCURVE",
"367 756 CURVE SMOOTH",
"367 773 OFFCURVE",
"357 779 OFFCURVE",
"340 779 CURVE SMOOTH",
"323 778 OFFCURVE",
"321 768 OFFCURVE",
"321 755 CURVE SMOOTH",
"323 726 OFFCURVE",
"325 698 OFFCURVE",
"327 669 CURVE SMOOTH",
"334 574 OFFCURVE",
"336 479 OFFCURVE",
"321 384 CURVE SMOOTH",
"312 324 OFFCURVE",
"302 264 OFFCURVE",
"292 205 CURVE SMOOTH",
"288 184 OFFCURVE",
"295 173 OFFCURVE",
"315 165 CURVE SMOOTH",
"349 152 OFFCURVE",
"383 149 OFFCURVE",
"419 150 CURVE SMOOTH",
"437 150 OFFCURVE",
"448 144 OFFCURVE",
"445 123 CURVE SMOOTH",
"444 117 OFFCURVE",
"443 107 OFFCURVE",
"450 107 CURVE SMOOTH",
"471 106 OFFCURVE",
"493 103 OFFCURVE",
"514 110 CURVE SMOOTH",
"518 111 OFFCURVE",
"519 116 OFFCURVE",
"519 120 CURVE SMOOTH",
"519 143 OFFCURVE",
"519 166 OFFCURVE",
"518 189 CURVE SMOOTH",
"518 204 OFFCURVE",
"512 206 OFFCURVE",
"497 203 CURVE SMOOTH",
"465 196 OFFCURVE",
"434 185 OFFCURVE",
"400 188 CURVE SMOOTH",
"374 191 OFFCURVE",
"367 197 OFFCURVE",
"366 223 CURVE SMOOTH",
"364 257 OFFCURVE",
"363 291 OFFCURVE",
"369 325 CURVE SMOOTH",
"377 374 OFFCURVE",
"359 422 OFFCURVE",
"360 470 CURVE SMOOTH",
"361 538 OFFCURVE",
"361 605 OFFCURVE",
"365 672 CURVE SMOOTH"
);
},
{
closed = 1;
nodes = (
"90 117 OFFCURVE",
"104 29 OFFCURVE",
"111 -59 CURVE SMOOTH",
"112 -80 OFFCURVE",
"128 -82 OFFCURVE",
"144 -78 CURVE SMOOTH",
"198 -64 OFFCURVE",
"252 -63 OFFCURVE",
"307 -70 CURVE SMOOTH",
"337 -73 OFFCURVE",
"366 -69 OFFCURVE",
"395 -63 CURVE SMOOTH",
"411 -60 OFFCURVE",
"418 -51 OFFCURVE",
"420 -36 CURVE SMOOTH",
"423 13 OFFCURVE",
"426 62 OFFCURVE",
"430 111 CURVE SMOOTH",
"432 131 OFFCURVE",
"425 141 OFFCURVE",
"404 140 CURVE SMOOTH",
"374 138 OFFCURVE",
"345 144 OFFCURVE",
"317 152 CURVE SMOOTH",
"283 162 OFFCURVE",
"279 168 OFFCURVE",
"280 203 CURVE SMOOTH",
"283 255 OFFCURVE",
"300 306 OFFCURVE",
"306 358 CURVE SMOOTH",
"313 417 OFFCURVE",
"321 476 OFFCURVE",
"321 536 CURVE SMOOTH",
"322 603 OFFCURVE",
"309 669 OFFCURVE",
"310 735 CURVE SMOOTH",
"310 748 OFFCURVE",
"314 764 OFFCURVE",
"294 764 CURVE SMOOTH",
"276 765 OFFCURVE",
"254 767 OFFCURVE",
"250 743 CURVE SMOOTH",
"246 716 OFFCURVE",
"230 713 OFFCURVE",
"209 716 CURVE SMOOTH",
"197 717 OFFCURVE",
"185 721 OFFCURVE",
"173 719 CURVE SMOOTH",
"159 718 OFFCURVE",
"143 716 OFFCURVE",
"139 696 CURVE SMOOTH",
"135 677 OFFCURVE",
"128 658 OFFCURVE",
"126 638 CURVE SMOOTH",
"111 494 OFFCURVE",
"80 352 OFFCURVE",
"89 206 CURVE"
);
},
{
closed = 1;
nodes = (
"478 220 OFFCURVE",
"490 219 OFFCURVE",
"502 219 CURVE SMOOTH",
"525 220 OFFCURVE",
"535 208 OFFCURVE",
"534 187 CURVE SMOOTH",
"531 116 OFFCURVE",
"542 46 OFFCURVE",
"532 -24 CURVE SMOOTH",
"530 -37 OFFCURVE",
"528 -51 OFFCURVE",
"524 -64 CURVE SMOOTH",
"513 -101 OFFCURVE",
"507 -105 OFFCURVE",
"469 -92 CURVE SMOOTH",
"432 -79 OFFCURVE",
"394 -76 OFFCURVE",
"355 -81 CURVE SMOOTH",
"337 -83 OFFCURVE",
"319 -81 OFFCURVE",
"300 -81 CURVE SMOOTH",
"251 -78 OFFCURVE",
"202 -78 OFFCURVE",
"153 -89 CURVE SMOOTH",
"111 -98 OFFCURVE",
"98 -87 OFFCURVE",
"95 -43 CURVE SMOOTH",
"88 72 OFFCURVE",
"74 188 OFFCURVE",
"73 305 CURVE SMOOTH",
"73 367 OFFCURVE",
"86 427 OFFCURVE",
"94 488 CURVE SMOOTH",
"102 555 OFFCURVE",
"104 623 OFFCURVE",
"121 688 CURVE SMOOTH",
"129 720 OFFCURVE",
"145 748 OFFCURVE",
"150 781 CURVE SMOOTH",
"152 796 OFFCURVE",
"167 802 OFFCURVE",
"180 805 CURVE SMOOTH",
"197 808 OFFCURVE",
"215 809 OFFCURVE",
"232 810 CURVE SMOOTH",
"237 810 OFFCURVE",
"244 809 OFFCURVE",
"245 806 CURVE SMOOTH",
"260 773 OFFCURVE",
"288 787 OFFCURVE",
"312 787 CURVE SMOOTH",
"327 787 OFFCURVE",
"342 790 OFFCURVE",
"357 790 CURVE SMOOTH",
"383 789 OFFCURVE",
"393 781 OFFCURVE",
"393 756 CURVE SMOOTH",
"391 676 OFFCURVE",
"395 597 OFFCURVE",
"389 517 CURVE SMOOTH",
"385 463 OFFCURVE",
"377 407 OFFCURVE",
"393 352 CURVE SMOOTH",
"402 320 OFFCURVE",
"401 286 OFFCURVE",
"401 252 CURVE SMOOTH",
"401 224 OFFCURVE",
"404 222 OFFCURVE",
"433 222 CURVE SMOOTH",
"444 222 OFFCURVE",
"455 222 OFFCURVE",
"466 223 CURVE",
"466 220 LINE"
);
}
);
vertWidth = 1000;
width = 740;
}
);
note = cid00045;
unicode = 004C;
},
{
glyphname = M;
lastChange = "2020-11-05 19:14:31 +0000";
layers = (
{
layerId = "FAEB3F87-0FE7-4D5C-BA65-CB0BBFD78DC9";
paths = (
{
closed = 1;
nodes = (
"175 732 OFFCURVE",
"188 734 OFFCURVE",
"197 738 CURVE SMOOTH",
"212 744 OFFCURVE",
"220 765 OFFCURVE",
"214 784 CURVE SMOOTH",
"208 801 OFFCURVE",
"195 793 OFFCURVE",
"184 792 CURVE SMOOTH",
"168 789 OFFCURVE",
"151 784 OFFCURVE",
"135 780 CURVE SMOOTH",
"122 778 OFFCURVE",
"121 769 OFFCURVE",
"120 758 CURVE SMOOTH",
"120 748 OFFCURVE",
"122 740 OFFCURVE",
"133 738 CURVE SMOOTH",
"143 736 OFFCURVE",
"152 734 OFFCURVE",
"157 733 CURVE SMOOTH"
);
},
{
closed = 1;
nodes = (
"102 236 OFFCURVE",
"113 671 OFFCURVE",
"106 689 CURVE",
"92 617 OFFCURVE",
"93 545 OFFCURVE",
"95 474 CURVE SMOOTH",
"97 402 OFFCURVE",
"104 329 OFFCURVE",
"93 257 CURVE SMOOTH",
"89 232 OFFCURVE",
"89 207 OFFCURVE",
"94 178 CURVE"
);
},
{
closed = 1;
nodes = (
"801 54 OFFCURVE",
"804 67 OFFCURVE",
"804 81 CURVE SMOOTH",
"806 124 OFFCURVE",
"803 168 OFFCURVE",
"799 211 CURVE SMOOTH",
"793 274 OFFCURVE",
"775 335 OFFCURVE",
"775 399 CURVE SMOOTH",
"775 409 OFFCURVE",
"772 419 OFFCURVE",
"771 430 CURVE",
"765 412 OFFCURVE",
"788 65 OFFCURVE",
"794 37 CURVE"
);
},
{
closed = 1;
nodes = (
"604 685 OFFCURVE",
"604 685 OFFCURVE",
"604 685 CURVE",
"608 685 OFFCURVE",
"611 684 OFFCURVE",
"614 685 CURVE",
"624 686 OFFCURVE",
"639 677 OFFCURVE",
"643 692 CURVE SMOOTH",
"648 711 OFFCURVE",
"649 732 OFFCURVE",
"644 753 CURVE SMOOTH",
"643 757 OFFCURVE",
"637 756 OFFCURVE",
"633 756 CURVE SMOOTH",
"612 755 OFFCURVE",
"591 754 OFFCURVE",
"570 754 CURVE",
"564 753 OFFCURVE",
"559 751 OFFCURVE",
"556 744 CURVE SMOOTH",
"542 710 OFFCURVE",
"557 686 OFFCURVE",
"592 685 CURVE SMOOTH",
"596 685 OFFCURVE",
"600 685 OFFCURVE",
"604 684 CURVE"
);
},
{
closed = 1;
nodes = (
"542 742 OFFCURVE",
"547 754 OFFCURVE",
"539 758 CURVE SMOOTH",
"530 762 OFFCURVE",
"523 752 OFFCURVE",
"518 745 CURVE SMOOTH",
"505 730 OFFCURVE",
"494 714 OFFCURVE",
"482 698 CURVE SMOOTH",
"461 668 OFFCURVE",
"440 666 OFFCURVE",
"411 686 CURVE SMOOTH",
"362 720 OFFCURVE",
"314 754 OFFCURVE",
"260 780 CURVE SMOOTH",
"230 795 OFFCURVE",
"229 795 OFFCURVE",
"225 758 CURVE SMOOTH",
"224 752 OFFCURVE",
"223 746 OFFCURVE",
"221 740 CURVE SMOOTH",
"217 730 OFFCURVE",
"220 723 OFFCURVE",
"226 716 CURVE SMOOTH",
"247 695 OFFCURVE",
"260 669 OFFCURVE",
"278 645 CURVE SMOOTH",
"318 592 OFFCURVE",
"348 532 OFFCURVE",
"389 480 CURVE SMOOTH",
"405 460 OFFCURVE",
"406 460 OFFCURVE",
"419 481 CURVE SMOOTH",
"455 535 OFFCURVE",
"484 594 OFFCURVE",
"517 649 CURVE SMOOTH",
"533 676 OFFCURVE",
"551 700 OFFCURVE",
"541 729 CURVE"
);
},
{
closed = 1;
nodes = (
"643 71 OFFCURVE",
"646 43 OFFCURVE",
"646 14 CURVE SMOOTH",
"646 1 OFFCURVE",
"652 -6 OFFCURVE",
"662 -12 CURVE SMOOTH",
"695 -34 OFFCURVE",
"732 -27 OFFCURVE",
"768 -28 CURVE SMOOTH",
"775 -28 OFFCURVE",
"781 -21 OFFCURVE",
"779 -15 CURVE",
"771 0 OFFCURVE",
"782 13 OFFCURVE",
"780 26 CURVE SMOOTH",
"773 90 OFFCURVE",
"780 155 OFFCURVE",
"771 219 CURVE SMOOTH",
"756 318 OFFCURVE",
"749 417 OFFCURVE",
"757 517 CURVE SMOOTH",
"758 532 OFFCURVE",
"758 547 OFFCURVE",
"756 562 CURVE SMOOTH",
"749 625 OFFCURVE",
"733 687 OFFCURVE",
"742 751 CURVE SMOOTH",
"744 765 OFFCURVE",
"737 769 OFFCURVE",
"724 768 CURVE SMOOTH",
"710 766 OFFCURVE",
"696 763 OFFCURVE",
"682 763 CURVE SMOOTH",
"667 762 OFFCURVE",
"661 756 OFFCURVE",
"660 739 CURVE SMOOTH",
"658 673 OFFCURVE",
"655 607 OFFCURVE",
"653 540 CURVE SMOOTH",
"652 522 OFFCURVE",
"650 503 OFFCURVE",
"651 485 CURVE SMOOTH",
"659 398 OFFCURVE",
"660 311 OFFCURVE",
"655 224 CURVE SMOOTH",
"653 182 OFFCURVE",
"652 141 OFFCURVE",
"650 100 CURVE"
);
},
{
closed = 1;
nodes = (
"577 -12 OFFCURVE",
"577 -13 OFFCURVE",
"577 -13 CURVE",
"590 -13 OFFCURVE",
"604 -14 OFFCURVE",
"618 -15 CURVE SMOOTH",
"632 -15 OFFCURVE",
"636 -10 OFFCURVE",
"635 5 CURVE SMOOTH",
"633 47 OFFCURVE",
"632 89 OFFCURVE",
"636 131 CURVE SMOOTH",
"644 213 OFFCURVE",
"649 294 OFFCURVE",
"645 377 CURVE SMOOTH",
"643 422 OFFCURVE",
"637 468 OFFCURVE",
"640 513 CURVE SMOOTH",
"642 560 OFFCURVE",
"640 606 OFFCURVE",
"644 652 CURVE SMOOTH",
"645 667 OFFCURVE",
"638 673 OFFCURVE",
"625 674 CURVE SMOOTH",
"605 675 OFFCURVE",
"585 676 OFFCURVE",
"566 677 CURVE SMOOTH",
"553 678 OFFCURVE",
"545 674 OFFCURVE",
"538 664 CURVE SMOOTH",
"524 646 OFFCURVE",
"515 626 OFFCURVE",
"506 606 CURVE SMOOTH",
"483 555 OFFCURVE",
"447 512 OFFCURVE",
"426 459 CURVE SMOOTH",
"420 445 OFFCURVE",
"402 445 OFFCURVE",
"392 458 CURVE SMOOTH",
"379 476 OFFCURVE",
"365 494 OFFCURVE",
"354 514 CURVE SMOOTH",
"315 579 OFFCURVE",
"270 639 OFFCURVE",
"227 702 CURVE SMOOTH",
"220 713 OFFCURVE",
"212 727 OFFCURVE",
"197 725 CURVE SMOOTH",
"180 723 OFFCURVE",
"163 723 OFFCURVE",
"146 724 CURVE SMOOTH",
"134 725 OFFCURVE",
"127 719 OFFCURVE",
"126 706 CURVE SMOOTH",
"125 689 OFFCURVE",
"126 671 OFFCURVE",
"123 654 CURVE SMOOTH",
"112 581 OFFCURVE",
"121 508 OFFCURVE",
"118 434 CURVE SMOOTH",
"115 377 OFFCURVE",
"119 319 OFFCURVE",
"114 261 CURVE SMOOTH",
"111 211 OFFCURVE",
"102 161 OFFCURVE",
"112 110 CURVE SMOOTH",
"121 59 OFFCURVE",
"127 8 OFFCURVE",
"118 -42 CURVE SMOOTH",
"117 -52 OFFCURVE",
"119 -58 OFFCURVE",
"129 -58 CURVE SMOOTH",
"154 -60 OFFCURVE",
"178 -62 OFFCURVE",
"202 -56 CURVE SMOOTH",
"216 -53 OFFCURVE",
"224 -46 OFFCURVE",
"227 -31 CURVE SMOOTH",
"233 -9 OFFCURVE",
"240 11 OFFCURVE",
"245 34 CURVE SMOOTH",
"256 83 OFFCURVE",
"269 132 OFFCURVE",
"261 183 CURVE SMOOTH",
"258 201 OFFCURVE",
"261 219 OFFCURVE",
"264 237 CURVE SMOOTH",
"265 244 OFFCURVE",
"268 248 OFFCURVE",
"275 250 CURVE SMOOTH",
"314 258 OFFCURVE",
"351 236 OFFCURVE",
"363 196 CURVE SMOOTH",
"364 191 OFFCURVE",
"365 185 OFFCURVE",
"367 180 CURVE SMOOTH",
"370 173 OFFCURVE",
"369 162 OFFCURVE",
"379 162 CURVE SMOOTH",
"387 162 OFFCURVE",
"392 168 OFFCURVE",
"396 175 CURVE SMOOTH",
"401 182 OFFCURVE",
"404 190 OFFCURVE",
"407 198 CURVE SMOOTH",
"414 215 OFFCURVE",
"422 232 OFFCURVE",
"433 247 CURVE SMOOTH",
"440 255 OFFCURVE",
"448 266 OFFCURVE",
"460 264 CURVE SMOOTH",
"471 261 OFFCURVE",
"470 248 OFFCURVE",
"473 239 CURVE SMOOTH",
"475 232 OFFCURVE",
"475 224 OFFCURVE",
"475 216 CURVE SMOOTH",
"475 159 OFFCURVE",
"474 103 OFFCURVE",
"480 47 CURVE SMOOTH",
"484 10 OFFCURVE",
"499 -6 OFFCURVE",
"534 -10 CURVE SMOOTH",
"548 -12 OFFCURVE",
"563 -12 OFFCURVE",
"577 -12 CURVE"
);
},
{
closed = 1;
nodes = (
"748 672 OFFCURVE",
"761 624 OFFCURVE",
"765 575 CURVE SMOOTH",
"773 495 OFFCURVE",
"783 415 OFFCURVE",
"792 335 CURVE SMOOTH",
"800 264 OFFCURVE",
"813 193 OFFCURVE",
"816 121 CURVE SMOOTH",
"818 81 OFFCURVE",
"819 41 OFFCURVE",
"796 5 CURVE SMOOTH",
"794 2 OFFCURVE",
"794 -1 OFFCURVE",
"793 -4 CURVE SMOOTH",
"787 -39 OFFCURVE",
"783 -43 OFFCURVE",
"749 -42 CURVE SMOOTH",
"721 -42 OFFCURVE",
"693 -38 OFFCURVE",
"665 -31 CURVE SMOOTH",
"642 -25 OFFCURVE",
"616 -28 OFFCURVE",
"592 -27 CURVE SMOOTH",
"570 -26 OFFCURVE",
"548 -26 OFFCURVE",
"527 -21 CURVE SMOOTH",
"490 -13 OFFCURVE",
"470 11 OFFCURVE",
"467 51 CURVE SMOOTH",
"463 107 OFFCURVE",
"461 163 OFFCURVE",
"462 220 CURVE SMOOTH",
"462 225 OFFCURVE",
"462 230 OFFCURVE",
"460 234 CURVE",
"459 239 OFFCURVE",
"457 244 OFFCURVE",
"452 245 CURVE SMOOTH",
"446 246 OFFCURVE",
"444 241 OFFCURVE",
"441 237 CURVE SMOOTH",
"429 217 OFFCURVE",
"420 195 OFFCURVE",
"411 174 CURVE SMOOTH",
"409 170 OFFCURVE",
"408 165 OFFCURVE",
"406 162 CURVE SMOOTH",
"396 148 OFFCURVE",
"386 132 OFFCURVE",
"368 133 CURVE SMOOTH",
"352 134 OFFCURVE",
"347 151 OFFCURVE",
"341 164 CURVE SMOOTH",
"336 175 OFFCURVE",
"333 186 OFFCURVE",
"329 196 CURVE SMOOTH",
"326 203 OFFCURVE",
"324 213 OFFCURVE",
"315 212 CURVE SMOOTH",
"306 212 OFFCURVE",
"303 203 OFFCURVE",
"301 196 CURVE SMOOTH",
"288 155 OFFCURVE",
"272 114 OFFCURVE",
"264 71 CURVE SMOOTH",
"257 33 OFFCURVE",
"247 -4 OFFCURVE",
"237 -42 CURVE SMOOTH",
"232 -63 OFFCURVE",
"214 -68 OFFCURVE",
"197 -70 CURVE SMOOTH",
"171 -73 OFFCURVE",
"144 -73 OFFCURVE",
"117 -72 CURVE SMOOTH",
"106 -71 OFFCURVE",
"100 -66 OFFCURVE",
"101 -53 CURVE SMOOTH",
"102 -47 OFFCURVE",
"101 -41 OFFCURVE",
"100 -36 CURVE",
"77 32 OFFCURVE",
"86 104 OFFCURVE",
"79 175 CURVE SMOOTH",
"76 211 OFFCURVE",
"79 247 OFFCURVE",
"83 284 CURVE SMOOTH",
"93 361 OFFCURVE",
"82 439 OFFCURVE",
"83 517 CURVE SMOOTH",
"84 579 OFFCURVE",
"83 641 OFFCURVE",
"95 702 CURVE SMOOTH",
"100 726 OFFCURVE",
"97 751 OFFCURVE",
"106 774 CURVE SMOOTH",
"110 784 OFFCURVE",
"115 790 OFFCURVE",
"126 792 CURVE SMOOTH",
"153 796 OFFCURVE",
"180 802 OFFCURVE",
"206 808 CURVE SMOOTH",
"221 812 OFFCURVE",
"233 809 OFFCURVE",
"245 802 CURVE SMOOTH",
"306 767 OFFCURVE",
"366 730 OFFCURVE",
"424 690 CURVE SMOOTH",
"440 678 OFFCURVE",
"455 682 OFFCURVE",
"466 698 CURVE SMOOTH",
"487 727 OFFCURVE",
"510 755 OFFCURVE",
"536 779 CURVE SMOOTH",
"545 787 OFFCURVE",
"553 798 OFFCURVE",
"557 775 CURVE SMOOTH",
"559 762 OFFCURVE",
"569 765 OFFCURVE",
"578 765 CURVE SMOOTH",
"628 766 OFFCURVE",
"677 775 OFFCURVE",
"726 779 CURVE SMOOTH",
"755 782 OFFCURVE",
"757 780 OFFCURVE",
"755 750 CURVE SMOOTH",
"755 741 OFFCURVE",
"754 731 OFFCURVE",
"753 722 CURVE SMOOTH"
);
}
);
vertWidth = 1000;
width = 1000;
}
);
note = cid00046;
unicode = 004D;
},
{
glyphname = N;
lastChange = "2020-11-05 19:14:31 +0000";
layers = (
{
layerId = "FAEB3F87-0FE7-4D5C-BA65-CB0BBFD78DC9";
paths = (
{
closed = 1;
nodes = (
"175 784 OFFCURVE",
"168 782 OFFCURVE",
"161 782 CURVE SMOOTH",
"140 782 OFFCURVE",
"131 769 OFFCURVE",
"130 745 CURVE SMOOTH",
"129 732 OFFCURVE",
"132 729 OFFCURVE",
"142 731 CURVE SMOOTH",
"157 734 OFFCURVE",
"171 737 OFFCURVE",
"186 739 CURVE SMOOTH",
"193 740 OFFCURVE",
"203 739 OFFCURVE",
"199 753 CURVE SMOOTH",
"195 764 OFFCURVE",
"204 786 OFFCURVE",
"184 785 CURVE SMOOTH"
);
},
{
closed = 1;
nodes = (
"355 495 OFFCURVE",
"356 497 OFFCURVE",
"357 498 CURVE",
"331 565 OFFCURVE",
"287 617 OFFCURVE",
"251 676 CURVE",
"253 650 OFFCURVE",
"259 627 OFFCURVE",
"272 607 CURVE SMOOTH",
"286 587 OFFCURVE",
"300 567 OFFCURVE",
"314 548 CURVE SMOOTH",
"327 530 OFFCURVE",
"340 512 OFFCURVE",
"353 494 CURVE"
);
},
{
closed = 1;
nodes = (
"605 699 OFFCURVE",
"607 701 OFFCURVE",
"603 725 CURVE SMOOTH",
"602 734 OFFCURVE",
"600 744 OFFCURVE",
"599 753 CURVE SMOOTH",
"596 775 OFFCURVE",
"586 788 OFFCURVE",
"569 794 CURVE SMOOTH",
"553 800 OFFCURVE",
"536 797 OFFCURVE",
"523 784 CURVE SMOOTH",
"511 771 OFFCURVE",
"513 750 OFFCURVE",
"512 732 CURVE SMOOTH",
"512 724 OFFCURVE",
"517 720 OFFCURVE",
"522 718 CURVE SMOOTH",
"543 711 OFFCURVE",
"564 705 OFFCURVE",
"579 700 CURVE"
);
},
{
closed = 1;
nodes = (
"586 141 OFFCURVE",
"589 58 OFFCURVE",
"592 -23 CURVE",
"593 -29 OFFCURVE",
"594 -36 OFFCURVE",
"599 -37 CURVE SMOOTH",
"611 -39 OFFCURVE",
"621 -47 OFFCURVE",
"633 -45 CURVE SMOOTH",
"666 -39 OFFCURVE",
"699 -35 OFFCURVE",
"730 -24 CURVE SMOOTH",
"761 -13 OFFCURVE",
"771 6 OFFCURVE",
"766 43 CURVE SMOOTH",
"761 85 OFFCURVE",
"755 128 OFFCURVE",
"750 170 CURVE SMOOTH",
"744 225 OFFCURVE",
"728 275 OFFCURVE",
"710 324 CURVE SMOOTH",
"693 371 OFFCURVE",
"680 420 OFFCURVE",
"674 471 CURVE SMOOTH",
"665 569 OFFCURVE",
"642 663 OFFCURVE",
"630 760 CURVE SMOOTH",
"629 771 OFFCURVE",
"623 779 OFFCURVE",
"614 775 CURVE SMOOTH",
"604 772 OFFCURVE",
"610 762 OFFCURVE",
"611 755 CURVE SMOOTH",
"616 729 OFFCURVE",
"628 703 OFFCURVE",
"610 677 CURVE SMOOTH",
"608 674 OFFCURVE",
"609 670 OFFCURVE",
"609 666 CURVE SMOOTH",
"607 572 OFFCURVE",
"596 479 OFFCURVE",
"595 385 CURVE SMOOTH",
"595 331 OFFCURVE",
"592 277 OFFCURVE",
"583 221 CURVE"
);
},
{
closed = 1;
nodes = (
"591 530 OFFCURVE",
"594 592 OFFCURVE",
"596 654 CURVE SMOOTH",
"597 680 OFFCURVE",
"592 686 OFFCURVE",
"571 690 CURVE SMOOTH",
"561 692 OFFCURVE",
"551 695 OFFCURVE",
"542 698 CURVE SMOOTH",
"516 706 OFFCURVE",
"510 701 OFFCURVE",
"513 669 CURVE SMOOTH",
"521 598 OFFCURVE",
"514 529 OFFCURVE",
"492 462 CURVE SMOOTH",
"479 421 OFFCURVE",
"465 380 OFFCURVE",
"466 335 CURVE SMOOTH",
"466 320 OFFCURVE",
"463 304 OFFCURVE",
"460 289 CURVE SMOOTH",
"459 281 OFFCURVE",
"458 271 OFFCURVE",
"450 270 CURVE SMOOTH",
"442 269 OFFCURVE",
"440 279 OFFCURVE",
"438 285 CURVE SMOOTH",
"425 319 OFFCURVE",
"413 352 OFFCURVE",
"400 386 CURVE SMOOTH",
"388 419 OFFCURVE",
"372 449 OFFCURVE",
"352 477 CURVE SMOOTH",
"302 546 OFFCURVE",
"241 607 OFFCURVE",
"224 703 CURVE SMOOTH",
"224 705 OFFCURVE",
"223 707 OFFCURVE",
"222 709 CURVE SMOOTH",
"217 724 OFFCURVE",
"207 729 OFFCURVE",
"194 727 CURVE SMOOTH",
"175 724 OFFCURVE",
"156 721 OFFCURVE",
"136 718 CURVE SMOOTH",
"126 717 OFFCURVE",
"123 710 OFFCURVE",
"124 699 CURVE SMOOTH",
"129 638 OFFCURVE",
"118 579 OFFCURVE",
"113 519 CURVE SMOOTH",
"107 439 OFFCURVE",
"105 360 OFFCURVE",
"106 281 CURVE SMOOTH",
"108 209 OFFCURVE",
"110 137 OFFCURVE",
"114 65 CURVE SMOOTH",
"115 29 OFFCURVE",
"107 -4 OFFCURVE",
"108 -39 CURVE SMOOTH",
"108 -49 OFFCURVE",
"108 -58 OFFCURVE",
"117 -63 CURVE SMOOTH",
"153 -83 OFFCURVE",
"189 -58 OFFCURVE",
"195 -10 CURVE SMOOTH",
"199 23 OFFCURVE",
"199 57 OFFCURVE",
"200 91 CURVE SMOOTH",
"201 162 OFFCURVE",
"214 232 OFFCURVE",
"209 303 CURVE SMOOTH",
"207 330 OFFCURVE",
"201 357 OFFCURVE",
"205 385 CURVE SMOOTH",
"207 397 OFFCURVE",
"204 415 OFFCURVE",
"217 419 CURVE SMOOTH",
"231 423 OFFCURVE",
"242 412 OFFCURVE",
"250 399 CURVE SMOOTH",
"252 395 OFFCURVE",
"254 391 OFFCURVE",
"256 387 CURVE SMOOTH",
"298 304 OFFCURVE",
"315 208 OFFCURVE",
"342 117 CURVE SMOOTH",
"356 70 OFFCURVE",
"360 20 OFFCURVE",
"368 -28 CURVE SMOOTH",
"371 -43 OFFCURVE",
"376 -50 OFFCURVE",
"391 -49 CURVE SMOOTH",
"417 -47 OFFCURVE",
"443 -49 OFFCURVE",
"469 -53 CURVE SMOOTH",
"500 -58 OFFCURVE",
"531 -57 OFFCURVE",
"563 -51 CURVE SMOOTH",
"575 -48 OFFCURVE",
"581 -42 OFFCURVE",
"580 -27 CURVE SMOOTH",
"579 2 OFFCURVE",
"579 33 OFFCURVE",
"578 63 CURVE SMOOTH",
"576 123 OFFCURVE",
"569 183 OFFCURVE",
"575 243 CURVE SMOOTH",
"578 276 OFFCURVE",
"581 309 OFFCURVE",
"582 341 CURVE SMOOTH",
"584 384 OFFCURVE",
"586 426 OFFCURVE",
"588 468 CURVE SMOOTH"
);
},
{
closed = 1;
nodes = (
"453 327 OFFCURVE",
"454 344 OFFCURVE",
"454 363 CURVE SMOOTH",
"455 396 OFFCURVE",
"467 426 OFFCURVE",
"476 457 CURVE SMOOTH",
"499 531 OFFCURVE",
"507 606 OFFCURVE",
"497 684 CURVE SMOOTH",
"492 715 OFFCURVE",
"501 747 OFFCURVE",
"502 779 CURVE SMOOTH",
"502 785 OFFCURVE",
"506 790 OFFCURVE",
"511 793 CURVE SMOOTH",
"535 809 OFFCURVE",
"561 815 OFFCURVE",
"587 798 CURVE SMOOTH",
"595 792 OFFCURVE",
"604 786 OFFCURVE",
"614 788 CURVE SMOOTH",
"633 790 OFFCURVE",
"641 779 OFFCURVE",
"644 758 CURVE SMOOTH",
"654 696 OFFCURVE",
"664 633 OFFCURVE",
"674 570 CURVE SMOOTH",
"685 507 OFFCURVE",
"687 441 OFFCURVE",
"704 378 CURVE SMOOTH",
"711 353 OFFCURVE",
"721 329 OFFCURVE",
"731 305 CURVE SMOOTH",
"758 240 OFFCURVE",
"764 168 OFFCURVE",
"773 97 CURVE SMOOTH",
"777 66 OFFCURVE",
"780 35 OFFCURVE",
"784 4 CURVE SMOOTH",
"786 -8 OFFCURVE",
"783 -15 OFFCURVE",
"772 -21 CURVE SMOOTH",
"730 -42 OFFCURVE",
"686 -54 OFFCURVE",
"641 -57 CURVE SMOOTH",
"568 -61 OFFCURVE",
"494 -75 OFFCURVE",
"421 -59 CURVE SMOOTH",
"408 -57 OFFCURVE",
"394 -57 OFFCURVE",
"380 -58 CURVE SMOOTH",
"369 -59 OFFCURVE",
"363 -53 OFFCURVE",
"361 -40 CURVE SMOOTH",
"358 -25 OFFCURVE",
"354 -9 OFFCURVE",
"353 7 CURVE SMOOTH",
"348 73 OFFCURVE",
"328 135 OFFCURVE",
"311 197 CURVE SMOOTH",
"294 263 OFFCURVE",
"275 328 OFFCURVE",
"243 386 CURVE SMOOTH",
"239 395 OFFCURVE",
"237 408 OFFCURVE",
"225 404 CURVE SMOOTH",
"215 400 OFFCURVE",
"216 387 OFFCURVE",
"217 377 CURVE SMOOTH",
"217 345 OFFCURVE",
"219 313 OFFCURVE",
"220 282 CURVE SMOOTH",
"222 239 OFFCURVE",
"219 197 OFFCURVE",
"215 155 CURVE SMOOTH",
"210 99 OFFCURVE",
"222 44 OFFCURVE",
"227 -10 CURVE SMOOTH",
"228 -18 OFFCURVE",
"229 -26 OFFCURVE",
"229 -34 CURVE SMOOTH",
"230 -51 OFFCURVE",
"224 -63 OFFCURVE",
"210 -67 CURVE SMOOTH",
"187 -72 OFFCURVE",
"164 -75 OFFCURVE",
"141 -77 CURVE SMOOTH",
"99 -81 OFFCURVE",
"85 -48 OFFCURVE",
"84 -8 CURVE SMOOTH",
"84 31 OFFCURVE",
"83 70 OFFCURVE",
"81 109 CURVE SMOOTH",
"76 198 OFFCURVE",
"80 286 OFFCURVE",
"76 374 CURVE SMOOTH",
"74 421 OFFCURVE",
"81 468 OFFCURVE",
"85 514 CURVE SMOOTH",
"91 575 OFFCURVE",
"98 636 OFFCURVE",
"104 696 CURVE SMOOTH",
"106 724 OFFCURVE",
"120 748 OFFCURVE",
"120 776 CURVE SMOOTH",
"120 784 OFFCURVE",
"127 786 OFFCURVE",
"132 788 CURVE SMOOTH",
"152 794 OFFCURVE",
"173 795 OFFCURVE",
"193 798 CURVE SMOOTH",
"206 799 OFFCURVE",
"212 790 OFFCURVE",
"211 776 CURVE SMOOTH",
"210 753 OFFCURVE",
"219 737 OFFCURVE",
"234 725 CURVE SMOOTH",
"246 716 OFFCURVE",
"254 703 OFFCURVE",
"261 689 CURVE SMOOTH",
"281 650 OFFCURVE",
"303 614 OFFCURVE",
"326 579 CURVE SMOOTH",
"345 550 OFFCURVE",
"362 519 OFFCURVE",
"374 485 CURVE SMOOTH",
"393 433 OFFCURVE",
"413 383 OFFCURVE",
"432 331 CURVE SMOOTH",
"435 324 OFFCURVE",
"440 317 OFFCURVE",
"445 308 CURVE"
);
}
);
vertWidth = 1000;
width = 940;
}
);
note = cid00047;
unicode = 004E;
},
{
glyphname = O;
lastChange = "2020-11-05 19:14:31 +0000";
layers = (
{
layerId = "FAEB3F87-0FE7-4D5C-BA65-CB0BBFD78DC9";
paths = (
{
closed = 1;
nodes = (
"214 -3 OFFCURVE",
"203 19 OFFCURVE",
"188 40 CURVE",
"195 15 OFFCURVE",
"199 -11 OFFCURVE",
"220 -29 CURVE"
);
},
{
closed = 1;
nodes = (
"168 96 OFFCURVE",
"156 126 OFFCURVE",
"135 160 CURVE",
"135 120 OFFCURVE",
"140 87 OFFCURVE",
"166 55 CURVE"
);
},
{
closed = 1;
nodes = (
"481 61 OFFCURVE",
"497 116 OFFCURVE",
"502 175 CURVE",
"488 119 OFFCURVE",
"465 68 OFFCURVE",
"443 15 CURVE"
);
},
{
closed = 1;
nodes = (
"472 451 OFFCURVE",
"472 471 OFFCURVE",
"468 490 CURVE SMOOTH",
"457 539 OFFCURVE",
"450 588 OFFCURVE",
"425 633 CURVE SMOOTH",
"380 714 OFFCURVE",
"282 686 OFFCURVE",
"237 638 CURVE",
"270 649 OFFCURVE",
"299 667 OFFCURVE",
"332 669 CURVE SMOOTH",
"376 673 OFFCURVE",
"418 645 OFFCURVE",
"427 605 CURVE SMOOTH",
"434 570 OFFCURVE",
"441 535 OFFCURVE",
"449 501 CURVE SMOOTH",
"455 477 OFFCURVE",
"457 452 OFFCURVE",
"473 431 CURVE"
);
},
{
closed = 1;
nodes = (
"269 673 OFFCURVE",
"280 680 OFFCURVE",
"291 684 CURVE SMOOTH",
"347 705 OFFCURVE",
"391 698 OFFCURVE",
"422 661 CURVE SMOOTH",
"443 634 OFFCURVE",
"457 604 OFFCURVE",
"466 570 CURVE SMOOTH",
"480 515 OFFCURVE",
"479 457 OFFCURVE",
"498 402 CURVE SMOOTH",
"502 388 OFFCURVE",
"506 372 OFFCURVE",
"504 356 CURVE SMOOTH",
"498 306 OFFCURVE",
"498 256 OFFCURVE",
"513 208 CURVE SMOOTH",
"525 169 OFFCURVE",
"514 132 OFFCURVE",
"502 96 CURVE SMOOTH",
"498 84 OFFCURVE",
"490 73 OFFCURVE",
"494 57 CURVE",
"520 65 OFFCURVE",
"542 76 OFFCURVE",
"560 95 CURVE SMOOTH",
"615 154 OFFCURVE",
"642 229 OFFCURVE",
"656 305 CURVE SMOOTH",
"677 420 OFFCURVE",
"672 538 OFFCURVE",
"656 654 CURVE SMOOTH",
"650 704 OFFCURVE",
"636 757 OFFCURVE",
"576 770 CURVE SMOOTH",
"513 784 OFFCURVE",
"448 792 OFFCURVE",
"383 777 CURVE SMOOTH",
"325 763 OFFCURVE",
"288 722 OFFCURVE",
"249 673 CURVE"
);
},
{
closed = 1;
nodes = (
"491 307 OFFCURVE",
"489 327 OFFCURVE",
"484 348 CURVE SMOOTH",
"473 398 OFFCURVE",
"449 444 OFFCURVE",
"439 494 CURVE SMOOTH",
"431 532 OFFCURVE",
"422 568 OFFCURVE",
"412 605 CURVE SMOOTH",
"404 634 OFFCURVE",
"376 659 OFFCURVE",
"348 659 CURVE SMOOTH",
"294 658 OFFCURVE",
"245 638 OFFCURVE",
"207 598 CURVE SMOOTH",
"176 567 OFFCURVE",
"159 526 OFFCURVE",
"137 489 CURVE SMOOTH",
"94 416 OFFCURVE",
"91 341 OFFCURVE",
"116 262 CURVE SMOOTH",
"149 158 OFFCURVE",
"199 61 OFFCURVE",
"241 -39 CURVE SMOOTH",
"244 -45 OFFCURVE",
"247 -50 OFFCURVE",
"253 -51 CURVE SMOOTH",
"314 -65 OFFCURVE",
"379 -56 OFFCURVE",
"416 3 CURVE SMOOTH",
"470 89 OFFCURVE",
"503 182 OFFCURVE",
"492 286 CURVE SMOOTH"
);
},
{
closed = 1;
nodes = (
"78 402 OFFCURVE",
"110 462 OFFCURVE",
"143 522 CURVE SMOOTH",
"174 578 OFFCURVE",
"211 628 OFFCURVE",
"246 681 CURVE SMOOTH",
"301 763 OFFCURVE",
"381 806 OFFCURVE",
"484 794 CURVE SMOOTH",
"508 792 OFFCURVE",
"532 789 OFFCURVE",
"556 786 CURVE SMOOTH",
"611 780 OFFCURVE",
"644 749 OFFCURVE",
"660 696 CURVE SMOOTH",
"675 645 OFFCURVE",
"677 594 OFFCURVE",
"679 542 CURVE SMOOTH",
"682 459 OFFCURVE",
"687 375 OFFCURVE",
"668 294 CURVE SMOOTH",
"650 220 OFFCURVE",
"627 147 OFFCURVE",
"572 89 CURVE SMOOTH",
"564 81 OFFCURVE",
"556 72 OFFCURVE",
"546 68 CURVE SMOOTH",
"496 49 OFFCURVE",
"462 9 OFFCURVE",
"429 -30 CURVE SMOOTH",
"387 -80 OFFCURVE",
"333 -90 OFFCURVE",
"272 -82 CURVE SMOOTH",
"233 -77 OFFCURVE",
"213 -48 OFFCURVE",
"193 -20 CURVE SMOOTH",
"148 43 OFFCURVE",
"118 113 OFFCURVE",
"117 194 CURVE SMOOTH",
"116 240 OFFCURVE",
"91 282 OFFCURVE",
"93 328 CURVE"
);
},
{
closed = 1;
nodes = (
"380 259 OFFCURVE",
"379 276 OFFCURVE",
"374 294 CURVE SMOOTH",
"358 343 OFFCURVE",
"342 391 OFFCURVE",
"334 442 CURVE SMOOTH",
"328 484 OFFCURVE",
"298 492 OFFCURVE",
"265 464 CURVE SMOOTH",
"220 424 OFFCURVE",
"214 367 OFFCURVE",
"203 313 CURVE SMOOTH",
"197 283 OFFCURVE",
"193 251 OFFCURVE",
"197 221 CURVE SMOOTH",
"202 184 OFFCURVE",
"216 149 OFFCURVE",
"233 116 CURVE SMOOTH",
"240 100 OFFCURVE",
"251 88 OFFCURVE",
"269 84 CURVE SMOOTH",
"310 74 OFFCURVE",
"358 102 OFFCURVE",
"372 143 CURVE SMOOTH",
"382 175 OFFCURVE",
"388 207 OFFCURVE",
"382 241 CURVE SMOOTH"
);
},
{
closed = 1;
nodes = (
"400 205 OFFCURVE",
"394 169 OFFCURVE",
"382 133 CURVE SMOOTH",
"371 96 OFFCURVE",
"332 72 OFFCURVE",
"284 70 CURVE SMOOTH",
"247 68 OFFCURVE",
"227 90 OFFCURVE",
"214 122 CURVE SMOOTH",
"198 163 OFFCURVE",
"177 204 OFFCURVE",
"183 248 CURVE SMOOTH",
"189 293 OFFCURVE",
"192 339 OFFCURVE",
"206 383 CURVE SMOOTH",
"218 418 OFFCURVE",
"231 451 OFFCURVE",
"261 475 CURVE SMOOTH",
"279 490 OFFCURVE",
"298 495 OFFCURVE",
"319 487 CURVE SMOOTH",
"339 480 OFFCURVE",
"346 462 OFFCURVE",
"348 442 CURVE SMOOTH",
"351 400 OFFCURVE",
"365 361 OFFCURVE",
"378 321 CURVE SMOOTH",
"386 296 OFFCURVE",
"394 270 OFFCURVE",
"394 237 CURVE"
);
}
);
vertWidth = 1000;
width = 880;
}
);
note = cid00048;
unicode = 004F;
},
{
glyphname = P;
lastChange = "2020-11-05 19:14:31 +0000";
layers = (
{
layerId = "FAEB3F87-0FE7-4D5C-BA65-CB0BBFD78DC9";
paths = (
{
closed = 1;
nodes = (
"576 483 OFFCURVE",
"577 489 OFFCURVE",
"579 494 CURVE SMOOTH",
"605 555 OFFCURVE",
"604 615 OFFCURVE",
"592 673 CURVE SMOOTH",
"577 748 OFFCURVE",
"510 790 OFFCURVE",
"415 790 CURVE SMOOTH",
"410 790 OFFCURVE",
"406 790 OFFCURVE",
"403 784 CURVE",
"409 782 OFFCURVE",
"415 780 OFFCURVE",
"422 779 CURVE SMOOTH",
"546 763 OFFCURVE",
"605 679 OFFCURVE",
"587 577 CURVE SMOOTH",
"581 544 OFFCURVE",
"571 512 OFFCURVE",
"565 477 CURVE"
);
},
{
closed = 1;
nodes = (
"251 -17 OFFCURVE",
"253 -26 OFFCURVE",
"266 -26 CURVE SMOOTH",
"281 -26 OFFCURVE",
"295 -20 OFFCURVE",
"304 -8 CURVE SMOOTH",
"315 5 OFFCURVE",
"323 21 OFFCURVE",
"323 37 CURVE SMOOTH",
"322 86 OFFCURVE",
"322 135 OFFCURVE",
"322 184 CURVE SMOOTH",
"322 221 OFFCURVE",
"322 221 OFFCURVE",
"276 215 CURVE SMOOTH",
"242 211 OFFCURVE",
"240 209 OFFCURVE",
"240 181 CURVE SMOOTH",
"242 141 OFFCURVE",
"244 102 OFFCURVE",
"247 62 CURVE SMOOTH",
"250 39 OFFCURVE",
"239 13 OFFCURVE",
"248 -7 CURVE"
);
},
{
closed = 1;
nodes = (
"549 724 OFFCURVE",
"496 756 OFFCURVE",
"422 771 CURVE SMOOTH",
"388 777 OFFCURVE",
"352 781 OFFCURVE",
"316 767 CURVE SMOOTH",
"277 752 OFFCURVE",
"238 735 OFFCURVE",
"197 726 CURVE SMOOTH",
"179 722 OFFCURVE",
"164 713 OFFCURVE",
"154 698 CURVE SMOOTH",
"148 689 OFFCURVE",
"149 683 OFFCURVE",
"163 686 CURVE SMOOTH",
"223 703 OFFCURVE",
"281 700 OFFCURVE",
"339 698 CURVE SMOOTH",
"393 696 OFFCURVE",
"440 686 OFFCURVE",
"465 646 CURVE SMOOTH",
"494 597 OFFCURVE",
"496 543 OFFCURVE",
"485 485 CURVE SMOOTH",
"478 449 OFFCURVE",
"473 413 OFFCURVE",
"468 377 CURVE SMOOTH",
"467 372 OFFCURVE",
"460 361 OFFCURVE",
"476 364 CURVE SMOOTH",
"490 367 OFFCURVE",
"540 412 OFFCURVE",
"541 424 CURVE SMOOTH",
"544 458 OFFCURVE",
"557 491 OFFCURVE",
"563 524 CURVE SMOOTH",
"572 570 OFFCURVE",
"586 618 OFFCURVE",
"564 673 CURVE"
);
},
{
closed = 1;
nodes = (
"456 641 OFFCURVE",
"438 674 OFFCURVE",
"390 681 CURVE SMOOTH",
"317 691 OFFCURVE",
"243 697 OFFCURVE",
"163 678 CURVE SMOOTH",
"141 673 OFFCURVE",
"134 664 OFFCURVE",
"134 649 CURVE SMOOTH",
"134 581 OFFCURVE",
"132 513 OFFCURVE",
"134 446 CURVE SMOOTH",
"138 325 OFFCURVE",
"118 201 OFFCURVE",
"116 79 CURVE SMOOTH",
"115 33 OFFCURVE",
"110 -12 OFFCURVE",
"110 -58 CURVE SMOOTH",
"110 -67 OFFCURVE",
"108 -79 OFFCURVE",
"127 -78 CURVE SMOOTH",
"159 -76 OFFCURVE",
"217 -36 OFFCURVE",
"226 -8 CURVE SMOOTH",
"239 28 OFFCURVE",
"233 64 OFFCURVE",
"231 100 CURVE SMOOTH",
"229 131 OFFCURVE",
"224 163 OFFCURVE",
"227 195 CURVE SMOOTH",
"229 212 OFFCURVE",
"235 222 OFFCURVE",
"260 224 CURVE SMOOTH",
"289 226 OFFCURVE",
"319 232 OFFCURVE",
"347 241 CURVE SMOOTH",
"394 257 OFFCURVE",
"425 283 OFFCURVE",
"440 323 CURVE SMOOTH",
"461 383 OFFCURVE",
"466 443 OFFCURVE",
"475 503 CURVE SMOOTH",
"481 538 OFFCURVE",
"483 574 OFFCURVE",
"466 607 CURVE"
);
},
{
closed = 1;
nodes = (
"233 741 OFFCURVE",
"271 756 OFFCURVE",
"307 773 CURVE SMOOTH",
"367 802 OFFCURVE",
"425 799 OFFCURVE",
"482 788 CURVE SMOOTH",
"566 772 OFFCURVE",
"598 723 OFFCURVE",
"608 657 CURVE SMOOTH",
"619 589 OFFCURVE",
"608 521 OFFCURVE",
"570 451 CURVE SMOOTH",
"547 409 OFFCURVE",
"513 375 OFFCURVE",
"470 345 CURVE SMOOTH",
"458 337 OFFCURVE",
"452 328 OFFCURVE",
"448 317 CURVE SMOOTH",
"434 280 OFFCURVE",
"405 251 OFFCURVE",
"361 234 CURVE SMOOTH",
"344 228 OFFCURVE",
"341 219 OFFCURVE",
"338 207 CURVE SMOOTH",
"329 161 OFFCURVE",
"334 117 OFFCURVE",
"334 72 CURVE SMOOTH",
"334 45 OFFCURVE",
"336 19 OFFCURVE",
"317 -7 CURVE SMOOTH",
"300 -33 OFFCURVE",
"269 -44 OFFCURVE",
"242 -32 CURVE SMOOTH",
"231 -28 OFFCURVE",
"227 -33 OFFCURVE",
"222 -38 CURVE SMOOTH",
"203 -58 OFFCURVE",
"178 -70 OFFCURVE",
"152 -82 CURVE SMOOTH",
"114 -99 OFFCURVE",
"96 -91 OFFCURVE",
"96 -58 CURVE SMOOTH",
"95 -30 OFFCURVE",
"94 -2 OFFCURVE",
"99 25 CURVE SMOOTH",
"110 83 OFFCURVE",
"106 141 OFFCURVE",
"113 199 CURVE SMOOTH",
"123 286 OFFCURVE",
"117 372 OFFCURVE",
"120 458 CURVE SMOOTH",
"123 521 OFFCURVE",
"122 584 OFFCURVE",
"122 646 CURVE SMOOTH",
"123 690 OFFCURVE",
"148 719 OFFCURVE",
"202 735 CURVE"
);
},
{
closed = 1;
nodes = (
"263 370 OFFCURVE",
"237 372 OFFCURVE",
"217 388 CURVE",
"219 359 OFFCURVE",
"240 355 OFFCURVE",
"296 371 CURVE"
);
},
{
closed = 1;
nodes = (
"373 404 OFFCURVE",
"377 412 OFFCURVE",
"380 419 CURVE SMOOTH",
"388 439 OFFCURVE",
"396 458 OFFCURVE",
"401 477 CURVE SMOOTH",
"408 503 OFFCURVE",
"412 528 OFFCURVE",
"409 553 CURVE SMOOTH",
"406 579 OFFCURVE",
"384 593 OFFCURVE",
"360 588 CURVE",
"396 568 OFFCURVE",
"383 531 OFFCURVE",
"385 500 CURVE SMOOTH",
"387 467 OFFCURVE",
"376 433 OFFCURVE",
"361 399 CURVE"
);
},
{
closed = 1;
nodes = (
"363 574 OFFCURVE",
"346 578 OFFCURVE",
"327 577 CURVE SMOOTH",
"310 576 OFFCURVE",
"295 571 OFFCURVE",
"300 552 CURVE SMOOTH",
"303 540 OFFCURVE",
"301 527 OFFCURVE",
"302 514 CURVE SMOOTH",
"302 495 OFFCURVE",
"301 476 OFFCURVE",
"303 457 CURVE SMOOTH",
"303 448 OFFCURVE",
"307 442 OFFCURVE",
"321 451 CURVE SMOOTH",
"365 482 OFFCURVE",
"381 518 OFFCURVE",
"367 558 CURVE"
);
},
{
closed = 1;
nodes = (
"359 474 OFFCURVE",
"354 469 OFFCURVE",
"349 465 CURVE SMOOTH",
"335 452 OFFCURVE",
"323 429 OFFCURVE",
"300 436 CURVE SMOOTH",
"279 441 OFFCURVE",
"287 463 OFFCURVE",
"289 479 CURVE SMOOTH",
"291 507 OFFCURVE",
"288 535 OFFCURVE",
"284 562 CURVE SMOOTH",
"283 568 OFFCURVE",
"283 578 OFFCURVE",
"272 577 CURVE SMOOTH",
"263 576 OFFCURVE",
"257 568 OFFCURVE",
"253 561 CURVE SMOOTH",
"250 556 OFFCURVE",
"248 550 OFFCURVE",
"247 544 CURVE SMOOTH",
"241 518 OFFCURVE",
"237 492 OFFCURVE",
"229 466 CURVE SMOOTH",
"224 446 OFFCURVE",
"227 427 OFFCURVE",
"230 409 CURVE SMOOTH",
"234 390 OFFCURVE",
"248 380 OFFCURVE",
"273 382 CURVE SMOOTH",
"289 384 OFFCURVE",
"305 386 OFFCURVE",
"321 388 CURVE SMOOTH",
"333 390 OFFCURVE",
"342 396 OFFCURVE",
"346 405 CURVE SMOOTH",
"357 429 OFFCURVE",
"369 453 OFFCURVE",
"368 483 CURVE"
);
},
{
closed = 1;
nodes = (
"295 354 OFFCURVE",
"260 351 OFFCURVE",
"227 353 CURVE SMOOTH",
"203 354 OFFCURVE",
"201 373 OFFCURVE",
"203 388 CURVE SMOOTH",
"210 446 OFFCURVE",
"223 505 OFFCURVE",
"238 563 CURVE SMOOTH",
"243 580 OFFCURVE",
"264 588 OFFCURVE",
"281 593 CURVE SMOOTH",
"316 603 OFFCURVE",
"351 604 OFFCURVE",
"383 599 CURVE SMOOTH",
"407 596 OFFCURVE",
"417 579 OFFCURVE",
"419 560 CURVE SMOOTH",
"424 509 OFFCURVE",
"415 457 OFFCURVE",
"384 406 CURVE SMOOTH",
"373 387 OFFCURVE",
"354 372 OFFCURVE",
"323 362 CURVE SMOOTH"
);
}
);
vertWidth = 1000;
width = 780;
}
);
note = cid00049;
unicode = 0050;
},
{
glyphname = Q;
lastChange = "2020-11-05 19:14:31 +0000";
layers = (
{
layerId = "FAEB3F87-0FE7-4D5C-BA65-CB0BBFD78DC9";
paths = (
{
closed = 1;
nodes = (
"310 514 OFFCURVE",
"291 444 OFFCURVE",
"319 373 CURVE",
"315 444 OFFCURVE",
"331 514 OFFCURVE",
"326 584 CURVE"
);
},
{
closed = 1;
nodes = (
"415 12 OFFCURVE",
"437 -8 OFFCURVE",
"475 -14 CURVE SMOOTH",
"481 -15 OFFCURVE",
"488 -19 OFFCURVE",
"492 -14 CURVE",
"495 -12 OFFCURVE",
"493 -7 OFFCURVE",
"491 -3 CURVE SMOOTH",
"480 14 OFFCURVE",
"471 33 OFFCURVE",
"459 51 CURVE SMOOTH",
"451 61 OFFCURVE",
"445 80 OFFCURVE",
"429 77 CURVE SMOOTH",
"413 74 OFFCURVE",
"418 55 OFFCURVE",
"415 45 CURVE"
);
},
{
closed = 1;
nodes = (
"229 209 OFFCURVE",
"213 266 OFFCURVE",
"188 322 CURVE",
"178 235 OFFCURVE",
"187 180 OFFCURVE",
"246 150 CURVE"
);
},
{
closed = 1;
nodes = (
"418 529 OFFCURVE",
"411 551 OFFCURVE",
"407 575 CURVE SMOOTH",
"406 581 OFFCURVE",
"405 586 OFFCURVE",
"403 591 CURVE SMOOTH",
"396 604 OFFCURVE",
"387 617 OFFCURVE",
"373 627 CURVE SMOOTH",
"366 632 OFFCURVE",
"357 634 OFFCURVE",
"348 631 CURVE SMOOTH",
"338 628 OFFCURVE",
"342 622 OFFCURVE",
"342 616 CURVE SMOOTH",
"344 601 OFFCURVE",
"345 586 OFFCURVE",
"345 571 CURVE SMOOTH",
"345 558 OFFCURVE",
"350 550 OFFCURVE",
"371 551 CURVE SMOOTH",
"383 551 OFFCURVE",
"391 545 OFFCURVE",
"398 539 CURVE SMOOTH",
"415 525 OFFCURVE",
"437 522 OFFCURVE",
"464 531 CURVE"
);
},
{
closed = 1;
nodes = (
"338 402 OFFCURVE",
"339 383 OFFCURVE",
"342 363 CURVE SMOOTH",
"346 343 OFFCURVE",
"363 338 OFFCURVE",
"387 350 CURVE SMOOTH",
"395 353 OFFCURVE",
"401 359 OFFCURVE",
"407 363 CURVE SMOOTH",
"431 382 OFFCURVE",
"446 380 OFFCURVE",
"461 358 CURVE SMOOTH",
"474 340 OFFCURVE",
"485 321 OFFCURVE",
"509 310 CURVE SMOOTH",
"536 297 OFFCURVE",
"562 300 OFFCURVE",
"580 319 CURVE SMOOTH",
"594 335 OFFCURVE",
"601 353 OFFCURVE",
"597 371 CURVE SMOOTH",
"586 422 OFFCURVE",
"553 465 OFFCURVE",
"515 507 CURVE SMOOTH",
"505 518 OFFCURVE",
"494 521 OFFCURVE",
"476 517 CURVE SMOOTH",
"445 510 OFFCURVE",
"415 509 OFFCURVE",
"391 528 CURVE SMOOTH",
"382 535 OFFCURVE",
"373 541 OFFCURVE",
"359 538 CURVE SMOOTH",
"343 534 OFFCURVE",
"343 524 OFFCURVE",
"343 515 CURVE SMOOTH",
"340 484 OFFCURVE",
"334 453 OFFCURVE",
"337 422 CURVE SMOOTH"
);
},
{
closed = 1;
nodes = (
"561 280 OFFCURVE",
"505 281 OFFCURVE",
"466 327 CURVE SMOOTH",
"461 332 OFFCURVE",
"457 338 OFFCURVE",
"453 344 CURVE SMOOTH",
"437 369 OFFCURVE",
"437 369 OFFCURVE",
"411 349 CURVE SMOOTH",
"372 319 OFFCURVE",
"321 327 OFFCURVE",
"303 365 CURVE SMOOTH",
"294 385 OFFCURVE",
"290 406 OFFCURVE",
"289 428 CURVE SMOOTH",
"286 483 OFFCURVE",
"300 537 OFFCURVE",
"307 591 CURVE SMOOTH",
"309 603 OFFCURVE",
"319 623 OFFCURVE",
"300 626 CURVE SMOOTH",
"279 629 OFFCURVE",
"267 610 OFFCURVE",
"260 596 CURVE SMOOTH",
"248 569 OFFCURVE",
"230 544 OFFCURVE",
"219 517 CURVE SMOOTH",
"194 460 OFFCURVE",
"176 403 OFFCURVE",
"199 343 CURVE SMOOTH",
"204 329 OFFCURVE",
"211 316 OFFCURVE",
"216 302 CURVE SMOOTH",
"233 253 OFFCURVE",
"249 204 OFFCURVE",
"266 155 CURVE SMOOTH",
"270 144 OFFCURVE",
"276 133 OFFCURVE",
"295 132 CURVE SMOOTH",
"315 131 OFFCURVE",
"326 141 OFFCURVE",
"334 152 CURVE SMOOTH",
"348 170 OFFCURVE",
"355 190 OFFCURVE",
"361 210 CURVE SMOOTH",
"366 226 OFFCURVE",
"375 242 OFFCURVE",
"389 256 CURVE SMOOTH",
"414 282 OFFCURVE",
"440 283 OFFCURVE",
"469 259 CURVE SMOOTH",
"479 251 OFFCURVE",
"484 242 OFFCURVE",
"488 232 CURVE SMOOTH",
"496 210 OFFCURVE",
"504 189 OFFCURVE",
"519 170 CURVE SMOOTH",
"535 147 OFFCURVE",
"558 147 OFFCURVE",
"574 170 CURVE SMOOTH",
"596 200 OFFCURVE",
"610 233 OFFCURVE",
"614 267 CURVE SMOOTH",
"617 285 OFFCURVE",
"617 304 OFFCURVE",
"608 325 CURVE"
);
},
{
closed = 1;
nodes = (
"625 143 OFFCURVE",
"658 166 OFFCURVE",
"697 176 CURVE SMOOTH",
"722 182 OFFCURVE",
"729 196 OFFCURVE",
"724 214 CURVE SMOOTH",
"717 236 OFFCURVE",
"710 258 OFFCURVE",
"703 280 CURVE SMOOTH",
"681 354 OFFCURVE",
"657 428 OFFCURVE",
"658 505 CURVE SMOOTH",
"659 550 OFFCURVE",
"666 595 OFFCURVE",
"661 640 CURVE SMOOTH",
"656 690 OFFCURVE",
"657 742 OFFCURVE",
"590 774 CURVE SMOOTH",
"588 775 OFFCURVE",
"587 777 OFFCURVE",
"585 778 CURVE",
"568 793 OFFCURVE",
"544 800 OFFCURVE",
"518 799 CURVE SMOOTH",
"464 799 OFFCURVE",
"423 780 OFFCURVE",
"395 748 CURVE SMOOTH",
"376 725 OFFCURVE",
"356 707 OFFCURVE",
"314 710 CURVE SMOOTH",
"299 711 OFFCURVE",
"289 704 OFFCURVE",
"281 694 CURVE SMOOTH",
"258 664 OFFCURVE",
"245 632 OFFCURVE",
"224 602 CURVE SMOOTH",
"193 558 OFFCURVE",
"178 509 OFFCURVE",
"152 463 CURVE SMOOTH",
"132 427 OFFCURVE",
"113 391 OFFCURVE",
"96 354 CURVE SMOOTH",
"67 294 OFFCURVE",
"86 235 OFFCURVE",
"104 175 CURVE SMOOTH",
"113 145 OFFCURVE",
"130 118 OFFCURVE",
"159 95 CURVE SMOOTH",
"188 71 OFFCURVE",
"221 60 OFFCURVE",
"266 67 CURVE SMOOTH",
"307 73 OFFCURVE",
"346 83 OFFCURVE",
"386 93 CURVE SMOOTH",
"416 101 OFFCURVE",
"437 97 OFFCURVE",
"456 78 CURVE SMOOTH",
"465 68 OFFCURVE",
"472 58 OFFCURVE",
"479 47 CURVE SMOOTH",
"501 15 OFFCURVE",
"513 -20 OFFCURVE",
"544 -49 CURVE SMOOTH",
"559 -63 OFFCURVE",
"571 -75 OFFCURVE",
"598 -72 CURVE SMOOTH",
"623 -68 OFFCURVE",
"652 -48 OFFCURVE",
"653 -30 CURVE SMOOTH",
"654 -11 OFFCURVE",
"652 8 OFFCURVE",
"647 27 CURVE SMOOTH",
"636 65 OFFCURVE",
"597 91 OFFCURVE",
"579 126 CURVE SMOOTH",
"577 130 OFFCURVE",
"572 131 OFFCURVE",
"566 132 CURVE SMOOTH",
"532 138 OFFCURVE",
"507 152 OFFCURVE",
"496 177 CURVE SMOOTH",
"488 195 OFFCURVE",
"478 213 OFFCURVE",
"470 232 CURVE SMOOTH",
"466 242 OFFCURVE",
"459 251 OFFCURVE",
"447 258 CURVE SMOOTH",
"433 266 OFFCURVE",
"420 267 OFFCURVE",
"409 254 CURVE SMOOTH",
"395 240 OFFCURVE",
"382 225 OFFCURVE",
"377 207 CURVE SMOOTH",
"370 185 OFFCURVE",
"362 162 OFFCURVE",
"346 142 CURVE SMOOTH",
"328 120 OFFCURVE",
"306 113 OFFCURVE",
"273 123 CURVE SMOOTH",
"211 140 OFFCURVE",
"181 176 OFFCURVE",
"172 222 CURVE SMOOTH",
"161 273 OFFCURVE",
"168 323 OFFCURVE",
"171 374 CURVE SMOOTH",
"172 402 OFFCURVE",
"177 430 OFFCURVE",
"181 458 CURVE SMOOTH",
"189 510 OFFCURVE",
"225 557 OFFCURVE",
"250 606 CURVE SMOOTH",
"263 631 OFFCURVE",
"292 644 OFFCURVE",
"331 646 CURVE SMOOTH",
"367 647 OFFCURVE",
"389 635 OFFCURVE",
"406 612 CURVE SMOOTH",
"417 598 OFFCURVE",
"422 582 OFFCURVE",
"425 566 CURVE SMOOTH",
"428 552 OFFCURVE",
"437 543 OFFCURVE",
"458 544 CURVE SMOOTH",
"488 545 OFFCURVE",
"507 533 OFFCURVE",
"523 518 CURVE SMOOTH",
"537 505 OFFCURVE",
"549 491 OFFCURVE",
"560 477 CURVE SMOOTH",
"614 407 OFFCURVE",
"641 333 OFFCURVE",
"628 253 CURVE SMOOTH",
"622 216 OFFCURVE",
"604 180 OFFCURVE",
"574 146 CURVE"
);
},
{
closed = 1;
nodes = (
"678 574 OFFCURVE",
"677 546 OFFCURVE",
"676 519 CURVE SMOOTH",
"671 436 OFFCURVE",
"694 356 OFFCURVE",
"721 276 CURVE SMOOTH",
"728 256 OFFCURVE",
"733 235 OFFCURVE",
"739 214 CURVE SMOOTH",
"747 187 OFFCURVE",
"741 177 OFFCURVE",
"707 165 CURVE SMOOTH",
"679 154 OFFCURVE",
"650 144 OFFCURVE",
"620 137 CURVE SMOOTH",
"597 131 OFFCURVE",
"597 124 OFFCURVE",
"607 111 CURVE SMOOTH",
"634 78 OFFCURVE",
"662 46 OFFCURVE",
"668 6 CURVE SMOOTH",
"673 -23 OFFCURVE",
"673 -52 OFFCURVE",
"635 -73 CURVE SMOOTH",
"602 -91 OFFCURVE",
"567 -90 OFFCURVE",
"542 -67 CURVE SMOOTH",
"519 -46 OFFCURVE",
"494 -30 OFFCURVE",
"457 -23 CURVE SMOOTH",
"419 -15 OFFCURVE",
"395 17 OFFCURVE",
"400 47 CURVE",
"400 52 OFFCURVE",
"402 58 OFFCURVE",
"404 64 CURVE SMOOTH",
"409 78 OFFCURVE",
"409 85 OFFCURVE",
"383 78 CURVE SMOOTH",
"338 67 OFFCURVE",
"293 57 OFFCURVE",
"244 54 CURVE SMOOTH",
"209 51 OFFCURVE",
"184 60 OFFCURVE",
"162 76 CURVE SMOOTH",
"125 101 OFFCURVE",
"99 132 OFFCURVE",
"90 169 CURVE SMOOTH",
"86 189 OFFCURVE",
"80 209 OFFCURVE",
"74 228 CURVE SMOOTH",
"55 285 OFFCURVE",
"70 339 OFFCURVE",
"97 393 CURVE SMOOTH",
"121 440 OFFCURVE",
"148 485 OFFCURVE",
"169 533 CURVE SMOOTH",
"194 593 OFFCURVE",
"235 649 OFFCURVE",
"271 706 CURVE SMOOTH",
"277 715 OFFCURVE",
"286 720 OFFCURVE",
"299 718 CURVE SMOOTH",
"339 715 OFFCURVE",
"359 732 OFFCURVE",
"378 754 CURVE SMOOTH",
"414 798 OFFCURVE",
"486 819 OFFCURVE",
"553 805 CURVE SMOOTH",
"568 802 OFFCURVE",
"582 797 OFFCURVE",
"593 789 CURVE SMOOTH",
"609 776 OFFCURVE",
"624 763 OFFCURVE",
"641 750 CURVE SMOOTH",
"658 737 OFFCURVE",
"664 720 OFFCURVE",
"666 702 CURVE SMOOTH",
"672 668 OFFCURVE",
"676 635 OFFCURVE",
"680 609 CURVE"
);
}
);
vertWidth = 1000;
width = 880;
}
);
note = cid00050;
unicode = 0051;
},
{
glyphname = R;
lastChange = "2020-11-05 19:14:31 +0000";
layers = (
{
layerId = "FAEB3F87-0FE7-4D5C-BA65-CB0BBFD78DC9";
paths = (
{
closed = 1;
nodes = (
"120 61 OFFCURVE",
"135 27 OFFCURVE",
"148 -5 CURVE",
"144 30 OFFCURVE",
"133 64 OFFCURVE",
"125 99 CURVE"
);
},
{
closed = 1;
nodes = (
"462 46 OFFCURVE",
"469 48 OFFCURVE",
"474 53 CURVE SMOOTH",
"502 78 OFFCURVE",
"523 109 OFFCURVE",
"543 141 CURVE SMOOTH",
"545 145 OFFCURVE",
"547 149 OFFCURVE",
"543 153 CURVE",
"539 155 OFFCURVE",
"535 155 OFFCURVE",
"531 151 CURVE SMOOTH",
"528 148 OFFCURVE",
"526 143 OFFCURVE",
"525 139 CURVE SMOOTH",
"521 120 OFFCURVE",
"511 107 OFFCURVE",
"499 94 CURVE SMOOTH",
"484 80 OFFCURVE",
"468 65 OFFCURVE",
"453 51 CURVE"
);
},
{
closed = 1;
nodes = (
"597 643 OFFCURVE",
"611 605 OFFCURVE",
"613 561 CURVE",
"636 599 OFFCURVE",
"618 667 OFFCURVE",
"573 679 CURVE"
);
},
{
closed = 1;
nodes = (
"425 74 OFFCURVE",
"423 77 OFFCURVE",
"421 81 CURVE SMOOTH",
"398 134 OFFCURVE",
"377 189 OFFCURVE",
"351 240 CURVE SMOOTH",
"338 266 OFFCURVE",
"327 292 OFFCURVE",
"313 316 CURVE SMOOTH",
"311 319 OFFCURVE",
"309 324 OFFCURVE",
"306 323 CURVE SMOOTH",
"301 322 OFFCURVE",
"302 316 OFFCURVE",
"302 312 CURVE SMOOTH",
"301 295 OFFCURVE",
"302 277 OFFCURVE",
"309 260 CURVE SMOOTH",
"327 218 OFFCURVE",
"345 175 OFFCURVE",
"368 135 CURVE SMOOTH",
"383 109 OFFCURVE",
"399 85 OFFCURVE",
"423 66 CURVE"
);
},
{
closed = 1;
nodes = (
"521 174 OFFCURVE",
"521 176 OFFCURVE",
"521 177 CURVE",
"491 246 OFFCURVE",
"462 316 OFFCURVE",
"432 385 CURVE SMOOTH",
"424 403 OFFCURVE",
"411 418 OFFCURVE",
"401 434 CURVE",
"398 437 OFFCURVE",
"395 442 OFFCURVE",
"390 440 CURVE SMOOTH",
"385 438 OFFCURVE",
"386 432 OFFCURVE",
"385 428 CURVE",
"385 414 OFFCURVE",
"386 402 OFFCURVE",
"392 389 CURVE SMOOTH",
"415 336 OFFCURVE",
"443 284 OFFCURVE",
"473 235 CURVE SMOOTH",
"487 213 OFFCURVE",
"500 190 OFFCURVE",
"521 170 CURVE"
);
},
{
closed = 1;
nodes = (
"579 772 OFFCURVE",
"604 742 OFFCURVE",
"632 714 CURVE SMOOTH",
"656 689 OFFCURVE",
"675 661 OFFCURVE",
"669 621 CURVE SMOOTH",
"664 583 OFFCURVE",
"654 547 OFFCURVE",
"633 515 CURVE SMOOTH",
"631 511 OFFCURVE",
"628 509 OFFCURVE",
"629 502 CURVE",
"643 514 OFFCURVE",
"655 526 OFFCURVE",
"663 543 CURVE SMOOTH",
"683 586 OFFCURVE",
"687 633 OFFCURVE",
"682 680 CURVE SMOOTH",
"674 749 OFFCURVE",
"609 802 OFFCURVE",
"541 789 CURVE"
);
},
{
closed = 1;
nodes = (
"107 230 OFFCURVE",
"107 234 OFFCURVE",
"107 238 CURVE SMOOTH",
"109 280 OFFCURVE",
"109 322 OFFCURVE",
"112 364 CURVE SMOOTH",
"117 420 OFFCURVE",
"125 475 OFFCURVE",
"125 531 CURVE SMOOTH",
"125 570 OFFCURVE",
"128 608 OFFCURVE",
"138 645 CURVE SMOOTH",
"145 675 OFFCURVE",
"146 706 OFFCURVE",
"145 737 CURVE SMOOTH",
"145 740 OFFCURVE",
"146 745 OFFCURVE",
"142 746 CURVE SMOOTH",
"138 747 OFFCURVE",
"136 743 OFFCURVE",
"134 740 CURVE SMOOTH",
"128 732 OFFCURVE",
"126 724 OFFCURVE",
"125 714 CURVE SMOOTH",
"123 689 OFFCURVE",
"121 665 OFFCURVE",
"122 640 CURVE SMOOTH",
"122 623 OFFCURVE",
"119 606 OFFCURVE",
"113 590 CURVE SMOOTH",
"106 569 OFFCURVE",
"101 547 OFFCURVE",
"102 524 CURVE SMOOTH",
"103 493 OFFCURVE",
"104 462 OFFCURVE",
"99 432 CURVE SMOOTH",
"91 379 OFFCURVE",
"93 326 OFFCURVE",
"95 274 CURVE SMOOTH",
"96 257 OFFCURVE",
"98 241 OFFCURVE",
"106 222 CURVE"
);
},
{
closed = 1;
nodes = (
"173 -57 OFFCURVE",
"173 -59 OFFCURVE",
"174 -60 CURVE SMOOTH",
"176 -61 OFFCURVE",
"178 -63 OFFCURVE",
"180 -64 CURVE",
"206 -69 OFFCURVE",
"231 -71 OFFCURVE",
"255 -56 CURVE SMOOTH",
"259 -54 OFFCURVE",
"262 -50 OFFCURVE",
"265 -45 CURVE SMOOTH",
"274 -28 OFFCURVE",
"282 -9 OFFCURVE",
"284 11 CURVE SMOOTH",
"287 57 OFFCURVE",
"286 104 OFFCURVE",
"285 150 CURVE SMOOTH",
"284 185 OFFCURVE",
"283 221 OFFCURVE",
"289 255 CURVE SMOOTH",
"296 293 OFFCURVE",
"276 318 OFFCURVE",
"258 345 CURVE SMOOTH",
"253 353 OFFCURVE",
"246 350 OFFCURVE",
"244 340 CURVE SMOOTH",
"242 330 OFFCURVE",
"239 320 OFFCURVE",
"239 309 CURVE SMOOTH",
"242 268 OFFCURVE",
"246 226 OFFCURVE",
"254 185 CURVE SMOOTH",
"266 118 OFFCURVE",
"264 51 OFFCURVE",
"254 -15 CURVE SMOOTH",
"249 -51 OFFCURVE",
"226 -66 OFFCURVE",
"193 -58 CURVE SMOOTH",
"186 -57 OFFCURVE",
"180 -56 OFFCURVE",
"171 -54 CURVE"
);
},
{
closed = 1;
nodes = (
"564 160 OFFCURVE",
"570 164 OFFCURVE",
"576 169 CURVE SMOOTH",
"600 191 OFFCURVE",
"620 216 OFFCURVE",
"634 246 CURVE SMOOTH",
"647 273 OFFCURVE",
"651 301 OFFCURVE",
"635 329 CURVE SMOOTH",
"624 346 OFFCURVE",
"613 362 OFFCURVE",
"598 374 CURVE SMOOTH",
"566 400 OFFCURVE",
"533 425 OFFCURVE",
"498 445 CURVE SMOOTH",
"491 449 OFFCURVE",
"484 452 OFFCURVE",
"476 452 CURVE SMOOTH",
"457 452 OFFCURVE",
"439 455 OFFCURVE",
"423 469 CURVE SMOOTH",
"414 477 OFFCURVE",
"410 464 OFFCURVE",
"404 459 CURVE SMOOTH",
"398 455 OFFCURVE",
"399 450 OFFCURVE",
"403 445 CURVE SMOOTH",
"434 410 OFFCURVE",
"452 366 OFFCURVE",
"469 323 CURVE SMOOTH",
"489 274 OFFCURVE",
"513 227 OFFCURVE",
"533 178 CURVE SMOOTH",
"537 166 OFFCURVE",
"546 162 OFFCURVE",
"555 161 CURVE SMOOTH"
);
},
{
closed = 1;
nodes = (
"512 460 OFFCURVE",
"539 465 OFFCURVE",
"566 473 CURVE SMOOTH",
"590 479 OFFCURVE",
"609 495 OFFCURVE",
"623 517 CURVE SMOOTH",
"643 549 OFFCURVE",
"655 586 OFFCURVE",
"660 626 CURVE SMOOTH",
"663 652 OFFCURVE",
"655 673 OFFCURVE",
"640 692 CURVE SMOOTH",
"619 717 OFFCURVE",
"597 739 OFFCURVE",
"572 760 CURVE SMOOTH",
"546 781 OFFCURVE",
"518 795 OFFCURVE",
"483 781 CURVE SMOOTH",
"459 772 OFFCURVE",
"433 774 OFFCURVE",
"408 783 CURVE SMOOTH",
"394 787 OFFCURVE",
"380 789 OFFCURVE",
"366 792 CURVE SMOOTH",
"358 793 OFFCURVE",
"352 791 OFFCURVE",
"347 786 CURVE SMOOTH",
"305 751 OFFCURVE",
"282 704 OFFCURVE",
"271 649 CURVE SMOOTH",
"269 638 OFFCURVE",
"273 638 OFFCURVE",
"281 641 CURVE SMOOTH",
"292 645 OFFCURVE",
"303 647 OFFCURVE",
"314 649 CURVE SMOOTH",
"351 653 OFFCURVE",
"387 658 OFFCURVE",
"423 669 CURVE SMOOTH",
"460 681 OFFCURVE",
"498 690 OFFCURVE",
"538 694 CURVE SMOOTH",
"598 699 OFFCURVE",
"643 645 OFFCURVE",
"631 580 CURVE SMOOTH",
"627 557 OFFCURVE",
"617 541 OFFCURVE",
"599 529 CURVE SMOOTH",
"573 511 OFFCURVE",
"545 506 OFFCURVE",
"516 507 CURVE SMOOTH",
"492 507 OFFCURVE",
"469 505 OFFCURVE",
"447 501 CURVE SMOOTH",
"439 500 OFFCURVE",
"432 497 OFFCURVE",
"431 487 CURVE SMOOTH",
"431 477 OFFCURVE",
"436 471 OFFCURVE",
"444 468 CURVE SMOOTH",
"457 462 OFFCURVE",
"471 460 OFFCURVE",
"485 459 CURVE"
);
},
{
closed = 1;
nodes = (
"292 324 OFFCURVE",
"291 330 OFFCURVE",
"290 336 CURVE SMOOTH",
"289 343 OFFCURVE",
"283 354 OFFCURVE",
"290 357 CURVE SMOOTH",
"298 361 OFFCURVE",
"302 349 OFFCURVE",
"307 343 CURVE",
"307 342 OFFCURVE",
"308 341 OFFCURVE",
"308 340 CURVE",
"356 251 OFFCURVE",
"398 160 OFFCURVE",
"435 65 CURVE SMOOTH",
"439 55 OFFCURVE",
"444 53 OFFCURVE",
"451 60 CURVE SMOOTH",
"471 80 OFFCURVE",
"491 99 OFFCURVE",
"507 123 CURVE SMOOTH",
"520 141 OFFCURVE",
"518 157 OFFCURVE",
"504 174 CURVE SMOOTH",
"499 181 OFFCURVE",
"493 188 OFFCURVE",
"488 196 CURVE SMOOTH",
"453 248 OFFCURVE",
"424 305 OFFCURVE",
"395 361 CURVE SMOOTH",
"388 373 OFFCURVE",
"383 385 OFFCURVE",
"378 398 CURVE SMOOTH",
"368 428 OFFCURVE",
"372 444 OFFCURVE",
"395 466 CURVE SMOOTH",
"403 473 OFFCURVE",
"414 479 OFFCURVE",
"418 488 CURVE SMOOTH",
"426 504 OFFCURVE",
"437 508 OFFCURVE",
"451 510 CURVE SMOOTH",
"472 514 OFFCURVE",
"493 515 OFFCURVE",
"514 515 CURVE SMOOTH",
"537 514 OFFCURVE",
"560 518 OFFCURVE",
"581 528 CURVE SMOOTH",
"595 535 OFFCURVE",
"602 546 OFFCURVE",
"602 562 CURVE SMOOTH",
"602 603 OFFCURVE",
"590 638 OFFCURVE",
"568 670 CURVE SMOOTH",
"561 681 OFFCURVE",
"549 685 OFFCURVE",
"536 685 CURVE SMOOTH",
"516 686 OFFCURVE",
"497 681 OFFCURVE",
"478 675 CURVE SMOOTH",
"448 667 OFFCURVE",
"417 664 OFFCURVE",
"389 646 CURVE SMOOTH",
"362 628 OFFCURVE",
"330 624 OFFCURVE",
"299 620 CURVE SMOOTH",
"288 618 OFFCURVE",
"277 622 OFFCURVE",
"266 625 CURVE SMOOTH",
"259 628 OFFCURVE",
"256 632 OFFCURVE",
"258 640 CURVE SMOOTH",
"269 692 OFFCURVE",
"286 740 OFFCURVE",
"325 777 CURVE SMOOTH",
"329 781 OFFCURVE",
"335 785 OFFCURVE",
"335 793 CURVE",
"321 793 OFFCURVE",
"308 793 OFFCURVE",
"295 792 CURVE SMOOTH",
"252 791 OFFCURVE",
"209 786 OFFCURVE",
"167 769 CURVE SMOOTH",
"158 765 OFFCURVE",
"155 760 OFFCURVE",
"156 750 CURVE SMOOTH",
"158 712 OFFCURVE",
"156 674 OFFCURVE",
"146 638 CURVE SMOOTH",
"141 618 OFFCURVE",
"137 599 OFFCURVE",
"137 579 CURVE SMOOTH",
"137 471 OFFCURVE",
"116 364 OFFCURVE",
"116 255 CURVE SMOOTH",
"116 205 OFFCURVE",
"116 154 OFFCURVE",
"132 105 CURVE SMOOTH",
"143 67 OFFCURVE",
"154 27 OFFCURVE",
"159 -12 CURVE SMOOTH",
"162 -38 OFFCURVE",
"176 -50 OFFCURVE",
"203 -51 CURVE SMOOTH",
"225 -52 OFFCURVE",
"240 -39 OFFCURVE",
"245 -16 CURVE SMOOTH",
"255 34 OFFCURVE",
"254 85 OFFCURVE",
"252 136 CURVE SMOOTH",
"251 174 OFFCURVE",
"240 209 OFFCURVE",
"237 246 CURVE SMOOTH",
"234 276 OFFCURVE",
"228 306 OFFCURVE",
"235 337 CURVE SMOOTH",
"237 344 OFFCURVE",
"237 355 OFFCURVE",
"247 357 CURVE SMOOTH",
"257 359 OFFCURVE",
"265 353 OFFCURVE",
"271 344 CURVE SMOOTH",
"277 335 OFFCURVE",
"282 326 OFFCURVE",
"289 315 CURVE"
);
},
{
closed = 1;
nodes = (
"539 449 OFFCURVE",
"542 448 OFFCURVE",
"545 448 CURVE",
"576 442 OFFCURVE",
"592 419 OFFCURVE",
"605 391 CURVE SMOOTH",
"609 383 OFFCURVE",
"613 376 OFFCURVE",
"618 370 CURVE SMOOTH",
"625 360 OFFCURVE",
"632 350 OFFCURVE",
"639 340 CURVE SMOOTH",
"662 305 OFFCURVE",
"658 270 OFFCURVE",
"639 235 CURVE SMOOTH",
"626 210 OFFCURVE",
"609 187 OFFCURVE",
"590 167 CURVE SMOOTH",
"589 166 OFFCURVE",
"588 165 OFFCURVE",
"587 165 CURVE",
"547 144 OFFCURVE",
"530 99 OFFCURVE",
"501 66 CURVE SMOOTH",
"482 44 OFFCURVE",
"462 35 OFFCURVE",
"436 38 CURVE SMOOTH",
"433 38 OFFCURVE",
"429 38 OFFCURVE",
"428 41 CURVE SMOOTH",
"417 66 OFFCURVE",
"393 77 OFFCURVE",
"380 99 CURVE SMOOTH",
"352 142 OFFCURVE",
"331 188 OFFCURVE",
"310 235 CURVE SMOOTH",
"307 241 OFFCURVE",
"306 247 OFFCURVE",
"301 251 CURVE",
"295 247 OFFCURVE",
"297 240 OFFCURVE",
"296 234 CURVE",
"294 183 OFFCURVE",
"294 132 OFFCURVE",
"295 81 CURVE SMOOTH",
"296 39 OFFCURVE",
"298 -4 OFFCURVE",
"277 -44 CURVE SMOOTH",
"270 -57 OFFCURVE",
"261 -67 OFFCURVE",
"249 -71 CURVE SMOOTH",
"228 -79 OFFCURVE",
"207 -78 OFFCURVE",
"185 -75 CURVE SMOOTH",
"176 -73 OFFCURVE",
"168 -68 OFFCURVE",
"163 -59 CURVE SMOOTH",
"132 -4 OFFCURVE",
"109 53 OFFCURVE",
"112 119 CURVE SMOOTH",
"113 149 OFFCURVE",
"107 177 OFFCURVE",
"100 205 CURVE SMOOTH",
"81 274 OFFCURVE",
"83 344 OFFCURVE",
"90 414 CURVE SMOOTH",
"93 441 OFFCURVE",
"94 469 OFFCURVE",
"93 497 CURVE SMOOTH",
"92 524 OFFCURVE",
"91 551 OFFCURVE",
"101 577 CURVE SMOOTH",
"111 605 OFFCURVE",
"113 634 OFFCURVE",
"113 663 CURVE SMOOTH",
"113 679 OFFCURVE",
"114 694 OFFCURVE",
"116 709 CURVE SMOOTH",
"121 744 OFFCURVE",
"139 766 OFFCURVE",
"170 778 CURVE SMOOTH",
"211 794 OFFCURVE",
"253 797 OFFCURVE",
"296 800 CURVE SMOOTH",
"338 803 OFFCURVE",
"379 800 OFFCURVE",
"420 789 CURVE SMOOTH",
"431 786 OFFCURVE",
"442 790 OFFCURVE",
"452 795 CURVE SMOOTH",
"464 801 OFFCURVE",
"477 804 OFFCURVE",
"490 802 CURVE SMOOTH",
"516 796 OFFCURVE",
"541 799 OFFCURVE",
"567 799 CURVE SMOOTH",
"637 796 OFFCURVE",
"691 739 OFFCURVE",
"693 662 CURVE SMOOTH",
"694 626 OFFCURVE",
"691 590 OFFCURVE",
"678 555 CURVE SMOOTH",
"663 514 OFFCURVE",
"637 488 OFFCURVE",
"600 474 CURVE SMOOTH",
"579 467 OFFCURVE",
"558 461 OFFCURVE",
"537 455 CURVE"
);
},
{
closed = 1;
nodes = (
"284 489 OFFCURVE",
"292 508 OFFCURVE",
"300 527 CURVE",
"301 532 OFFCURVE",
"302 536 OFFCURVE",
"300 540 CURVE SMOOTH",
"293 556 OFFCURVE",
"287 571 OFFCURVE",
"281 586 CURVE SMOOTH",
"280 589 OFFCURVE",
"279 594 OFFCURVE",
"274 591 CURVE",
"271 590 OFFCURVE",
"271 586 OFFCURVE",
"272 583 CURVE",
"274 564 OFFCURVE",
"270 546 OFFCURVE",
"269 527 CURVE SMOOTH",
"268 508 OFFCURVE",
"269 488 OFFCURVE",
"274 466 CURVE"
);
},
{
closed = 1;
nodes = (
"317 602 OFFCURVE",
"308 601 OFFCURVE",
"300 600 CURVE SMOOTH",
"295 599 OFFCURVE",
"290 596 OFFCURVE",
"292 591 CURVE SMOOTH",
"297 573 OFFCURVE",
"301 554 OFFCURVE",
"312 540 CURVE SMOOTH",
"316 536 OFFCURVE",
"321 536 OFFCURVE",
"326 537 CURVE SMOOTH",
"345 542 OFFCURVE",
"364 546 OFFCURVE",
"382 551 CURVE SMOOTH",
"398 557 OFFCURVE",
"399 565 OFFCURVE",
"387 578 CURVE SMOOTH",
"370 595 OFFCURVE",
"348 599 OFFCURVE",
"325 603 CURVE"
);
},
{
closed = 1;
nodes = (
"287 454 OFFCURVE",
"291 448 OFFCURVE",
"300 445 CURVE",
"307 444 OFFCURVE",
"314 442 OFFCURVE",
"321 439 CURVE SMOOTH",
"335 434 OFFCURVE",
"345 438 OFFCURVE",
"354 450 CURVE SMOOTH",
"370 472 OFFCURVE",
"381 496 OFFCURVE",
"394 519 CURVE SMOOTH",
"396 523 OFFCURVE",
"397 527 OFFCURVE",
"397 531 CURVE",
"399 542 OFFCURVE",
"397 547 OFFCURVE",
"385 544 CURVE SMOOTH",
"363 538 OFFCURVE",
"341 531 OFFCURVE",
"318 528 CURVE SMOOTH",
"313 527 OFFCURVE",
"309 525 OFFCURVE",
"307 520 CURVE SMOOTH",
"299 503 OFFCURVE",
"293 484 OFFCURVE",
"288 465 CURVE"
);
},
{
closed = 1;
nodes = (
"408 536 OFFCURVE",
"408 526 OFFCURVE",
"405 520 CURVE SMOOTH",
"391 494 OFFCURVE",
"380 468 OFFCURVE",
"362 445 CURVE SMOOTH",
"351 431 OFFCURVE",
"338 427 OFFCURVE",
"322 431 CURVE SMOOTH",
"313 433 OFFCURVE",
"304 437 OFFCURVE",
"295 438 CURVE SMOOTH",
"274 442 OFFCURVE",
"265 456 OFFCURVE",
"262 478 CURVE SMOOTH",
"258 504 OFFCURVE",
"259 529 OFFCURVE",
"262 554 CURVE SMOOTH",
"264 567 OFFCURVE",
"264 579 OFFCURVE",
"259 591 CURVE SMOOTH",
"256 597 OFFCURVE",
"254 603 OFFCURVE",
"267 602 CURVE SMOOTH",
"281 601 OFFCURVE",
"295 607 OFFCURVE",
"309 609 CURVE SMOOTH",
"337 613 OFFCURVE",
"363 606 OFFCURVE",
"386 590 CURVE SMOOTH",
"401 579 OFFCURVE",
"410 564 OFFCURVE",
"409 540 CURVE"
);
}
);
vertWidth = 1000;
width = 820;
}
);
note = cid00051;
unicode = 0052;
},
{
glyphname = S;
lastChange = "2020-11-05 19:14:31 +0000";
layers = (
{
layerId = "FAEB3F87-0FE7-4D5C-BA65-CB0BBFD78DC9";
paths = (
{
closed = 1;
nodes = (
"411 598 OFFCURVE",
"459 620 OFFCURVE",
"468 647 CURVE",
"436 633 OFFCURVE",
"400 633 OFFCURVE",
"372 603 CURVE"
);
},
{
closed = 1;
nodes = (
"226 478 OFFCURVE",
"273 422 OFFCURVE",
"324 417 CURVE",
"280 446 OFFCURVE",
"253 485 OFFCURVE",
"227 527 CURVE"
);
},
{
closed = 1;
nodes = (
"91 36 OFFCURVE",
"105 -23 OFFCURVE",
"144 -30 CURVE",
"133 10 OFFCURVE",
"123 50 OFFCURVE",
"116 92 CURVE"
);
},
{
closed = 1;
nodes = (
"195 406 OFFCURVE",
"173 384 OFFCURVE",
"172 355 CURVE SMOOTH",
"172 346 OFFCURVE",
"171 334 OFFCURVE",
"185 336 CURVE SMOOTH",
"200 338 OFFCURVE",
"214 340 OFFCURVE",
"228 344 CURVE SMOOTH",
"242 348 OFFCURVE",
"251 375 OFFCURVE",
"248 394 CURVE SMOOTH",
"246 409 OFFCURVE",
"235 406 OFFCURVE",
"226 406 CURVE SMOOTH"
);
},
{
closed = 1;
nodes = (
"665 377 OFFCURVE",
"645 400 OFFCURVE",
"617 412 CURVE SMOOTH",
"556 439 OFFCURVE",
"504 482 OFFCURVE",
"450 521 CURVE SMOOTH",
"435 531 OFFCURVE",
"428 546 OFFCURVE",
"424 563 CURVE SMOOTH",
"422 574 OFFCURVE",
"433 590 OFFCURVE",
"422 594 CURVE",
"413 599 OFFCURVE",
"399 592 OFFCURVE",
"387 590 CURVE",
"385 589 OFFCURVE",
"384 589 OFFCURVE",
"382 589 CURVE SMOOTH",
"365 586 OFFCURVE",
"363 576 OFFCURVE",
"369 562 CURVE SMOOTH",
"374 553 OFFCURVE",
"379 544 OFFCURVE",
"388 539 CURVE SMOOTH",
"414 521 OFFCURVE",
"439 499 OFFCURVE",
"468 486 CURVE SMOOTH",
"506 468 OFFCURVE",
"539 443 OFFCURVE",
"565 413 CURVE SMOOTH",
"597 376 OFFCURVE",
"643 372 OFFCURVE",
"683 353 CURVE"
);
},
{
closed = 1;
nodes = (
"739 296 OFFCURVE",
"728 317 OFFCURVE",
"712 323 CURVE SMOOTH",
"679 338 OFFCURVE",
"646 355 OFFCURVE",
"611 367 CURVE SMOOTH",
"591 373 OFFCURVE",
"574 385 OFFCURVE",
"559 400 CURVE SMOOTH",
"534 425 OFFCURVE",
"510 452 OFFCURVE",
"477 467 CURVE SMOOTH",
"442 484 OFFCURVE",
"412 510 OFFCURVE",
"378 530 CURVE SMOOTH",
"367 537 OFFCURVE",
"360 549 OFFCURVE",
"355 561 CURVE SMOOTH",
"352 567 OFFCURVE",
"352 576 OFFCURVE",
"344 577 CURVE SMOOTH",
"334 577 OFFCURVE",
"328 570 OFFCURVE",
"324 563 CURVE SMOOTH",
"315 547 OFFCURVE",
"310 529 OFFCURVE",
"322 515 CURVE SMOOTH",
"350 484 OFFCURVE",
"373 448 OFFCURVE",
"410 427 CURVE SMOOTH",
"458 401 OFFCURVE",
"493 363 OFFCURVE",
"521 319 CURVE SMOOTH",
"545 282 OFFCURVE",
"563 242 OFFCURVE",
"565 197 CURVE SMOOTH",
"567 165 OFFCURVE",
"560 134 OFFCURVE",
"554 103 CURVE SMOOTH",
"550 87 OFFCURVE",
"553 83 OFFCURVE",
"570 86 CURVE SMOOTH",
"657 100 OFFCURVE",
"702 159 OFFCURVE",
"731 235 CURVE SMOOTH",
"735 247 OFFCURVE",
"740 261 OFFCURVE",
"739 275 CURVE SMOOTH"
);
},
{
closed = 1;
nodes = (
"117 150 OFFCURVE",
"123 135 OFFCURVE",
"126 119 CURVE SMOOTH",
"134 77 OFFCURVE",
"137 34 OFFCURVE",
"151 -7 CURVE SMOOTH",
"160 -34 OFFCURVE",
"177 -54 OFFCURVE",
"206 -59 CURVE SMOOTH",
"232 -64 OFFCURVE",
"259 -65 OFFCURVE",
"286 -63 CURVE SMOOTH",
"335 -60 OFFCURVE",
"379 -43 OFFCURVE",
"422 -23 CURVE SMOOTH",
"461 -6 OFFCURVE",
"503 10 OFFCURVE",
"522 50 CURVE SMOOTH",
"588 186 OFFCURVE",
"548 303 OFFCURVE",
"439 393 CURVE SMOOTH",
"398 427 OFFCURVE",
"354 456 OFFCURVE",
"320 498 CURVE SMOOTH",
"293 532 OFFCURVE",
"298 568 OFFCURVE",
"338 588 CURVE SMOOTH",
"344 591 OFFCURVE",
"349 593 OFFCURVE",
"353 599 CURVE SMOOTH",
"369 622 OFFCURVE",
"394 633 OFFCURVE",
"420 641 CURVE SMOOTH",
"431 645 OFFCURVE",
"443 649 OFFCURVE",
"454 653 CURVE SMOOTH",
"480 663 OFFCURVE",
"485 675 OFFCURVE",
"473 699 CURVE SMOOTH",
"460 724 OFFCURVE",
"445 748 OFFCURVE",
"424 766 CURVE SMOOTH",
"385 798 OFFCURVE",
"319 799 OFFCURVE",
"285 769 CURVE SMOOTH",
"223 714 OFFCURVE",
"210 605 OFFCURVE",
"239 538 CURVE SMOOTH",
"259 491 OFFCURVE",
"291 451 OFFCURVE",
"337 426 CURVE SMOOTH",
"368 409 OFFCURVE",
"391 384 OFFCURVE",
"415 359 CURVE SMOOTH",
"443 329 OFFCURVE",
"459 296 OFFCURVE",
"458 254 CURVE SMOOTH",
"457 186 OFFCURVE",
"379 125 OFFCURVE",
"309 126 CURVE SMOOTH",
"284 127 OFFCURVE",
"268 137 OFFCURVE",
"260 159 CURVE SMOOTH",
"256 169 OFFCURVE",
"253 178 OFFCURVE",
"251 188 CURVE SMOOTH",
"245 228 OFFCURVE",
"241 269 OFFCURVE",
"240 310 CURVE SMOOTH",
"240 320 OFFCURVE",
"240 332 OFFCURVE",
"226 331 CURVE SMOOTH",
"184 329 OFFCURVE",
"138 310 OFFCURVE",
"129 261 CURVE SMOOTH",
"123 230 OFFCURVE",
"122 198 OFFCURVE",
"118 167 CURVE SMOOTH"
);
},
{
closed = 1;
nodes = (
"97 88 OFFCURVE",
"105 138 OFFCURVE",
"107 189 CURVE SMOOTH",
"108 204 OFFCURVE",
"111 219 OFFCURVE",
"111 235 CURVE SMOOTH",
"114 282 OFFCURVE",
"141 320 OFFCURVE",
"156 362 CURVE",
"157 367 OFFCURVE",
"160 370 OFFCURVE",
"162 374 CURVE SMOOTH",
"181 411 OFFCURVE",
"205 423 OFFCURVE",
"246 418 CURVE SMOOTH",
"257 417 OFFCURVE",
"263 411 OFFCURVE",
"263 401 CURVE SMOOTH",
"263 391 OFFCURVE",
"264 380 OFFCURVE",
"261 371 CURVE SMOOTH",
"244 307 OFFCURVE",
"259 243 OFFCURVE",
"267 180 CURVE SMOOTH",
"271 144 OFFCURVE",
"290 133 OFFCURVE",
"325 139 CURVE SMOOTH",
"394 149 OFFCURVE",
"444 199 OFFCURVE",
"445 261 CURVE SMOOTH",
"445 289 OFFCURVE",
"439 315 OFFCURVE",
"417 335 CURVE SMOOTH",
"413 339 OFFCURVE",
"409 344 OFFCURVE",
"406 349 CURVE SMOOTH",
"385 378 OFFCURVE",
"361 399 OFFCURVE",
"321 404 CURVE SMOOTH",
"241 413 OFFCURVE",
"203 504 OFFCURVE",
"207 561 CURVE SMOOTH",
"209 597 OFFCURVE",
"210 633 OFFCURVE",
"219 668 CURVE SMOOTH",
"228 704 OFFCURVE",
"244 735 OFFCURVE",
"264 766 CURVE SMOOTH",
"273 779 OFFCURVE",
"284 787 OFFCURVE",
"300 791 CURVE SMOOTH",
"323 797 OFFCURVE",
"344 806 OFFCURVE",
"367 809 CURVE SMOOTH",
"397 812 OFFCURVE",
"424 805 OFFCURVE",
"447 787 CURVE SMOOTH",
"476 764 OFFCURVE",
"496 734 OFFCURVE",
"512 701 CURVE SMOOTH",
"518 689 OFFCURVE",
"516 679 OFFCURVE",
"505 669 CURVE SMOOTH",
"485 648 OFFCURVE",
"469 623 OFFCURVE",
"449 602 CURVE SMOOTH",
"429 581 OFFCURVE",
"437 546 OFFCURVE",
"462 528 CURVE SMOOTH",
"513 491 OFFCURVE",
"562 451 OFFCURVE",
"620 425 CURVE SMOOTH",
"647 413 OFFCURVE",
"667 393 OFFCURVE",
"687 372 CURVE SMOOTH",
"702 356 OFFCURVE",
"716 339 OFFCURVE",
"733 324 CURVE SMOOTH",
"753 305 OFFCURVE",
"756 278 OFFCURVE",
"749 253 CURVE SMOOTH",
"725 164 OFFCURVE",
"674 99 OFFCURVE",
"580 77 CURVE SMOOTH",
"558 72 OFFCURVE",
"539 64 OFFCURVE",
"529 42 CURVE SMOOTH",
"526 33 OFFCURVE",
"518 24 OFFCURVE",
"511 19 CURVE SMOOTH",
"417 -53 OFFCURVE",
"314 -90 OFFCURVE",
"195 -69 CURVE SMOOTH",
"165 -63 OFFCURVE",
"140 -49 OFFCURVE",
"117 -31 CURVE SMOOTH",
"94 -13 OFFCURVE",
"92 12 OFFCURVE",
"92 38 CURVE"
);
}
);
vertWidth = 1000;
width = 860;
}
);
note = cid00052;
unicode = 0053;
},
{
glyphname = T;
lastChange = "2020-11-05 19:14:31 +0000";
layers = (
{
layerId = "FAEB3F87-0FE7-4D5C-BA65-CB0BBFD78DC9";
paths = (
{
closed = 1;
nodes = (
"512 672 OFFCURVE",
"507 666 OFFCURVE",
"503 657 CURVE SMOOTH",
"489 625 OFFCURVE",
"467 600 OFFCURVE",
"439 580 CURVE",
"435 578 OFFCURVE",
"432 575 OFFCURVE",
"431 570 CURVE SMOOTH",
"426 537 OFFCURVE",
"422 502 OFFCURVE",
"424 467 CURVE SMOOTH",
"425 455 OFFCURVE",
"433 448 OFFCURVE",
"446 450 CURVE SMOOTH",
"493 457 OFFCURVE",
"540 464 OFFCURVE",
"586 473 CURVE SMOOTH",
"605 476 OFFCURVE",
"615 487 OFFCURVE",
"610 509 CURVE SMOOTH",
"607 523 OFFCURVE",
"603 536 OFFCURVE",
"597 548 CURVE SMOOTH",
"578 589 OFFCURVE",
"564 633 OFFCURVE",
"523 662 CURVE"
);
},
{
closed = 1;
nodes = (
"394 544 OFFCURVE",
"390 520 OFFCURVE",
"388 496 CURVE SMOOTH",
"380 413 OFFCURVE",
"374 331 OFFCURVE",
"373 248 CURVE SMOOTH",
"373 170 OFFCURVE",
"377 93 OFFCURVE",
"390 16 CURVE SMOOTH",
"392 5 OFFCURVE",
"395 -4 OFFCURVE",
"408 -9 CURVE SMOOTH",
"448 -22 OFFCURVE",
"488 -37 OFFCURVE",
"530 -44 CURVE SMOOTH",
"554 -47 OFFCURVE",
"559 -44 OFFCURVE",
"556 -21 CURVE SMOOTH",
"548 37 OFFCURVE",
"544 96 OFFCURVE",
"540 155 CURVE SMOOTH",
"534 249 OFFCURVE",
"529 342 OFFCURVE",
"529 436 CURVE SMOOTH",
"529 448 OFFCURVE",
"525 451 OFFCURVE",
"514 449 CURVE SMOOTH",
"502 446 OFFCURVE",
"489 443 OFFCURVE",
"477 440 CURVE SMOOTH",
"423 428 OFFCURVE",
"402 445 OFFCURVE",
"407 500 CURVE SMOOTH",
"409 521 OFFCURVE",
"411 542 OFFCURVE",
"407 564 CURVE"
);
},
{
closed = 1;
nodes = (
"125 712 OFFCURVE",
"111 649 OFFCURVE",
"87 592 CURVE SMOOTH",
"73 559 OFFCURVE",
"76 557 OFFCURVE",
"115 553 CURVE SMOOTH",
"152 549 OFFCURVE",
"188 551 OFFCURVE",
"225 551 CURVE SMOOTH",
"244 551 OFFCURVE",
"248 544 OFFCURVE",
"239 528 CURVE SMOOTH",
"225 503 OFFCURVE",
"221 476 OFFCURVE",
"220 447 CURVE SMOOTH",
"219 404 OFFCURVE",
"216 361 OFFCURVE",
"216 317 CURVE SMOOTH",
"216 244 OFFCURVE",
"210 172 OFFCURVE",
"210 100 CURVE SMOOTH",
"210 46 OFFCURVE",
"226 -3 OFFCURVE",
"281 -33 CURVE SMOOTH",
"305 -47 OFFCURVE",
"332 -54 OFFCURVE",
"358 -63 CURVE SMOOTH",
"386 -72 OFFCURVE",
"389 -69 OFFCURVE",
"384 -41 CURVE SMOOTH",
"361 75 OFFCURVE",
"357 191 OFFCURVE",
"358 306 CURVE SMOOTH",
"359 356 OFFCURVE",
"363 407 OFFCURVE",
"368 456 CURVE SMOOTH",
"371 490 OFFCURVE",
"372 524 OFFCURVE",
"381 557 CURVE SMOOTH",
"385 571 OFFCURVE",
"392 581 OFFCURVE",
"408 585 CURVE SMOOTH",
"448 596 OFFCURVE",
"469 626 OFFCURVE",
"485 660 CURVE SMOOTH",
"499 691 OFFCURVE",
"497 694 OFFCURVE",
"463 709 CURVE SMOOTH",
"457 711 OFFCURVE",
"451 714 OFFCURVE",
"445 717 CURVE SMOOTH",
"376 751 OFFCURVE",
"304 778 OFFCURVE",
"233 807 CURVE SMOOTH",
"205 818 OFFCURVE",
"205 817 OFFCURVE",
"191 795 CURVE SMOOTH",
"183 783 OFFCURVE",
"175 771 OFFCURVE",
"167 760 CURVE"
);
},
{
closed = 1;
nodes = (
"144 756 OFFCURVE",
"169 780 OFFCURVE",
"183 812 CURVE SMOOTH",
"190 829 OFFCURVE",
"200 832 OFFCURVE",
"221 824 CURVE SMOOTH",
"302 791 OFFCURVE",
"384 760 OFFCURVE",
"464 722 CURVE SMOOTH",
"485 712 OFFCURVE",
"507 703 OFFCURVE",
"521 681 CURVE SMOOTH",
"528 669 OFFCURVE",
"542 661 OFFCURVE",
"551 651 CURVE SMOOTH",
"593 607 OFFCURVE",
"612 553 OFFCURVE",
"627 499 CURVE SMOOTH",
"631 483 OFFCURVE",
"625 472 OFFCURVE",
"609 466 CURVE SMOOTH",
"594 461 OFFCURVE",
"579 455 OFFCURVE",
"563 455 CURVE SMOOTH",
"546 454 OFFCURVE",
"540 446 OFFCURVE",
"540 431 CURVE SMOOTH",
"541 411 OFFCURVE",
"543 391 OFFCURVE",
"544 370 CURVE SMOOTH",
"547 303 OFFCURVE",
"550 235 OFFCURVE",
"554 167 CURVE SMOOTH",
"557 104 OFFCURVE",
"560 42 OFFCURVE",
"570 -20 CURVE",
"571 -23 OFFCURVE",
"571 -25 OFFCURVE",
"571 -28 CURVE SMOOTH",
"574 -60 OFFCURVE",
"571 -62 OFFCURVE",
"537 -59 CURVE SMOOTH",
"499 -55 OFFCURVE",
"462 -40 OFFCURVE",
"425 -30 CURVE SMOOTH",
"397 -23 OFFCURVE",
"395 -24 OFFCURVE",
"400 -50 CURVE SMOOTH",
"401 -57 OFFCURVE",
"402 -64 OFFCURVE",
"402 -71 CURVE SMOOTH",
"403 -81 OFFCURVE",
"397 -85 OFFCURVE",
"387 -83 CURVE SMOOTH",
"338 -71 OFFCURVE",
"286 -60 OFFCURVE",
"246 -23 CURVE SMOOTH",
"209 9 OFFCURVE",
"194 52 OFFCURVE",
"195 97 CURVE SMOOTH",
"196 166 OFFCURVE",
"202 234 OFFCURVE",
"206 303 CURVE SMOOTH",
"208 355 OFFCURVE",
"206 407 OFFCURVE",
"209 460 CURVE SMOOTH",
"210 481 OFFCURVE",
"215 500 OFFCURVE",
"222 519 CURVE SMOOTH",
"228 536 OFFCURVE",
"222 539 OFFCURVE",
"207 538 CURVE SMOOTH",
"166 535 OFFCURVE",
"126 539 OFFCURVE",
"85 545 CURVE SMOOTH",
"68 548 OFFCURVE",
"60 558 OFFCURVE",
"65 572 CURVE SMOOTH",
"82 620 OFFCURVE",
"95 670 OFFCURVE",
"120 715 CURVE SMOOTH",
"122 719 OFFCURVE",
"125 722 OFFCURVE",
"127 726 CURVE SMOOTH"
);
}
);
vertWidth = 1000;
width = 780;
}
);
note = cid00053;
unicode = 0054;
},
{
glyphname = U;
lastChange = "2020-11-05 19:14:31 +0000";
layers = (
{
layerId = "FAEB3F87-0FE7-4D5C-BA65-CB0BBFD78DC9";
paths = (
{
closed = 1;
nodes = (
"91 435 OFFCURVE",
"94 393 OFFCURVE",
"93 352 CURVE SMOOTH",
"92 312 OFFCURVE",
"78 272 OFFCURVE",
"90 231 CURVE",
"103 312 OFFCURVE",
"96 394 OFFCURVE",
"102 475 CURVE"
);
},
{
closed = 1;
nodes = (
"493 328 OFFCURVE",
"492 237 OFFCURVE",
"494 145 CURVE",
"498 236 OFFCURVE",
"511 327 OFFCURVE",
"505 419 CURVE"
);
},
{
closed = 1;
nodes = (
"382 -34 OFFCURVE",
"351 -40 OFFCURVE",
"318 -42 CURVE SMOOTH",
"287 -44 OFFCURVE",
"256 -42 OFFCURVE",
"222 -30 CURVE",
"282 -86 OFFCURVE",
"379 -80 OFFCURVE",
"416 -16 CURVE"
);
},
{
closed = 1;
nodes = (
"166 680 OFFCURVE",
"168 678 OFFCURVE",
"182 677 CURVE SMOOTH",
"222 673 OFFCURVE",
"248 684 OFFCURVE",
"250 705 CURVE SMOOTH",
"252 728 OFFCURVE",
"243 740 OFFCURVE",
"224 742 CURVE SMOOTH",
"190 745 OFFCURVE",
"171 728 OFFCURVE",
"168 695 CURVE SMOOTH"
);
},
{
closed = 1;
nodes = (
"613 802 OFFCURVE",
"598 812 OFFCURVE",
"557 792 CURVE SMOOTH",
"555 791 OFFCURVE",
"553 790 OFFCURVE",
"551 788 CURVE",
"528 775 OFFCURVE",
"522 756 OFFCURVE",
"531 728 CURVE SMOOTH",
"540 703 OFFCURVE",
"559 717 OFFCURVE",
"573 719 CURVE SMOOTH",
"608 723 OFFCURVE",
"610 726 OFFCURVE",
"611 756 CURVE SMOOTH"
);
},
{
closed = 1;
nodes = (
"504 91 OFFCURVE",
"507 88 OFFCURVE",
"540 91 CURVE SMOOTH",
"554 93 OFFCURVE",
"569 95 OFFCURVE",
"584 98 CURVE SMOOTH",
"607 103 OFFCURVE",
"621 117 OFFCURVE",
"627 142 CURVE SMOOTH",
"636 186 OFFCURVE",
"638 230 OFFCURVE",
"644 275 CURVE SMOOTH",
"651 330 OFFCURVE",
"656 386 OFFCURVE",
"653 441 CURVE SMOOTH",
"648 528 OFFCURVE",
"645 614 OFFCURVE",
"662 699 CURVE SMOOTH",
"666 720 OFFCURVE",
"657 729 OFFCURVE",
"636 723 CURVE SMOOTH",
"621 718 OFFCURVE",
"607 712 OFFCURVE",
"591 710 CURVE SMOOTH",
"586 709 OFFCURVE",
"581 705 OFFCURVE",
"579 700 CURVE SMOOTH",
"546 626 OFFCURVE",
"511 553 OFFCURVE",
"520 468 CURVE SMOOTH",
"523 435 OFFCURVE",
"525 401 OFFCURVE",
"523 367 CURVE SMOOTH",
"517 286 OFFCURVE",
"518 204 OFFCURVE",
"507 126 CURVE SMOOTH"
);
},
{
closed = 1;
nodes = (
"94 101 OFFCURVE",
"139 33 OFFCURVE",
"223 -14 CURVE SMOOTH",
"261 -36 OFFCURVE",
"302 -30 OFFCURVE",
"343 -28 CURVE SMOOTH",
"402 -24 OFFCURVE",
"461 34 OFFCURVE",
"471 91 CURVE SMOOTH",
"478 130 OFFCURVE",
"479 169 OFFCURVE",
"478 208 CURVE SMOOTH",
"478 293 OFFCURVE",
"486 377 OFFCURVE",
"491 461 CURVE SMOOTH",
"491 465 OFFCURVE",
"492 469 OFFCURVE",
"493 473 CURVE SMOOTH",
"507 546 OFFCURVE",
"525 617 OFFCURVE",
"557 684 CURVE SMOOTH",
"566 701 OFFCURVE",
"562 707 OFFCURVE",
"543 704 CURVE SMOOTH",
"522 700 OFFCURVE",
"501 696 OFFCURVE",
"480 692 CURVE SMOOTH",
"467 690 OFFCURVE",
"460 682 OFFCURVE",
"456 670 CURVE SMOOTH",
"437 607 OFFCURVE",
"423 543 OFFCURVE",
"423 478 CURVE SMOOTH",
"422 404 OFFCURVE",
"412 331 OFFCURVE",
"404 258 CURVE SMOOTH",
"398 208 OFFCURVE",
"376 167 OFFCURVE",
"335 136 CURVE SMOOTH",
"301 111 OFFCURVE",
"246 123 OFFCURVE",
"237 160 CURVE SMOOTH",
"217 233 OFFCURVE",
"206 309 OFFCURVE",
"215 384 CURVE SMOOTH",
"224 464 OFFCURVE",
"224 545 OFFCURVE",
"234 625 CURVE SMOOTH",
"239 672 OFFCURVE",
"239 669 OFFCURVE",
"191 668 CURVE SMOOTH",
"145 667 OFFCURVE",
"126 634 OFFCURVE",
"122 597 CURVE SMOOTH",
"117 560 OFFCURVE",
"119 522 OFFCURVE",
"117 485 CURVE SMOOTH",
"113 390 OFFCURVE",
"115 295 OFFCURVE",
"105 206 CURVE SMOOTH"
);
},
{
closed = 1;
nodes = (
"276 -77 OFFCURVE",
"246 -69 OFFCURVE",
"218 -47 CURVE SMOOTH",
"186 -21 OFFCURVE",
"152 0 OFFCURVE",
"130 38 CURVE SMOOTH",
"107 78 OFFCURVE",
"94 119 OFFCURVE",
"92 165 CURVE SMOOTH",
"92 171 OFFCURVE",
"93 178 OFFCURVE",
"90 183 CURVE SMOOTH",
"65 226 OFFCURVE",
"72 272 OFFCURVE",
"76 318 CURVE SMOOTH",
"80 367 OFFCURVE",
"79 416 OFFCURVE",
"85 464 CURVE SMOOTH",
"92 518 OFFCURVE",
"104 572 OFFCURVE",
"114 626 CURVE SMOOTH",
"114 627 OFFCURVE",
"114 629 OFFCURVE",
"115 630 CURVE",
"134 660 OFFCURVE",
"156 686 OFFCURVE",
"162 724 CURVE SMOOTH",
"166 749 OFFCURVE",
"226 762 OFFCURVE",
"249 747 CURVE SMOOTH",
"268 734 OFFCURVE",
"269 713 OFFCURVE",
"263 696 CURVE SMOOTH",
"242 633 OFFCURVE",
"242 568 OFFCURVE",
"239 503 CURVE SMOOTH",
"237 460 OFFCURVE",
"229 419 OFFCURVE",
"227 376 CURVE SMOOTH",
"222 304 OFFCURVE",
"230 232 OFFCURVE",
"249 162 CURVE SMOOTH",
"257 135 OFFCURVE",
"300 127 OFFCURVE",
"327 147 CURVE SMOOTH",
"370 181 OFFCURVE",
"387 227 OFFCURVE",
"394 279 CURVE SMOOTH",
"402 341 OFFCURVE",
"410 402 OFFCURVE",
"411 464 CURVE SMOOTH",
"412 533 OFFCURVE",
"424 601 OFFCURVE",
"441 668 CURVE SMOOTH",
"446 691 OFFCURVE",
"462 698 OFFCURVE",
"481 702 CURVE SMOOTH",
"516 709 OFFCURVE",
"517 710 OFFCURVE",
"512 745 CURVE SMOOTH",
"510 767 OFFCURVE",
"517 782 OFFCURVE",
"536 792 CURVE SMOOTH",
"543 796 OFFCURVE",
"549 800 OFFCURVE",
"556 803 CURVE SMOOTH",
"606 825 OFFCURVE",
"628 811 OFFCURVE",
"626 757 CURVE SMOOTH",
"626 738 OFFCURVE",
"629 732 OFFCURVE",
"649 735 CURVE SMOOTH",
"671 738 OFFCURVE",
"683 726 OFFCURVE",
"678 707 CURVE SMOOTH",
"657 616 OFFCURVE",
"660 524 OFFCURVE",
"665 433 CURVE SMOOTH",
"669 357 OFFCURVE",
"658 282 OFFCURVE",
"649 208 CURVE SMOOTH",
"646 184 OFFCURVE",
"645 159 OFFCURVE",
"639 136 CURVE SMOOTH",
"633 109 OFFCURVE",
"617 93 OFFCURVE",
"591 87 CURVE SMOOTH",
"570 82 OFFCURVE",
"549 79 OFFCURVE",
"528 79 CURVE SMOOTH",
"512 78 OFFCURVE",
"501 72 OFFCURVE",
"498 56 CURVE SMOOTH",
"496 45 OFFCURVE",
"491 35 OFFCURVE",
"483 30 CURVE SMOOTH",
"455 11 OFFCURVE",
"436 -14 OFFCURVE",
"417 -41 CURVE SMOOTH",
"393 -73 OFFCURVE",
"358 -84 OFFCURVE",
"304 -81 CURVE"
);
}
);
vertWidth = 1000;
width = 800;
}
);
note = cid00054;
unicode = 0055;
},
{
glyphname = V;
lastChange = "2020-11-05 19:14:31 +0000";
layers = (
{
layerId = "FAEB3F87-0FE7-4D5C-BA65-CB0BBFD78DC9";
paths = (
{
closed = 1;
nodes = (
"62 596 OFFCURVE",
"65 593 OFFCURVE",
"123 609 CURVE SMOOTH",
"132 612 OFFCURVE",
"140 614 OFFCURVE",
"149 617 CURVE SMOOTH",
"157 619 OFFCURVE",
"166 622 OFFCURVE",
"169 633 CURVE SMOOTH",
"179 665 OFFCURVE",
"185 698 OFFCURVE",
"181 733 CURVE SMOOTH",
"180 741 OFFCURVE",
"178 749 OFFCURVE",
"169 753 CURVE SMOOTH",
"136 768 OFFCURVE",
"83 740 OFFCURVE",
"75 701 CURVE SMOOTH",
"72 688 OFFCURVE",
"70 674 OFFCURVE",
"68 660 CURVE SMOOTH"
);
},
{
closed = 1;
nodes = (
"380 628 OFFCURVE",
"378 610 OFFCURVE",
"376 592 CURVE SMOOTH",
"375 581 OFFCURVE",
"377 574 OFFCURVE",
"391 575 CURVE SMOOTH",
"444 581 OFFCURVE",
"497 590 OFFCURVE",
"548 610 CURVE SMOOTH",
"565 617 OFFCURVE",
"581 627 OFFCURVE",
"582 650 CURVE SMOOTH",
"585 697 OFFCURVE",
"580 742 OFFCURVE",
"556 783 CURVE SMOOTH",
"551 791 OFFCURVE",
"545 798 OFFCURVE",
"535 796 CURVE SMOOTH",
"490 791 OFFCURVE",
"446 786 OFFCURVE",
"403 770 CURVE SMOOTH",
"386 765 OFFCURVE",
"381 753 OFFCURVE",
"384 735 CURVE SMOOTH",
"388 705 OFFCURVE",
"388 675 OFFCURVE",
"382 652 CURVE"
);
},
{
closed = 1;
nodes = (
"361 621 OFFCURVE",
"363 640 OFFCURVE",
"365 659 CURVE SMOOTH",
"367 672 OFFCURVE",
"363 683 OFFCURVE",
"351 688 CURVE SMOOTH",
"309 706 OFFCURVE",
"270 730 OFFCURVE",
"230 751 CURVE SMOOTH",
"207 763 OFFCURVE",
"200 757 OFFCURVE",
"198 730 CURVE SMOOTH",
"195 690 OFFCURVE",
"194 649 OFFCURVE",
"178 611 CURVE SMOOTH",
"175 603 OFFCURVE",
"176 596 OFFCURVE",
"179 589 CURVE",
"195 528 OFFCURVE",
"212 468 OFFCURVE",
"219 405 CURVE SMOOTH",
"222 374 OFFCURVE",
"236 346 OFFCURVE",
"248 318 CURVE SMOOTH",
"251 311 OFFCURVE",
"253 302 OFFCURVE",
"261 302 CURVE SMOOTH",
"271 302 OFFCURVE",
"274 311 OFFCURVE",
"277 319 CURVE SMOOTH",
"287 345 OFFCURVE",
"295 372 OFFCURVE",
"305 399 CURVE SMOOTH",
"330 465 OFFCURVE",
"358 529 OFFCURVE",
"359 594 CURVE SMOOTH"
);
},
{
closed = 1;
nodes = (
"688 184 OFFCURVE",
"687 211 OFFCURVE",
"686 239 CURVE SMOOTH",
"680 329 OFFCURVE",
"674 419 OFFCURVE",
"667 509 CURVE SMOOTH",
"660 593 OFFCURVE",
"625 672 OFFCURVE",
"625 758 CURVE SMOOTH",
"625 771 OFFCURVE",
"624 787 OFFCURVE",
"605 782 CURVE SMOOTH",
"588 779 OFFCURVE",
"584 768 OFFCURVE",
"588 750 CURVE SMOOTH",
"595 721 OFFCURVE",
"598 691 OFFCURVE",
"599 661 CURVE SMOOTH",
"599 636 OFFCURVE",
"592 615 OFFCURVE",
"569 606 CURVE SMOOTH",
"542 595 OFFCURVE",
"537 575 OFFCURVE",
"539 547 CURVE SMOOTH",
"542 500 OFFCURVE",
"532 456 OFFCURVE",
"507 415 CURVE SMOOTH",
"496 397 OFFCURVE",
"490 375 OFFCURVE",
"483 355 CURVE SMOOTH",
"447 253 OFFCURVE",
"433 143 OFFCURVE",
"377 49 CURVE SMOOTH",
"374 44 OFFCURVE",
"369 37 OFFCURVE",
"373 31 CURVE SMOOTH",
"377 24 OFFCURVE",
"384 28 OFFCURVE",
"390 30 CURVE",
"489 49 OFFCURVE",
"583 87 OFFCURVE",
"674 132 CURVE SMOOTH",
"683 137 OFFCURVE",
"693 143 OFFCURVE",
"693 159 CURVE"
);
},
{
closed = 1;
nodes = (
"522 532 OFFCURVE",
"523 543 OFFCURVE",
"524 554 CURVE SMOOTH",
"529 580 OFFCURVE",
"518 586 OFFCURVE",
"496 581 CURVE SMOOTH",
"469 574 OFFCURVE",
"442 568 OFFCURVE",
"415 566 CURVE SMOOTH",
"384 564 OFFCURVE",
"370 549 OFFCURVE",
"364 517 CURVE SMOOTH",
"347 443 OFFCURVE",
"310 377 OFFCURVE",
"287 306 CURVE SMOOTH",
"285 300 OFFCURVE",
"282 295 OFFCURVE",
"279 291 CURVE SMOOTH",
"267 277 OFFCURVE",
"254 274 OFFCURVE",
"245 293 CURVE SMOOTH",
"225 338 OFFCURVE",
"202 382 OFFCURVE",
"199 433 CURVE SMOOTH",
"196 485 OFFCURVE",
"175 531 OFFCURVE",
"165 580 CURVE SMOOTH",
"162 598 OFFCURVE",
"153 606 OFFCURVE",
"134 600 CURVE SMOOTH",
"117 595 OFFCURVE",
"100 592 OFFCURVE",
"82 589 CURVE SMOOTH",
"67 587 OFFCURVE",
"60 580 OFFCURVE",
"64 563 CURVE SMOOTH",
"70 535 OFFCURVE",
"72 506 OFFCURVE",
"84 481 CURVE SMOOTH",
"126 392 OFFCURVE",
"123 293 OFFCURVE",
"134 197 CURVE SMOOTH",
"144 118 OFFCURVE",
"143 38 OFFCURVE",
"146 -42 CURVE SMOOTH",
"147 -61 OFFCURVE",
"154 -68 OFFCURVE",
"172 -67 CURVE SMOOTH",
"215 -64 OFFCURVE",
"256 -52 OFFCURVE",
"295 -34 CURVE SMOOTH",
"309 -28 OFFCURVE",
"323 -20 OFFCURVE",
"330 -5 CURVE SMOOTH",
"369 70 OFFCURVE",
"412 143 OFFCURVE",
"431 228 CURVE SMOOTH",
"446 296 OFFCURVE",
"465 364 OFFCURVE",
"496 426 CURVE SMOOTH",
"512 456 OFFCURVE",
"521 486 OFFCURVE",
"522 528 CURVE SMOOTH"
);
},
{
closed = 1;
nodes = (
"50 641 OFFCURVE",
"55 666 OFFCURVE",
"59 692 CURVE SMOOTH",
"65 741 OFFCURVE",
"81 759 OFFCURVE",
"128 765 CURVE SMOOTH",
"154 768 OFFCURVE",
"181 766 OFFCURVE",
"207 773 CURVE SMOOTH",
"220 776 OFFCURVE",
"231 768 OFFCURVE",
"241 761 CURVE",
"275 742 OFFCURVE",
"309 722 OFFCURVE",
"345 706 CURVE SMOOTH",
"362 698 OFFCURVE",
"369 700 OFFCURVE",
"368 722 CURVE SMOOTH",
"365 772 OFFCURVE",
"366 774 OFFCURVE",
"411 786 CURVE SMOOTH",
"445 795 OFFCURVE",
"480 801 OFFCURVE",
"515 806 CURVE SMOOTH",
"535 809 OFFCURVE",
"556 810 OFFCURVE",
"572 792 CURVE SMOOTH",
"579 783 OFFCURVE",
"588 790 OFFCURVE",
"596 793 CURVE SMOOTH",
"623 803 OFFCURVE",
"635 796 OFFCURVE",
"641 765 CURVE SMOOTH",
"649 726 OFFCURVE",
"641 684 OFFCURVE",
"653 645 CURVE SMOOTH",
"694 516 OFFCURVE",
"689 381 OFFCURVE",
"701 248 CURVE SMOOTH",
"703 219 OFFCURVE",
"701 188 OFFCURVE",
"708 159 CURVE SMOOTH",
"713 136 OFFCURVE",
"697 127 OFFCURVE",
"683 120 CURVE SMOOTH",
"619 88 OFFCURVE",
"554 57 OFFCURVE",
"485 38 CURVE SMOOTH",
"447 27 OFFCURVE",
"409 14 OFFCURVE",
"369 11 CURVE SMOOTH",
"362 10 OFFCURVE",
"356 8 OFFCURVE",
"353 2 CURVE SMOOTH",
"322 -56 OFFCURVE",
"264 -61 OFFCURVE",
"212 -76 CURVE SMOOTH",
"193 -82 OFFCURVE",
"174 -83 OFFCURVE",
"154 -81 CURVE SMOOTH",
"138 -79 OFFCURVE",
"132 -70 OFFCURVE",
"131 -53 CURVE SMOOTH",
"130 89 OFFCURVE",
"118 230 OFFCURVE",
"101 371 CURVE SMOOTH",
"97 406 OFFCURVE",
"85 439 OFFCURVE",
"73 471 CURVE SMOOTH",
"55 517 OFFCURVE",
"42 565 OFFCURVE",
"46 616 CURVE"
);
}
);
vertWidth = 1000;
width = 800;
}
);
note = cid00055;
unicode = 0056;
},
{
glyphname = W;
lastChange = "2020-11-05 19:14:31 +0000";
layers = (
{
layerId = "FAEB3F87-0FE7-4D5C-BA65-CB0BBFD78DC9";
paths = (
{
closed = 1;
nodes = (
"661 245 OFFCURVE",
"633 180 OFFCURVE",
"634 112 CURVE",
"666 175 OFFCURVE",
"667 244 OFFCURVE",
"666 313 CURVE"
);
},
{
closed = 1;
nodes = (
"179 738 OFFCURVE",
"178 758 OFFCURVE",
"177 779 CURVE SMOOTH",
"177 784 OFFCURVE",
"177 791 OFFCURVE",
"172 794 CURVE SMOOTH",
"154 804 OFFCURVE",
"135 798 OFFCURVE",
"116 794 CURVE SMOOTH",
"102 791 OFFCURVE",
"98 779 OFFCURVE",
"99 767 CURVE SMOOTH",
"99 740 OFFCURVE",
"101 713 OFFCURVE",
"102 686 CURVE SMOOTH",
"102 679 OFFCURVE",
"106 674 OFFCURVE",
"114 672 CURVE SMOOTH",
"158 657 OFFCURVE",
"178 671 OFFCURVE",
"180 717 CURVE"
);
},
{
closed = 1;
nodes = (
"208 2 OFFCURVE",
"208 -4 OFFCURVE",
"210 -11 CURVE SMOOTH",
"212 -23 OFFCURVE",
"216 -37 OFFCURVE",
"228 -41 CURVE SMOOTH",
"242 -46 OFFCURVE",
"248 -32 OFFCURVE",
"256 -24 CURVE SMOOTH",
"293 10 OFFCURVE",
"320 53 OFFCURVE",
"352 93 CURVE SMOOTH",
"379 128 OFFCURVE",
"379 128 OFFCURVE",
"355 167 CURVE SMOOTH",
"350 175 OFFCURVE",
"347 184 OFFCURVE",
"343 192 CURVE SMOOTH",
"338 202 OFFCURVE",
"335 214 OFFCURVE",
"329 224 CURVE SMOOTH",
"318 241 OFFCURVE",
"312 241 OFFCURVE",
"302 223 CURVE SMOOTH",
"295 211 OFFCURVE",
"289 197 OFFCURVE",
"284 183 CURVE SMOOTH",
"264 131 OFFCURVE",
"247 77 OFFCURVE",
"214 31 CURVE SMOOTH",
"209 24 OFFCURVE",
"207 17 OFFCURVE",
"208 3 CURVE SMOOTH"
);
},
{
closed = 1;
nodes = (
"281 434 LINE",
"291 478 OFFCURVE",
"309 521 OFFCURVE",
"300 567 CURVE SMOOTH",
"288 623 OFFCURVE",
"275 679 OFFCURVE",
"255 734 CURVE SMOOTH",
"249 751 OFFCURVE",
"244 768 OFFCURVE",
"234 782 CURVE SMOOTH",
"227 791 OFFCURVE",
"222 808 OFFCURVE",
"207 803 CURVE SMOOTH",
"193 799 OFFCURVE",
"197 783 OFFCURVE",
"197 772 CURVE SMOOTH",
"195 747 OFFCURVE",
"197 721 OFFCURVE",
"194 696 CURVE SMOOTH",
"191 666 OFFCURVE",
"197 638 OFFCURVE",
"209 611 CURVE SMOOTH",
"219 587 OFFCURVE",
"228 562 OFFCURVE",
"237 538 CURVE SMOOTH",
"249 503 OFFCURVE",
"262 469 OFFCURVE",
"274 434 CURVE"
);
},
{
closed = 1;
nodes = (
"456 626 OFFCURVE",
"475 625 OFFCURVE",
"493 625 CURVE SMOOTH",
"510 625 OFFCURVE",
"521 634 OFFCURVE",
"523 651 CURVE SMOOTH",
"527 681 OFFCURVE",
"530 711 OFFCURVE",
"532 741 CURVE SMOOTH",
"534 754 OFFCURVE",
"527 762 OFFCURVE",
"514 765 CURVE SMOOTH",
"481 775 OFFCURVE",
"448 778 OFFCURVE",
"413 775 CURVE SMOOTH",
"393 774 OFFCURVE",
"383 766 OFFCURVE",
"382 746 CURVE SMOOTH",
"381 716 OFFCURVE",
"377 687 OFFCURVE",
"362 659 CURVE SMOOTH",
"353 643 OFFCURVE",
"361 633 OFFCURVE",
"378 630 CURVE SMOOTH",
"398 625 OFFCURVE",
"418 626 OFFCURVE",
"438 627 CURVE SMOOTH"
);
},
{
closed = 1;
nodes = (
"349 621 OFFCURVE",
"344 614 OFFCURVE",
"341 604 CURVE SMOOTH",
"337 587 OFFCURVE",
"332 569 OFFCURVE",
"328 552 CURVE SMOOTH",
"325 539 OFFCURVE",
"322 524 OFFCURVE",
"329 511 CURVE SMOOTH",
"352 473 OFFCURVE",
"376 436 OFFCURVE",
"392 394 CURVE SMOOTH",
"398 378 OFFCURVE",
"409 380 OFFCURVE",
"418 394 CURVE SMOOTH",
"420 398 OFFCURVE",
"422 402 OFFCURVE",
"424 406 CURVE SMOOTH",
"445 451 OFFCURVE",
"451 502 OFFCURVE",
"472 548 CURVE SMOOTH",
"481 569 OFFCURVE",
"460 609 OFFCURVE",
"443 610 CURVE SMOOTH",
"416 612 OFFCURVE",
"388 610 OFFCURVE",
"361 618 CURVE SMOOTH"
);
},
{
closed = 1;
nodes = (
"773 359 OFFCURVE",
"767 411 OFFCURVE",
"755 462 CURVE SMOOTH",
"749 491 OFFCURVE",
"735 517 OFFCURVE",
"733 547 CURVE SMOOTH",
"729 618 OFFCURVE",
"722 688 OFFCURVE",
"710 758 CURVE SMOOTH",
"708 774 OFFCURVE",
"700 778 OFFCURVE",
"686 773 CURVE SMOOTH",
"661 763 OFFCURVE",
"636 753 OFFCURVE",
"611 742 CURVE SMOOTH",
"582 730 OFFCURVE",
"584 727 OFFCURVE",
"600 701 CURVE SMOOTH",
"646 631 OFFCURVE",
"681 556 OFFCURVE",
"675 468 CURVE SMOOTH",
"674 451 OFFCURVE",
"675 434 OFFCURVE",
"677 417 CURVE SMOOTH",
"687 329 OFFCURVE",
"689 241 OFFCURVE",
"669 153 CURVE SMOOTH",
"656 100 OFFCURVE",
"656 100 OFFCURVE",
"709 93 CURVE SMOOTH",
"738 89 OFFCURVE",
"746 95 OFFCURVE",
"753 123 CURVE SMOOTH",
"769 183 OFFCURVE",
"766 246 OFFCURVE",
"775 309 CURVE"
);
},
{
closed = 1;
nodes = (
"228 78 OFFCURVE",
"240 102 OFFCURVE",
"249 127 CURVE SMOOTH",
"264 167 OFFCURVE",
"277 208 OFFCURVE",
"297 245 CURVE SMOOTH",
"308 266 OFFCURVE",
"316 267 OFFCURVE",
"329 250 CURVE SMOOTH",
"354 216 OFFCURVE",
"372 178 OFFCURVE",
"388 141 CURVE SMOOTH",
"405 102 OFFCURVE",
"412 58 OFFCURVE",
"422 16 CURVE SMOOTH",
"426 2 OFFCURVE",
"432 -3 OFFCURVE",
"447 -5 CURVE SMOOTH",
"483 -8 OFFCURVE",
"519 0 OFFCURVE",
"555 3 CURVE SMOOTH",
"580 6 OFFCURVE",
"595 19 OFFCURVE",
"599 42 CURVE SMOOTH",
"611 98 OFFCURVE",
"621 154 OFFCURVE",
"631 210 CURVE SMOOTH",
"638 246 OFFCURVE",
"652 281 OFFCURVE",
"648 317 CURVE SMOOTH",
"644 364 OFFCURVE",
"651 410 OFFCURVE",
"657 455 CURVE SMOOTH",
"671 558 OFFCURVE",
"627 639 OFFCURVE",
"571 718 CURVE SMOOTH",
"567 723 OFFCURVE",
"563 728 OFFCURVE",
"556 726 CURVE SMOOTH",
"549 723 OFFCURVE",
"549 716 OFFCURVE",
"548 710 CURVE SMOOTH",
"545 691 OFFCURVE",
"544 672 OFFCURVE",
"540 653 CURVE SMOOTH",
"534 620 OFFCURVE",
"528 614 OFFCURVE",
"496 610 CURVE SMOOTH",
"480 608 OFFCURVE",
"476 602 OFFCURVE",
"482 587 CURVE SMOOTH",
"491 563 OFFCURVE",
"490 540 OFFCURVE",
"477 516 CURVE SMOOTH",
"469 501 OFFCURVE",
"466 485 OFFCURVE",
"462 468 CURVE SMOOTH",
"454 436 OFFCURVE",
"445 404 OFFCURVE",
"425 376 CURVE SMOOTH",
"414 362 OFFCURVE",
"403 362 OFFCURVE",
"390 373 CURVE SMOOTH",
"383 379 OFFCURVE",
"377 386 OFFCURVE",
"375 396 CURVE SMOOTH",
"366 429 OFFCURVE",
"344 456 OFFCURVE",
"328 485 CURVE SMOOTH",
"325 490 OFFCURVE",
"322 498 OFFCURVE",
"314 495 CURVE SMOOTH",
"308 493 OFFCURVE",
"307 486 OFFCURVE",
"307 480 CURVE SMOOTH",
"305 460 OFFCURVE",
"298 442 OFFCURVE",
"292 424 CURVE SMOOTH",
"290 417 OFFCURVE",
"288 408 OFFCURVE",
"278 408 CURVE SMOOTH",
"269 408 OFFCURVE",
"266 416 OFFCURVE",
"262 423 CURVE SMOOTH",
"260 427 OFFCURVE",
"259 433 OFFCURVE",
"257 438 CURVE SMOOTH",
"232 503 OFFCURVE",
"213 571 OFFCURVE",
"184 635 CURVE SMOOTH",
"177 649 OFFCURVE",
"170 655 OFFCURVE",
"154 655 CURVE SMOOTH",
"99 656 OFFCURVE",
"100 655 OFFCURVE",
"104 600 CURVE SMOOTH",
"108 539 OFFCURVE",
"133 483 OFFCURVE",
"137 423 CURVE SMOOTH",
"140 396 OFFCURVE",
"144 369 OFFCURVE",
"153 344 CURVE SMOOTH",
"172 291 OFFCURVE",
"185 237 OFFCURVE",
"192 182 CURVE SMOOTH",
"197 141 OFFCURVE",
"201 100 OFFCURVE",
"206 53 CURVE"
);
},
{
closed = 1;
nodes = (
"189 -33 OFFCURVE",
"187 8 OFFCURVE",
"186 49 CURVE SMOOTH",
"185 148 OFFCURVE",
"170 245 OFFCURVE",
"138 339 CURVE SMOOTH",
"131 360 OFFCURVE",
"127 381 OFFCURVE",
"124 402 CURVE SMOOTH",
"116 450 OFFCURVE",
"108 497 OFFCURVE",
"96 543 CURVE SMOOTH",
"85 586 OFFCURVE",
"85 630 OFFCURVE",
"88 674 CURVE SMOOTH",
"89 700 OFFCURVE",
"88 726 OFFCURVE",
"86 752 CURVE SMOOTH",
"83 797 OFFCURVE",
"92 809 OFFCURVE",
"136 809 CURVE SMOOTH",
"160 810 OFFCURVE",
"183 809 OFFCURVE",
"206 819 CURVE SMOOTH",
"217 823 OFFCURVE",
"225 818 OFFCURVE",
"233 810 CURVE SMOOTH",
"248 793 OFFCURVE",
"259 775 OFFCURVE",
"266 753 CURVE SMOOTH",
"284 702 OFFCURVE",
"298 650 OFFCURVE",
"309 597 CURVE SMOOTH",
"310 591 OFFCURVE",
"310 584 OFFCURVE",
"317 581 CURVE",
"324 585 OFFCURVE",
"323 593 OFFCURVE",
"324 599 CURVE SMOOTH",
"331 626 OFFCURVE",
"337 653 OFFCURVE",
"353 677 CURVE SMOOTH",
"368 702 OFFCURVE",
"365 731 OFFCURVE",
"369 758 CURVE SMOOTH",
"372 780 OFFCURVE",
"383 789 OFFCURVE",
"404 790 CURVE SMOOTH",
"444 792 OFFCURVE",
"484 790 OFFCURVE",
"523 779 CURVE SMOOTH",
"533 776 OFFCURVE",
"541 772 OFFCURVE",
"547 763 CURVE SMOOTH",
"559 745 OFFCURVE",
"574 741 OFFCURVE",
"595 751 CURVE SMOOTH",
"625 765 OFFCURVE",
"656 776 OFFCURVE",
"687 788 CURVE SMOOTH",
"716 799 OFFCURVE",
"724 793 OFFCURVE",
"728 763 CURVE SMOOTH",
"738 693 OFFCURVE",
"747 623 OFFCURVE",
"749 552 CURVE SMOOTH",
"749 528 OFFCURVE",
"759 508 OFFCURVE",
"765 487 CURVE SMOOTH",
"792 399 OFFCURVE",
"794 309 OFFCURVE",
"784 219 CURVE SMOOTH",
"781 183 OFFCURVE",
"775 147 OFFCURVE",
"765 112 CURVE SMOOTH",
"757 82 OFFCURVE",
"747 73 OFFCURVE",
"714 77 CURVE SMOOTH",
"692 79 OFFCURVE",
"670 82 OFFCURVE",
"648 86 CURVE SMOOTH",
"632 89 OFFCURVE",
"623 86 OFFCURVE",
"622 68 CURVE SMOOTH",
"622 56 OFFCURVE",
"618 43 OFFCURVE",
"614 32 CURVE SMOOTH",
"608 8 OFFCURVE",
"593 -2 OFFCURVE",
"568 -9 CURVE SMOOTH",
"519 -21 OFFCURVE",
"470 -18 OFFCURVE",
"421 -23 CURVE SMOOTH",
"407 -25 OFFCURVE",
"405 -16 OFFCURVE",
"406 -6 CURVE SMOOTH",
"409 26 OFFCURVE",
"395 55 OFFCURVE",
"389 86 CURVE SMOOTH",
"388 92 OFFCURVE",
"387 100 OFFCURVE",
"380 102 CURVE SMOOTH",
"372 104 OFFCURVE",
"369 95 OFFCURVE",
"365 90 CURVE SMOOTH",
"336 55 OFFCURVE",
"314 15 OFFCURVE",
"283 -18 CURVE SMOOTH",
"268 -35 OFFCURVE",
"252 -50 OFFCURVE",
"232 -61 CURVE",
"230 -61 OFFCURVE",
"229 -61 OFFCURVE",
"227 -61 CURVE"
);
}
);
vertWidth = 1000;
width = 900;
}
);
note = cid00056;
unicode = 0057;
},
{
glyphname = X;
lastChange = "2020-11-05 19:14:31 +0000";
layers = (
{
layerId = "FAEB3F87-0FE7-4D5C-BA65-CB0BBFD78DC9";
paths = (
{
closed = 1;
nodes = (
"556 90 OFFCURVE",
"519 75 OFFCURVE",
"482 60 CURVE SMOOTH",
"473 57 OFFCURVE",
"459 54 OFFCURVE",
"465 40 CURVE SMOOTH",
"471 25 OFFCURVE",
"484 27 OFFCURVE",
"494 33 CURVE SMOOTH",
"530 51 OFFCURVE",
"568 68 OFFCURVE",
"593 104 CURVE"
);
},
{
closed = 1;
nodes = (
"260 276 OFFCURVE",
"253 261 OFFCURVE",
"248 247 CURVE SMOOTH",
"230 204 OFFCURVE",
"213 161 OFFCURVE",
"196 119 CURVE SMOOTH",
"193 109 OFFCURVE",
"178 99 OFFCURVE",
"194 90 CURVE SMOOTH",
"206 84 OFFCURVE",
"217 93 OFFCURVE",
"221 105 CURVE SMOOTH",
"245 164 OFFCURVE",
"260 226 OFFCURVE",
"266 290 CURVE"
);
},
{
closed = 1;
nodes = (
"119 620 OFFCURVE",
"108 599 OFFCURVE",
"132 592 CURVE SMOOTH",
"159 585 OFFCURVE",
"186 579 OFFCURVE",
"213 579 CURVE SMOOTH",
"233 580 OFFCURVE",
"248 587 OFFCURVE",
"254 608 CURVE SMOOTH",
"266 647 OFFCURVE",
"273 686 OFFCURVE",
"276 726 CURVE SMOOTH",
"277 735 OFFCURVE",
"274 741 OFFCURVE",
"267 747 CURVE SMOOTH",
"235 773 OFFCURVE",
"144 767 OFFCURVE",
"116 737 CURVE SMOOTH",
"109 729 OFFCURVE",
"110 720 OFFCURVE",
"111 711 CURVE SMOOTH",
"113 686 OFFCURVE",
"116 661 OFFCURVE",
"118 636 CURVE SMOOTH"
);
},
{
closed = 1;
nodes = (
"322 373 OFFCURVE",
"318 373 OFFCURVE",
"315 372 CURVE",
"294 301 OFFCURVE",
"273 230 OFFCURVE",
"254 158 CURVE SMOOTH",
"244 123 OFFCURVE",
"244 83 OFFCURVE",
"201 68 CURVE SMOOTH",
"194 66 OFFCURVE",
"193 59 OFFCURVE",
"197 54 CURVE SMOOTH",
"229 21 OFFCURVE",
"243 -23 OFFCURVE",
"274 -59 CURVE",
"317 38 OFFCURVE",
"341 137 OFFCURVE",
"358 238 CURVE SMOOTH",
"367 291 OFFCURVE",
"339 329 OFFCURVE",
"326 374 CURVE"
);
},
{
closed = 1;
nodes = (
"681 747 OFFCURVE",
"667 763 OFFCURVE",
"641 774 CURVE SMOOTH",
"622 782 OFFCURVE",
"603 791 OFFCURVE",
"587 805 CURVE SMOOTH",
"561 828 OFFCURVE",
"547 817 OFFCURVE",
"531 793 CURVE SMOOTH",
"506 756 OFFCURVE",
"479 720 OFFCURVE",
"451 685 CURVE SMOOTH",
"414 637 OFFCURVE",
"413 637 OFFCURVE",
"366 672 CURVE SMOOTH",
"356 680 OFFCURVE",
"346 688 OFFCURVE",
"336 696 CURVE SMOOTH",
"325 704 OFFCURVE",
"314 719 OFFCURVE",
"302 715 CURVE SMOOTH",
"286 711 OFFCURVE",
"294 691 OFFCURVE",
"291 679 CURVE SMOOTH",
"289 670 OFFCURVE",
"289 660 OFFCURVE",
"287 651 CURVE SMOOTH",
"268 567 OFFCURVE",
"265 564 OFFCURVE",
"179 571 CURVE SMOOTH",
"154 573 OFFCURVE",
"151 566 OFFCURVE",
"161 545 CURVE SMOOTH",
"177 509 OFFCURVE",
"203 479 OFFCURVE",
"219 443 CURVE SMOOTH",
"226 426 OFFCURVE",
"228 412 OFFCURVE",
"218 398 CURVE SMOOTH",
"159 318 OFFCURVE",
"127 225 OFFCURVE",
"83 138 CURVE SMOOTH",
"74 120 OFFCURVE",
"53 100 OFFCURVE",
"66 83 CURVE SMOOTH",
"76 68 OFFCURVE",
"100 89 OFFCURVE",
"118 87 CURVE SMOOTH",
"155 85 OFFCURVE",
"171 106 OFFCURVE",
"183 136 CURVE SMOOTH",
"212 205 OFFCURVE",
"240 274 OFFCURVE",
"270 342 CURVE SMOOTH",
"281 364 OFFCURVE",
"282 403 OFFCURVE",
"313 401 CURVE SMOOTH",
"342 399 OFFCURVE",
"347 364 OFFCURVE",
"355 339 CURVE SMOOTH",
"384 257 OFFCURVE",
"413 174 OFFCURVE",
"439 91 CURVE SMOOTH",
"447 66 OFFCURVE",
"458 64 OFFCURVE",
"479 73 CURVE SMOOTH",
"510 86 OFFCURVE",
"541 99 OFFCURVE",
"572 111 CURVE SMOOTH",
"609 126 OFFCURVE",
"615 137 OFFCURVE",
"605 177 CURVE SMOOTH",
"591 227 OFFCURVE",
"576 276 OFFCURVE",
"562 326 CURVE SMOOTH",
"551 367 OFFCURVE",
"532 405 OFFCURVE",
"527 448 CURVE SMOOTH",
"525 471 OFFCURVE",
"525 492 OFFCURVE",
"556 495 CURVE SMOOTH",
"572 497 OFFCURVE",
"586 507 OFFCURVE",
"598 518 CURVE SMOOTH",
"662 570 OFFCURVE",
"656 649 OFFCURVE",
"675 717 CURVE"
);
},
{
closed = 1;
nodes = (
"353 118 OFFCURVE",
"331 29 OFFCURVE",
"299 -56 CURVE SMOOTH",
"295 -66 OFFCURVE",
"296 -82 OFFCURVE",
"284 -85 CURVE SMOOTH",
"271 -87 OFFCURVE",
"268 -71 OFFCURVE",
"261 -63 CURVE SMOOTH",
"235 -32 OFFCURVE",
"218 5 OFFCURVE",
"193 36 CURVE SMOOTH",
"175 59 OFFCURVE",
"156 64 OFFCURVE",
"130 57 CURVE SMOOTH",
"111 52 OFFCURVE",
"92 48 OFFCURVE",
"73 46 CURVE SMOOTH",
"43 43 OFFCURVE",
"32 58 OFFCURVE",
"44 86 CURVE SMOOTH",
"72 148 OFFCURVE",
"103 210 OFFCURVE",
"132 273 CURVE SMOOTH",
"151 316 OFFCURVE",
"174 357 OFFCURVE",
"202 395 CURVE SMOOTH",
"212 408 OFFCURVE",
"214 421 OFFCURVE",
"207 433 CURVE SMOOTH",
"178 481 OFFCURVE",
"159 535 OFFCURVE",
"117 574 CURVE SMOOTH",
"107 583 OFFCURVE",
"107 595 OFFCURVE",
"107 606 CURVE SMOOTH",
"106 648 OFFCURVE",
"103 689 OFFCURVE",
"93 729 CURVE SMOOTH",
"90 741 OFFCURVE",
"98 742 OFFCURVE",
"104 746 CURVE SMOOTH",
"171 792 OFFCURVE",
"244 790 OFFCURVE",
"307 740 CURVE SMOOTH",
"333 719 OFFCURVE",
"360 699 OFFCURVE",
"384 676 CURVE SMOOTH",
"403 657 OFFCURVE",
"416 660 OFFCURVE",
"431 679 CURVE SMOOTH",
"467 727 OFFCURVE",
"505 773 OFFCURVE",
"541 821 CURVE SMOOTH",
"555 840 OFFCURVE",
"566 845 OFFCURVE",
"583 825 CURVE SMOOTH",
"607 799 OFFCURVE",
"643 791 OFFCURVE",
"673 773 CURVE SMOOTH",
"681 768 OFFCURVE",
"693 766 OFFCURVE",
"692 752 CURVE SMOOTH",
"685 661 OFFCURVE",
"676 571 OFFCURVE",
"603 503 CURVE SMOOTH",
"597 497 OFFCURVE",
"589 491 OFFCURVE",
"580 489 CURVE SMOOTH",
"544 480 OFFCURVE",
"541 455 OFFCURVE",
"549 425 CURVE SMOOTH",
"571 341 OFFCURVE",
"599 258 OFFCURVE",
"616 172 CURVE",
"616 168 OFFCURVE",
"618 165 OFFCURVE",
"618 162 CURVE",
"629 100 OFFCURVE",
"643 94 OFFCURVE",
"579 63 CURVE SMOOTH",
"562 55 OFFCURVE",
"547 41 OFFCURVE",
"529 34 CURVE SMOOTH",
"509 26 OFFCURVE",
"488 5 OFFCURVE",
"465 19 CURVE SMOOTH",
"435 37 OFFCURVE",
"405 56 OFFCURVE",
"408 100 CURVE SMOOTH",
"410 138 OFFCURVE",
"400 175 OFFCURVE",
"376 217 CURVE"
);
}
);
vertWidth = 1000;
width = 800;
}
);
note = cid00057;
unicode = 0058;
},
{
glyphname = Y;
lastChange = "2020-11-05 19:14:31 +0000";
layers = (
{
layerId = "FAEB3F87-0FE7-4D5C-BA65-CB0BBFD78DC9";
paths = (
{
closed = 1;
nodes = (
"138 645 OFFCURVE",
"130 644 OFFCURVE",
"123 641 CURVE",
"85 631 OFFCURVE",
"82 624 OFFCURVE",
"95 588 CURVE SMOOTH",
"101 572 OFFCURVE",
"106 555 OFFCURVE",
"110 539 CURVE SMOOTH",
"119 501 OFFCURVE",
"125 497 OFFCURVE",
"161 514 CURVE SMOOTH",
"228 545 OFFCURVE",
"228 545 OFFCURVE",
"208 612 CURVE SMOOTH",
"197 653 OFFCURVE",
"192 656 OFFCURVE",
"142 646 CURVE SMOOTH"
);
},
{
closed = 1;
nodes = (
"241 593 OFFCURVE",
"237 556 OFFCURVE",
"258 530 CURVE SMOOTH",
"283 500 OFFCURVE",
"312 473 OFFCURVE",
"328 437 CURVE SMOOTH",
"333 424 OFFCURVE",
"341 422 OFFCURVE",
"351 436 CURVE SMOOTH",
"380 478 OFFCURVE",
"379 513 OFFCURVE",
"345 551 CURVE SMOOTH",
"327 572 OFFCURVE",
"309 594 OFFCURVE",
"291 615 CURVE SMOOTH",
"281 627 OFFCURVE",
"269 637 OFFCURVE",
"254 644 CURVE SMOOTH",
"246 647 OFFCURVE",
"238 652 OFFCURVE",
"230 646 CURVE SMOOTH",
"221 639 OFFCURVE",
"226 631 OFFCURVE",
"227 619 CURVE"
);
},
{
closed = 1;
nodes = (
"507 651 OFFCURVE",
"511 665 OFFCURVE",
"500 667 CURVE SMOOTH",
"487 670 OFFCURVE",
"484 655 OFFCURVE",
"479 647 CURVE SMOOTH",
"432 576 OFFCURVE",
"396 500 OFFCURVE",
"365 421 CURVE SMOOTH",
"355 396 OFFCURVE",
"354 373 OFFCURVE",
"366 350 CURVE SMOOTH",
"370 342 OFFCURVE",
"369 329 OFFCURVE",
"381 329 CURVE SMOOTH",
"393 329 OFFCURVE",
"393 343 OFFCURVE",
"395 351 CURVE SMOOTH",
"415 427 OFFCURVE",
"462 494 OFFCURVE",
"490 567 CURVE SMOOTH",
"500 592 OFFCURVE",
"517 615 OFFCURVE",
"511 644 CURVE"
);
},
{
closed = 1;
nodes = (
"520 695 OFFCURVE",
"528 665 OFFCURVE",
"534 634 CURVE SMOOTH",
"538 614 OFFCURVE",
"549 610 OFFCURVE",
"569 614 CURVE SMOOTH",
"599 620 OFFCURVE",
"624 638 OFFCURVE",
"653 647 CURVE SMOOTH",
"671 653 OFFCURVE",
"673 663 OFFCURVE",
"668 678 CURVE SMOOTH",
"655 716 OFFCURVE",
"635 751 OFFCURVE",
"611 783 CURVE SMOOTH",
"601 796 OFFCURVE",
"590 799 OFFCURVE",
"575 792 CURVE SMOOTH",
"563 787 OFFCURVE",
"551 782 OFFCURVE",
"539 777 CURVE SMOOTH",
"513 768 OFFCURVE",
"504 751 OFFCURVE",
"515 715 CURVE SMOOTH"
);
},
{
closed = 1;
nodes = (
"195 514 OFFCURVE",
"178 505 OFFCURVE",
"160 498 CURVE SMOOTH",
"141 489 OFFCURVE",
"139 477 OFFCURVE",
"150 461 CURVE SMOOTH",
"191 401 OFFCURVE",
"223 336 OFFCURVE",
"274 283 CURVE SMOOTH",
"288 269 OFFCURVE",
"296 253 OFFCURVE",
"293 233 CURVE SMOOTH",
"286 179 OFFCURVE",
"281 125 OFFCURVE",
"267 71 CURVE SMOOTH",
"257 36 OFFCURVE",
"244 2 OFFCURVE",
"233 -31 CURVE SMOOTH",
"224 -60 OFFCURVE",
"231 -67 OFFCURVE",
"261 -63 CURVE SMOOTH",
"283 -59 OFFCURVE",
"304 -55 OFFCURVE",
"325 -54 CURVE SMOOTH",
"350 -53 OFFCURVE",
"363 -41 OFFCURVE",
"369 -20 CURVE SMOOTH",
"381 17 OFFCURVE",
"387 56 OFFCURVE",
"385 95 CURVE SMOOTH",
"382 179 OFFCURVE",
"408 254 OFFCURVE",
"447 329 CURVE SMOOTH",
"488 404 OFFCURVE",
"532 478 OFFCURVE",
"562 558 CURVE SMOOTH",
"566 569 OFFCURVE",
"580 587 OFFCURVE",
"562 592 CURVE SMOOTH",
"549 596 OFFCURVE",
"527 593 OFFCURVE",
"516 578 CURVE SMOOTH",
"511 572 OFFCURVE",
"507 565 OFFCURVE",
"505 559 CURVE SMOOTH",
"476 482 OFFCURVE",
"428 413 OFFCURVE",
"406 333 CURVE SMOOTH",
"404 326 OFFCURVE",
"401 320 OFFCURVE",
"398 313 CURVE SMOOTH",
"394 306 OFFCURVE",
"389 299 OFFCURVE",
"379 298 CURVE SMOOTH",
"368 298 OFFCURVE",
"365 306 OFFCURVE",
"362 314 CURVE SMOOTH",
"349 343 OFFCURVE",
"337 373 OFFCURVE",
"323 401 CURVE SMOOTH",
"304 441 OFFCURVE",
"285 481 OFFCURVE",
"248 510 CURVE SMOOTH",
"238 518 OFFCURVE",
"228 525 OFFCURVE",
"213 522 CURVE"
);
},
{
closed = 1;
nodes = (
"664 617 OFFCURVE",
"660 629 OFFCURVE",
"646 624 CURVE SMOOTH",
"625 617 OFFCURVE",
"601 611 OFFCURVE",
"593 587 CURVE SMOOTH",
"562 493 OFFCURVE",
"507 409 OFFCURVE",
"462 321 CURVE SMOOTH",
"434 266 OFFCURVE",
"408 211 OFFCURVE",
"409 148 CURVE SMOOTH",
"409 97 OFFCURVE",
"412 46 OFFCURVE",
"396 -2 CURVE SMOOTH",
"377 -63 OFFCURVE",
"384 -60 OFFCURVE",
"446 -68 CURVE SMOOTH",
"465 -70 OFFCURVE",
"475 -62 OFFCURVE",
"483 -48 CURVE SMOOTH",
"499 -20 OFFCURVE",
"514 8 OFFCURVE",
"523 39 CURVE SMOOTH",
"535 81 OFFCURVE",
"548 122 OFFCURVE",
"561 164 CURVE SMOOTH",
"593 264 OFFCURVE",
"644 358 OFFCURVE",
"654 465 CURVE SMOOTH",
"658 512 OFFCURVE",
"667 559 OFFCURVE",
"665 609 CURVE SMOOTH"
);
},
{
closed = 1;
nodes = (
"166 663 OFFCURVE",
"198 668 OFFCURVE",
"230 668 CURVE SMOOTH",
"263 669 OFFCURVE",
"287 650 OFFCURVE",
"307 629 CURVE SMOOTH",
"330 604 OFFCURVE",
"350 578 OFFCURVE",
"371 552 CURVE SMOOTH",
"384 536 OFFCURVE",
"394 538 OFFCURVE",
"404 556 CURVE SMOOTH",
"421 586 OFFCURVE",
"438 616 OFFCURVE",
"455 646 CURVE SMOOTH",
"462 658 OFFCURVE",
"469 670 OFFCURVE",
"479 679 CURVE SMOOTH",
"498 696 OFFCURVE",
"501 713 OFFCURVE",
"491 735 CURVE SMOOTH",
"481 756 OFFCURVE",
"489 772 OFFCURVE",
"511 783 CURVE SMOOTH",
"618 831 OFFCURVE",
"605 832 OFFCURVE",
"660 745 CURVE SMOOTH",
"677 719 OFFCURVE",
"698 690 OFFCURVE",
"693 660 CURVE SMOOTH",
"685 607 OFFCURVE",
"687 555 OFFCURVE",
"682 502 CURVE SMOOTH",
"670 380 OFFCURVE",
"617 269 OFFCURVE",
"580 154 CURVE SMOOTH",
"567 113 OFFCURVE",
"555 72 OFFCURVE",
"543 32 CURVE SMOOTH",
"533 -2 OFFCURVE",
"514 -32 OFFCURVE",
"496 -63 CURVE SMOOTH",
"485 -82 OFFCURVE",
"466 -87 OFFCURVE",
"444 -87 CURVE SMOOTH",
"398 -87 OFFCURVE",
"358 -60 OFFCURVE",
"311 -71 CURVE SMOOTH",
"291 -76 OFFCURVE",
"271 -81 OFFCURVE",
"250 -82 CURVE SMOOTH",
"212 -86 OFFCURVE",
"203 -75 OFFCURVE",
"213 -40 CURVE SMOOTH",
"222 -6 OFFCURVE",
"233 27 OFFCURVE",
"244 61 CURVE SMOOTH",
"263 117 OFFCURVE",
"266 176 OFFCURVE",
"274 234 CURVE SMOOTH",
"276 252 OFFCURVE",
"271 267 OFFCURVE",
"258 280 CURVE SMOOTH",
"201 338 OFFCURVE",
"168 414 OFFCURVE",
"117 476 CURVE SMOOTH",
"112 482 OFFCURVE",
"110 491 OFFCURVE",
"109 499 CURVE SMOOTH",
"105 531 OFFCURVE",
"93 560 OFFCURVE",
"79 589 CURVE SMOOTH",
"58 631 OFFCURVE",
"64 643 OFFCURVE",
"112 654 CURVE SMOOTH",
"119 656 OFFCURVE",
"126 657 OFFCURVE",
"134 659 CURVE",
"134 659 OFFCURVE",
"134 660 OFFCURVE",
"134 660 CURVE"
);
}
);
vertWidth = 1000;
width = 820;
}
);
note = cid00058;
unicode = 0059;
},
{
glyphname = Z;
lastChange = "2020-11-05 19:14:31 +0000";
layers = (
{
layerId = "FAEB3F87-0FE7-4D5C-BA65-CB0BBFD78DC9";
paths = (
{
closed = 1;
nodes = (
"376 797 OFFCURVE",
"344 796 OFFCURVE",
"311 786 CURVE",
"309 786 OFFCURVE",
"307 784 OFFCURVE",
"305 782 CURVE",
"300 779 OFFCURVE",
"298 774 OFFCURVE",
"300 767 CURVE SMOOTH",
"302 760 OFFCURVE",
"307 760 OFFCURVE",
"312 762 CURVE",
"344 769 OFFCURVE",
"377 777 OFFCURVE",
"409 785 CURVE"
);
},
{
closed = 1;
nodes = (
"628 557 OFFCURVE",
"638 560 OFFCURVE",
"642 575 CURVE SMOOTH",
"653 612 OFFCURVE",
"668 647 OFFCURVE",
"673 687 CURVE SMOOTH",
"674 695 OFFCURVE",
"674 703 OFFCURVE",
"667 708 CURVE SMOOTH",
"662 711 OFFCURVE",
"655 715 OFFCURVE",
"650 710 CURVE SMOOTH",
"645 704 OFFCURVE",
"650 696 OFFCURVE",
"650 689 CURVE SMOOTH",
"649 643 OFFCURVE",
"659 593 OFFCURVE",
"611 562 CURVE"
);
},
{
closed = 1;
nodes = (
"593 595 OFFCURVE",
"588 583 OFFCURVE",
"598 580 CURVE",
"606 576 OFFCURVE",
"614 582 OFFCURVE",
"620 588 CURVE SMOOTH",
"624 591 OFFCURVE",
"627 595 OFFCURVE",
"628 599 CURVE SMOOTH",
"636 633 OFFCURVE",
"639 668 OFFCURVE",
"631 702 CURVE SMOOTH",
"630 710 OFFCURVE",
"626 715 OFFCURVE",
"618 715 CURVE SMOOTH",
"610 715 OFFCURVE",
"605 711 OFFCURVE",
"603 702 CURVE SMOOTH",
"598 669 OFFCURVE",
"590 636 OFFCURVE",
"591 602 CURVE"
);
},
{
closed = 1;
nodes = (
"475 236 OFFCURVE",
"481 244 OFFCURVE",
"485 253 CURVE SMOOTH",
"496 276 OFFCURVE",
"506 299 OFFCURVE",
"517 322 CURVE SMOOTH",
"548 382 OFFCURVE",
"578 444 OFFCURVE",
"604 507 CURVE SMOOTH",
"618 541 OFFCURVE",
"618 541 OFFCURVE",
"587 551 CURVE SMOOTH",
"581 553 OFFCURVE",
"574 558 OFFCURVE",
"568 550 CURVE SMOOTH",
"563 543 OFFCURVE",
"564 536 OFFCURVE",
"567 529 CURVE SMOOTH",
"579 501 OFFCURVE",
"573 475 OFFCURVE",
"560 450 CURVE SMOOTH",
"528 392 OFFCURVE",
"491 339 OFFCURVE",
"442 299 CURVE SMOOTH",
"429 288 OFFCURVE",
"417 275 OFFCURVE",
"406 261 CURVE SMOOTH",
"399 250 OFFCURVE",
"401 243 OFFCURVE",
"413 242 CURVE SMOOTH",
"430 239 OFFCURVE",
"447 238 OFFCURVE",
"463 236 CURVE SMOOTH"
);
},
{
closed = 1;
nodes = (
"560 689 OFFCURVE",
"560 669 OFFCURVE",
"555 650 CURVE SMOOTH",
"549 629 OFFCURVE",
"539 617 OFFCURVE",
"519 618 CURVE SMOOTH",
"499 619 OFFCURVE",
"479 618 OFFCURVE",
"460 621 CURVE SMOOTH",
"402 631 OFFCURVE",
"345 640 OFFCURVE",
"287 640 CURVE SMOOTH",
"281 640 OFFCURVE",
"276 642 OFFCURVE",
"275 634 CURVE SMOOTH",
"273 625 OFFCURVE",
"279 625 OFFCURVE",
"284 625 CURVE SMOOTH",
"320 625 OFFCURVE",
"352 609 OFFCURVE",
"384 595 CURVE SMOOTH",
"430 576 OFFCURVE",
"476 560 OFFCURVE",
"524 551 CURVE SMOOTH",
"538 548 OFFCURVE",
"551 547 OFFCURVE",
"556 565 CURVE SMOOTH",
"567 611 OFFCURVE",
"569 659 OFFCURVE",
"572 706 CURVE"
);
},
{
closed = 1;
nodes = (
"539 207 OFFCURVE",
"533 183 OFFCURVE",
"531 160 CURVE SMOOTH",
"527 115 OFFCURVE",
"520 71 OFFCURVE",
"519 26 CURVE SMOOTH",
"519 12 OFFCURVE",
"517 -1 OFFCURVE",
"510 -13 CURVE SMOOTH",
"508 -17 OFFCURVE",
"505 -21 OFFCURVE",
"510 -26 CURVE SMOOTH",
"533 -49 OFFCURVE",
"576 -40 OFFCURVE",
"589 -8 CURVE SMOOTH",
"616 60 OFFCURVE",
"620 136 OFFCURVE",
"633 208 CURVE SMOOTH",
"634 216 OFFCURVE",
"632 222 OFFCURVE",
"624 222 CURVE SMOOTH",
"588 224 OFFCURVE",
"551 228 OFFCURVE",
"512 222 CURVE"
);
},
{
closed = 1;
nodes = (
"412 494 OFFCURVE",
"447 488 OFFCURVE",
"483 490 CURVE SMOOTH",
"489 491 OFFCURVE",
"496 492 OFFCURVE",
"499 485 CURVE SMOOTH",
"502 478 OFFCURVE",
"497 472 OFFCURVE",
"493 468 CURVE SMOOTH",
"484 457 OFFCURVE",
"475 446 OFFCURVE",
"465 435 CURVE SMOOTH",
"433 403 OFFCURVE",
"399 372 OFFCURVE",
"368 337 CURVE SMOOTH",
"306 266 OFFCURVE",
"241 197 OFFCURVE",
"178 125 CURVE SMOOTH",
"140 81 OFFCURVE",
"105 33 OFFCURVE",
"76 -18 CURVE SMOOTH",
"72 -26 OFFCURVE",
"63 -34 OFFCURVE",
"70 -43 CURVE SMOOTH",
"76 -50 OFFCURVE",
"86 -46 OFFCURVE",
"94 -44 CURVE",
"97 -44 OFFCURVE",
"100 -42 OFFCURVE",
"103 -40 CURVE",
"125 -31 OFFCURVE",
"148 -27 OFFCURVE",
"172 -28 CURVE SMOOTH",
"215 -30 OFFCURVE",
"258 -32 OFFCURVE",
"300 -28 CURVE SMOOTH",
"351 -24 OFFCURVE",
"402 -19 OFFCURVE",
"453 -21 CURVE SMOOTH",
"493 -22 OFFCURVE",
"506 -10 OFFCURVE",
"508 35 CURVE SMOOTH",
"511 79 OFFCURVE",
"516 122 OFFCURVE",
"520 165 CURVE SMOOTH",
"523 201 OFFCURVE",
"518 210 OFFCURVE",
"487 218 CURVE SMOOTH",
"463 224 OFFCURVE",
"440 223 OFFCURVE",
"416 225 CURVE SMOOTH",
"403 226 OFFCURVE",
"384 220 OFFCURVE",
"380 236 CURVE SMOOTH",
"376 254 OFFCURVE",
"391 268 OFFCURVE",
"402 281 CURVE",
"404 282 OFFCURVE",
"405 283 OFFCURVE",
"407 284 CURVE",
"454 319 OFFCURVE",
"492 364 OFFCURVE",
"524 416 CURVE SMOOTH",
"536 434 OFFCURVE",
"547 452 OFFCURVE",
"554 473 CURVE SMOOTH",
"566 508 OFFCURVE",
"557 530 OFFCURVE",
"525 537 CURVE SMOOTH",
"484 545 OFFCURVE",
"444 556 OFFCURVE",
"404 573 CURVE SMOOTH",
"368 588 OFFCURVE",
"333 606 OFFCURVE",
"294 611 CURVE SMOOTH",
"274 614 OFFCURVE",
"266 609 OFFCURVE",
"265 586 CURVE SMOOTH",
"263 560 OFFCURVE",
"261 534 OFFCURVE",
"262 507 CURVE SMOOTH",
"263 487 OFFCURVE",
"270 478 OFFCURVE",
"288 480 CURVE SMOOTH",
"318 483 OFFCURVE",
"346 490 OFFCURVE",
"378 489 CURVE"
);
},
{
closed = 1;
nodes = (
"539 763 OFFCURVE",
"535 764 OFFCURVE",
"532 765 CURVE SMOOTH",
"477 786 OFFCURVE",
"423 776 OFFCURVE",
"370 762 CURVE SMOOTH",
"350 757 OFFCURVE",
"330 752 OFFCURVE",
"310 747 CURVE SMOOTH",
"305 746 OFFCURVE",
"298 745 OFFCURVE",
"297 740 CURVE SMOOTH",
"289 714 OFFCURVE",
"287 687 OFFCURVE",
"287 661 CURVE SMOOTH",
"287 652 OFFCURVE",
"296 651 OFFCURVE",
"303 651 CURVE SMOOTH",
"363 656 OFFCURVE",
"421 635 OFFCURVE",
"480 633 CURVE",
"484 632 OFFCURVE",
"488 632 OFFCURVE",
"492 632 CURVE SMOOTH",
"535 629 OFFCURVE",
"538 632 OFFCURVE",
"549 680 CURVE SMOOTH",
"555 707 OFFCURVE",
"566 733 OFFCURVE",
"555 764 CURVE",
"568 762 OFFCURVE",
"570 755 OFFCURVE",
"570 744 CURVE SMOOTH",
"570 725 OFFCURVE",
"577 718 OFFCURVE",
"592 726 CURVE SMOOTH",
"620 743 OFFCURVE",
"645 726 OFFCURVE",
"671 717 CURVE SMOOTH",
"681 714 OFFCURVE",
"685 703 OFFCURVE",
"684 691 CURVE SMOOTH",
"681 643 OFFCURVE",
"671 594 OFFCURVE",
"649 557 CURVE SMOOTH",
"600 474 OFFCURVE",
"568 381 OFFCURVE",
"521 297 CURVE SMOOTH",
"515 286 OFFCURVE",
"511 272 OFFCURVE",
"505 260 CURVE SMOOTH",
"500 247 OFFCURVE",
"505 243 OFFCURVE",
"516 243 CURVE SMOOTH",
"551 241 OFFCURVE",
"586 239 OFFCURVE",
"621 236 CURVE SMOOTH",
"646 235 OFFCURVE",
"649 232 OFFCURVE",
"644 203 CURVE SMOOTH",
"634 136 OFFCURVE",
"629 68 OFFCURVE",
"606 4 CURVE SMOOTH",
"604 -3 OFFCURVE",
"600 -11 OFFCURVE",
"597 -19 CURVE SMOOTH",
"584 -51 OFFCURVE",
"571 -63 OFFCURVE",
"541 -51 CURVE SMOOTH",
"470 -22 OFFCURVE",
"399 -35 OFFCURVE",
"327 -38 CURVE SMOOTH",
"275 -41 OFFCURVE",
"223 -43 OFFCURVE",
"171 -43 CURVE SMOOTH",
"148 -42 OFFCURVE",
"126 -48 OFFCURVE",
"105 -55 CURVE SMOOTH",
"103 -56 OFFCURVE",
"101 -57 OFFCURVE",
"100 -57 CURVE SMOOTH",
"85 -61 OFFCURVE",
"67 -68 OFFCURVE",
"56 -53 CURVE SMOOTH",
"45 -38 OFFCURVE",
"59 -22 OFFCURVE",
"66 -9 CURVE SMOOTH",
"103 59 OFFCURVE",
"151 116 OFFCURVE",
"201 172 CURVE SMOOTH",
"279 260 OFFCURVE",
"356 350 OFFCURVE",
"440 432 CURVE SMOOTH",
"452 444 OFFCURVE",
"463 458 OFFCURVE",
"477 473 CURVE",
"462 478 OFFCURVE",
"450 478 OFFCURVE",
"437 477 CURVE SMOOTH",
"393 476 OFFCURVE",
"348 476 OFFCURVE",
"304 468 CURVE SMOOTH",
"295 466 OFFCURVE",
"286 466 OFFCURVE",
"277 467 CURVE SMOOTH",
"263 469 OFFCURVE",
"253 478 OFFCURVE",
"251 495 CURVE SMOOTH",
"246 538 OFFCURVE",
"256 580 OFFCURVE",
"253 623 CURVE SMOOTH",
"253 624 OFFCURVE",
"254 626 OFFCURVE",
"254 627 CURVE",
"279 669 OFFCURVE",
"279 718 OFFCURVE",
"284 765 CURVE SMOOTH",
"286 787 OFFCURVE",
"296 799 OFFCURVE",
"315 802 CURVE SMOOTH",
"337 807 OFFCURVE",
"360 810 OFFCURVE",
"383 806 CURVE SMOOTH",
"425 800 OFFCURVE",
"467 792 OFFCURVE",
"508 784 CURVE SMOOTH",
"521 782 OFFCURVE",
"534 781 OFFCURVE",
"544 769 CURVE"
);
}
);
vertWidth = 1000;
width = 860;
}
);
note = cid00059;
unicode = 005A;
},
{
glyphname = A.rotat;
lastChange = "2020-11-05 19:14:31 +0000";
layers = (
{
layerId = "FAEB3F87-0FE7-4D5C-BA65-CB0BBFD78DC9";
paths = (
{
closed = 1;
nodes = (
"242 559 OFFCURVE",
"196 558 OFFCURVE",
"152 566 CURVE SMOOTH",
"134 569 OFFCURVE",
"117 571 OFFCURVE",
"99 574 CURVE",
"93 574 OFFCURVE",
"86 574 OFFCURVE",
"85 566 CURVE SMOOTH",
"84 559 OFFCURVE",
"89 557 OFFCURVE",
"95 555 CURVE SMOOTH",
"101 554 OFFCURVE",
"107 552 OFFCURVE",
"114 552 CURVE SMOOTH",
"170 549 OFFCURVE",
"228 547 OFFCURVE",
"285 545 CURVE"
);
},
{
closed = 1;
nodes = (
"338 375 OFFCURVE",
"238 370 OFFCURVE",
"140 353 CURVE",
"140 351 OFFCURVE",
"140 348 OFFCURVE",
"141 346 CURVE",
"240 356 OFFCURVE",
"339 366 OFFCURVE",
"438 376 CURVE"
);
},
{
closed = 1;
nodes = (
"782 585 OFFCURVE",
"761 589 OFFCURVE",
"767 562 CURVE SMOOTH",
"778 509 OFFCURVE",
"785 454 OFFCURVE",
"808 403 CURVE SMOOTH",
"817 384 OFFCURVE",
"828 377 OFFCURVE",
"849 383 CURVE SMOOTH",
"865 387 OFFCURVE",
"883 389 OFFCURVE",
"900 390 CURVE SMOOTH",
"918 391 OFFCURVE",
"923 401 OFFCURVE",
"920 417 CURVE SMOOTH",
"915 449 OFFCURVE",
"914 483 OFFCURVE",
"904 513 CURVE SMOOTH",
"880 590 OFFCURVE",
"899 578 OFFCURVE",
"819 585 CURVE SMOOTH",
"812 586 OFFCURVE",
"805 586 OFFCURVE",
"799 586 CURVE SMOOTH"
);
},
{
closed = 1;
nodes = (
"110 804 OFFCURVE",
"102 804 OFFCURVE",
"94 803 CURVE SMOOTH",
"82 802 OFFCURVE",
"75 795 OFFCURVE",
"76 783 CURVE SMOOTH",
"76 772 OFFCURVE",
"84 768 OFFCURVE",
"94 768 CURVE SMOOTH",
"98 768 OFFCURVE",
"101 768 OFFCURVE",
"105 768 CURVE SMOOTH",
"236 769 OFFCURVE",
"362 737 OFFCURVE",
"485 692 CURVE SMOOTH",
"561 664 OFFCURVE",
"638 637 OFFCURVE",
"715 610 CURVE SMOOTH",
"721 608 OFFCURVE",
"729 602 OFFCURVE",
"735 608 CURVE SMOOTH",
"741 613 OFFCURVE",
"735 621 OFFCURVE",
"732 627 CURVE SMOOTH",
"719 658 OFFCURVE",
"704 688 OFFCURVE",
"690 719 CURVE SMOOTH",
"685 732 OFFCURVE",
"675 734 OFFCURVE",
"662 735 CURVE SMOOTH",
"620 738 OFFCURVE",
"577 739 OFFCURVE",
"536 750 CURVE SMOOTH",
"399 789 OFFCURVE",
"258 793 OFFCURVE",
"124 804 CURVE"
);
},
{
closed = 1;
nodes = (
"436 556 OFFCURVE",
"438 553 OFFCURVE",
"432 516 CURVE SMOOTH",
"431 504 OFFCURVE",
"431 491 OFFCURVE",
"431 478 CURVE SMOOTH",
"432 443 OFFCURVE",
"425 434 OFFCURVE",
"390 426 CURVE SMOOTH",
"286 403 OFFCURVE",
"179 397 OFFCURVE",
"76 373 CURVE SMOOTH",
"52 368 OFFCURVE",
"45 360 OFFCURVE",
"49 335 CURVE SMOOTH",
"59 272 OFFCURVE",
"80 213 OFFCURVE",
"98 152 CURVE SMOOTH",
"106 124 OFFCURVE",
"121 117 OFFCURVE",
"148 123 CURVE SMOOTH",
"237 143 OFFCURVE",
"328 162 OFFCURVE",
"419 175 CURVE SMOOTH",
"543 192 OFFCURVE",
"665 222 OFFCURVE",
"782 269 CURVE SMOOTH",
"797 275 OFFCURVE",
"811 281 OFFCURVE",
"801 300 CURVE SMOOTH",
"795 312 OFFCURVE",
"794 335 OFFCURVE",
"769 327 CURVE SMOOTH",
"689 300 OFFCURVE",
"607 278 OFFCURVE",
"525 254 CURVE SMOOTH",
"415 223 OFFCURVE",
"306 187 OFFCURVE",
"194 161 CURVE SMOOTH",
"142 148 OFFCURVE",
"142 149 OFFCURVE",
"132 200 CURVE",
"132 204 OFFCURVE",
"130 209 OFFCURVE",
"130 213 CURVE SMOOTH",
"125 252 OFFCURVE",
"110 288 OFFCURVE",
"109 327 CURVE SMOOTH",
"109 366 OFFCURVE",
"116 374 OFFCURVE",
"152 377 CURVE SMOOTH",
"245 386 OFFCURVE",
"337 397 OFFCURVE",
"430 397 CURVE SMOOTH",
"443 397 OFFCURVE",
"461 411 OFFCURVE",
"469 387 CURVE SMOOTH",
"470 382 OFFCURVE",
"478 387 OFFCURVE",
"479 391 CURVE SMOOTH",
"480 398 OFFCURVE",
"482 406 OFFCURVE",
"481 412 CURVE SMOOTH",
"470 460 OFFCURVE",
"459 507 OFFCURVE",
"447 554 CURVE SMOOTH",
"443 568 OFFCURVE",
"433 574 OFFCURVE",
"418 574 CURVE SMOOTH",
"391 574 OFFCURVE",
"364 574 OFFCURVE",
"337 577 CURVE SMOOTH",
"259 586 OFFCURVE",
"180 583 OFFCURVE",
"105 611 CURVE",
"99 614 OFFCURVE",
"88 622 OFFCURVE",
"84 611 CURVE SMOOTH",
"81 600 OFFCURVE",
"91 595 OFFCURVE",
"100 593 CURVE SMOOTH",
"132 588 OFFCURVE",
"164 582 OFFCURVE",
"196 578 CURVE SMOOTH",
"263 571 OFFCURVE",
"330 557 OFFCURVE",
"388 554 CURVE"
);
},
{
closed = 1;
nodes = (
"93 749 OFFCURVE",
"76 753 OFFCURVE",
"67 735 CURVE SMOOTH",
"50 699 OFFCURVE",
"67 647 OFFCURVE",
"104 631 CURVE SMOOTH",
"128 619 OFFCURVE",
"156 611 OFFCURVE",
"183 608 CURVE SMOOTH",
"257 601 OFFCURVE",
"330 589 OFFCURVE",
"405 591 CURVE SMOOTH",
"448 591 OFFCURVE",
"459 582 OFFCURVE",
"467 539 CURVE SMOOTH",
"472 507 OFFCURVE",
"480 476 OFFCURVE",
"489 444 CURVE SMOOTH",
"493 431 OFFCURVE",
"493 416 OFFCURVE",
"494 402 CURVE SMOOTH",
"497 382 OFFCURVE",
"487 371 OFFCURVE",
"469 366 CURVE SMOOTH",
"436 356 OFFCURVE",
"403 354 OFFCURVE",
"370 351 CURVE SMOOTH",
"299 345 OFFCURVE",
"228 337 OFFCURVE",
"157 331 CURVE SMOOTH",
"133 329 OFFCURVE",
"123 318 OFFCURVE",
"129 294 CURVE SMOOTH",
"137 260 OFFCURVE",
"145 227 OFFCURVE",
"152 193 CURVE SMOOTH",
"155 177 OFFCURVE",
"163 172 OFFCURVE",
"178 176 CURVE SMOOTH",
"205 182 OFFCURVE",
"232 186 OFFCURVE",
"258 193 CURVE SMOOTH",
"387 227 OFFCURVE",
"513 271 OFFCURVE",
"643 304 CURVE SMOOTH",
"693 318 OFFCURVE",
"744 333 OFFCURVE",
"791 355 CURVE SMOOTH",
"803 360 OFFCURVE",
"810 365 OFFCURVE",
"803 379 CURVE SMOOTH",
"775 433 OFFCURVE",
"766 492 OFFCURVE",
"754 551 CURVE SMOOTH",
"750 570 OFFCURVE",
"741 580 OFFCURVE",
"723 587 CURVE SMOOTH",
"610 631 OFFCURVE",
"496 672 OFFCURVE",
"381 708 CURVE SMOOTH",
"291 737 OFFCURVE",
"200 750 OFFCURVE",
"107 750 CURVE SMOOTH"
);
},
{
closed = 1;
nodes = (
"402 524 OFFCURVE",
"399 525 OFFCURVE",
"396 525 CURVE SMOOTH",
"297 521 OFFCURVE",
"199 535 OFFCURVE",
"102 537 CURVE SMOOTH",
"78 538 OFFCURVE",
"66 545 OFFCURVE",
"67 573 CURVE SMOOTH",
"69 601 OFFCURVE",
"64 630 OFFCURVE",
"54 656 CURVE SMOOTH",
"35 703 OFFCURVE",
"54 748 OFFCURVE",
"61 794 CURVE SMOOTH",
"64 814 OFFCURVE",
"83 821 OFFCURVE",
"103 821 CURVE SMOOTH",
"166 823 OFFCURVE",
"228 810 OFFCURVE",
"291 809 CURVE SMOOTH",
"393 808 OFFCURVE",
"489 775 OFFCURVE",
"588 760 CURVE SMOOTH",
"615 756 OFFCURVE",
"644 755 OFFCURVE",
"672 754 CURVE SMOOTH",
"687 754 OFFCURVE",
"697 748 OFFCURVE",
"702 733 CURVE SMOOTH",
"718 693 OFFCURVE",
"742 658 OFFCURVE",
"753 616 CURVE SMOOTH",
"757 600 OFFCURVE",
"768 598 OFFCURVE",
"782 599 CURVE SMOOTH",
"813 600 OFFCURVE",
"845 597 OFFCURVE",
"876 592 CURVE SMOOTH",
"891 590 OFFCURVE",
"898 584 OFFCURVE",
"902 569 CURVE SMOOTH",
"918 515 OFFCURVE",
"928 459 OFFCURVE",
"937 402 CURVE SMOOTH",
"940 385 OFFCURVE",
"933 375 OFFCURVE",
"914 373 CURVE SMOOTH",
"892 371 OFFCURVE",
"870 368 OFFCURVE",
"847 365 CURVE SMOOTH",
"821 361 OFFCURVE",
"813 349 OFFCURVE",
"821 324 CURVE SMOOTH",
"827 307 OFFCURVE",
"835 290 OFFCURVE",
"842 274 CURVE SMOOTH",
"851 256 OFFCURVE",
"847 248 OFFCURVE",
"827 244 CURVE SMOOTH",
"648 202 OFFCURVE",
"468 161 OFFCURVE",
"285 135 CURVE SMOOTH",
"235 128 OFFCURVE",
"186 114 OFFCURVE",
"137 102 CURVE SMOOTH",
"111 96 OFFCURVE",
"95 105 OFFCURVE",
"86 132 CURVE SMOOTH",
"62 204 OFFCURVE",
"41 277 OFFCURVE",
"29 352 CURVE SMOOTH",
"24 383 OFFCURVE",
"52 417 OFFCURVE",
"83 419 CURVE SMOOTH",
"154 424 OFFCURVE",
"223 441 OFFCURVE",
"294 451 CURVE SMOOTH",
"322 455 OFFCURVE",
"349 461 OFFCURVE",
"377 462 CURVE SMOOTH",
"383 462 OFFCURVE",
"398 463 OFFCURVE",
"392 471 CURVE SMOOTH",
"374 495 OFFCURVE",
"400 505 OFFCURVE",
"407 523 CURVE"
);
},
{
closed = 1;
nodes = (
"669 468 OFFCURVE",
"689 461 OFFCURVE",
"694 480 CURVE SMOOTH",
"700 501 OFFCURVE",
"681 510 OFFCURVE",
"665 517 CURVE SMOOTH",
"640 527 OFFCURVE",
"615 535 OFFCURVE",
"589 544 CURVE SMOOTH",
"571 551 OFFCURVE",
"546 567 OFFCURVE",
"534 555 CURVE SMOOTH",
"522 543 OFFCURVE",
"536 517 OFFCURVE",
"538 497 CURVE SMOOTH",
"539 480 OFFCURVE",
"549 472 OFFCURVE",
"566 471 CURVE SMOOTH",
"596 470 OFFCURVE",
"625 466 OFFCURVE",
"655 464 CURVE"
);
},
{
closed = 1;
nodes = (
"619 449 OFFCURVE",
"589 451 OFFCURVE",
"560 454 CURVE SMOOTH",
"540 456 OFFCURVE",
"528 465 OFFCURVE",
"526 486 CURVE SMOOTH",
"524 509 OFFCURVE",
"519 532 OFFCURVE",
"515 555 CURVE SMOOTH",
"512 574 OFFCURVE",
"522 577 OFFCURVE",
"537 576 CURVE SMOOTH",
"564 572 OFFCURVE",
"589 560 OFFCURVE",
"615 553 CURVE SMOOTH",
"636 547 OFFCURVE",
"656 539 OFFCURVE",
"676 531 CURVE SMOOTH",
"683 528 OFFCURVE",
"691 524 OFFCURVE",
"697 519 CURVE",
"710 505 OFFCURVE",
"715 486 OFFCURVE",
"711 469 CURVE SMOOTH",
"708 452 OFFCURVE",
"689 454 OFFCURVE",
"675 451 CURVE SMOOTH",
"666 450 OFFCURVE",
"657 449 OFFCURVE",
"647 447 CURVE"
);
}
);
vertWidth = 900;
width = 1000;
}
);
note = cid08753;
},
{
glyphname = B.rotat;
lastChange = "2020-11-05 19:14:31 +0000";
layers = (
{
layerId = "FAEB3F87-0FE7-4D5C-BA65-CB0BBFD78DC9";
paths = (
{
closed = 1;
nodes = (
"892 697 OFFCURVE",
"894 661 OFFCURVE",
"885 624 CURVE SMOOTH",
"854 493 OFFCURVE",
"768 437 OFFCURVE",
"648 472 CURVE SMOOTH",
"636 475 OFFCURVE",
"629 472 OFFCURVE",
"622 462 CURVE SMOOTH",
"601 430 OFFCURVE",
"611 408 OFFCURVE",
"649 403 CURVE SMOOTH",
"700 396 OFFCURVE",
"742 423 OFFCURVE",
"787 441 CURVE SMOOTH",
"897 485 OFFCURVE",
"958 613 OFFCURVE",
"890 735 CURVE"
);
},
{
closed = 1;
nodes = (
"486 587 OFFCURVE",
"483 553 OFFCURVE",
"459 533 CURVE SMOOTH",
"396 477 OFFCURVE",
"324 438 OFFCURVE",
"239 434 CURVE SMOOTH",
"184 432 OFFCURVE",
"184 433 OFFCURVE",
"183 376 CURVE SMOOTH",
"181 303 OFFCURVE",
"213 268 OFFCURVE",
"284 268 CURVE SMOOTH",
"346 269 OFFCURVE",
"404 285 OFFCURVE",
"462 307 CURVE SMOOTH",
"538 335 OFFCURVE",
"575 396 OFFCURVE",
"603 467 CURVE SMOOTH",
"607 478 OFFCURVE",
"611 490 OFFCURVE",
"599 499 CURVE SMOOTH",
"560 530 OFFCURVE",
"523 563 OFFCURVE",
"505 620 CURVE"
);
},
{
closed = 1;
nodes = (
"59 618 OFFCURVE",
"74 567 OFFCURVE",
"93 517 CURVE SMOOTH",
"103 491 OFFCURVE",
"120 473 OFFCURVE",
"147 465 CURVE SMOOTH",
"193 450 OFFCURVE",
"240 448 OFFCURVE",
"285 461 CURVE SMOOTH",
"432 505 OFFCURVE",
"486 545 OFFCURVE",
"485 682 CURVE SMOOTH",
"485 690 OFFCURVE",
"485 699 OFFCURVE",
"494 700 CURVE SMOOTH",
"507 700 OFFCURVE",
"507 688 OFFCURVE",
"509 679 CURVE SMOOTH",
"523 590 OFFCURVE",
"577 533 OFFCURVE",
"652 495 CURVE SMOOTH",
"700 469 OFFCURVE",
"751 470 OFFCURVE",
"793 503 CURVE SMOOTH",
"860 557 OFFCURVE",
"895 659 OFFCURVE",
"861 748 CURVE SMOOTH",
"853 767 OFFCURVE",
"841 778 OFFCURVE",
"821 778 CURVE SMOOTH",
"754 779 OFFCURVE",
"688 795 OFFCURVE",
"621 792 CURVE SMOOTH",
"564 789 OFFCURVE",
"507 791 OFFCURVE",
"450 789 CURVE SMOOTH",
"347 784 OFFCURVE",
"244 776 OFFCURVE",
"142 761 CURVE SMOOTH",
"71 751 OFFCURVE",
"72 747 OFFCURVE",
"66 664 CURVE"
);
},
{
closed = 1;
nodes = (
"646 382 OFFCURVE",
"634 380 OFFCURVE",
"626 385 CURVE SMOOTH",
"598 403 OFFCURVE",
"583 388 OFFCURVE",
"570 364 CURVE SMOOTH",
"539 309 OFFCURVE",
"483 291 OFFCURVE",
"429 272 CURVE SMOOTH",
"389 258 OFFCURVE",
"347 251 OFFCURVE",
"305 247 CURVE SMOOTH",
"213 240 OFFCURVE",
"162 288 OFFCURVE",
"164 382 CURVE SMOOTH",
"165 408 OFFCURVE",
"160 432 OFFCURVE",
"139 444 CURVE SMOOTH",
"75 481 OFFCURVE",
"66 548 OFFCURVE",
"51 611 CURVE SMOOTH",
"42 652 OFFCURVE",
"52 692 OFFCURVE",
"57 732 CURVE SMOOTH",
"61 758 OFFCURVE",
"79 768 OFFCURVE",
"103 773 CURVE SMOOTH",
"173 787 OFFCURVE",
"245 791 OFFCURVE",
"317 796 CURVE SMOOTH",
"475 807 OFFCURVE",
"632 813 OFFCURVE",
"790 800 CURVE SMOOTH",
"879 793 OFFCURVE",
"892 803 OFFCURVE",
"925 690 CURVE SMOOTH",
"955 587 OFFCURVE",
"915 489 OFFCURVE",
"820 435 CURVE SMOOTH",
"770 407 OFFCURVE",
"717 380 OFFCURVE",
"663 380 CURVE"
);
},
{
closed = 1;
nodes = (
"232 640 OFFCURVE",
"286 641 OFFCURVE",
"339 643 CURVE SMOOTH",
"350 644 OFFCURVE",
"367 638 OFFCURVE",
"367 658 CURVE SMOOTH",
"367 674 OFFCURVE",
"357 684 OFFCURVE",
"341 684 CURVE SMOOTH",
"285 684 OFFCURVE",
"230 683 OFFCURVE",
"175 681 CURVE SMOOTH",
"159 681 OFFCURVE",
"145 673 OFFCURVE",
"147 654 CURVE SMOOTH",
"149 634 OFFCURVE",
"166 639 OFFCURVE",
"171 638 CURVE"
);
},
{
closed = 1;
nodes = (
"282 540 OFFCURVE",
"321 563 OFFCURVE",
"355 596 CURVE SMOOTH",
"366 606 OFFCURVE",
"367 620 OFFCURVE",
"347 622 CURVE SMOOTH",
"285 626 OFFCURVE",
"224 623 OFFCURVE",
"162 617 CURVE SMOOTH",
"146 615 OFFCURVE",
"142 604 OFFCURVE",
"151 593 CURVE SMOOTH",
"173 566 OFFCURVE",
"197 541 OFFCURVE",
"236 538 CURVE"
);
},
{
closed = 1;
nodes = (
"309 703 OFFCURVE",
"327 700 OFFCURVE",
"346 702 CURVE SMOOTH",
"376 705 OFFCURVE",
"386 687 OFFCURVE",
"388 661 CURVE SMOOTH",
"393 611 OFFCURVE",
"378 582 OFFCURVE",
"336 558 CURVE SMOOTH",
"301 539 OFFCURVE",
"268 518 OFFCURVE",
"226 523 CURVE SMOOTH",
"169 529 OFFCURVE",
"120 587 OFFCURVE",
"126 646 CURVE SMOOTH",
"130 684 OFFCURVE",
"145 699 OFFCURVE",
"182 701 CURVE SMOOTH",
"218 703 OFFCURVE",
"254 703 OFFCURVE",
"294 704 CURVE"
);
},
{
closed = 1;
nodes = (
"689 710 OFFCURVE",
"689 710 OFFCURVE",
"689 711 CURVE",
"706 710 OFFCURVE",
"724 709 OFFCURVE",
"741 708 CURVE SMOOTH",
"746 708 OFFCURVE",
"752 707 OFFCURVE",
"754 713 CURVE SMOOTH",
"757 721 OFFCURVE",
"752 727 OFFCURVE",
"746 728 CURVE SMOOTH",
"711 735 OFFCURVE",
"676 745 OFFCURVE",
"639 737 CURVE SMOOTH",
"632 735 OFFCURVE",
"625 731 OFFCURVE",
"626 722 CURVE SMOOTH",
"627 712 OFFCURVE",
"635 712 OFFCURVE",
"642 711 CURVE SMOOTH",
"658 710 OFFCURVE",
"673 710 OFFCURVE",
"689 709 CURVE"
);
},
{
closed = 1;
nodes = (
"727 625 OFFCURVE",
"742 627 OFFCURVE",
"755 632 CURVE SMOOTH",
"770 639 OFFCURVE",
"773 652 OFFCURVE",
"773 667 CURVE SMOOTH",
"772 682 OFFCURVE",
"761 686 OFFCURVE",
"749 686 CURVE SMOOTH",
"720 688 OFFCURVE",
"690 689 OFFCURVE",
"660 690 CURVE SMOOTH",
"653 690 OFFCURVE",
"645 690 OFFCURVE",
"641 682 CURVE SMOOTH",
"637 673 OFFCURVE",
"643 665 OFFCURVE",
"648 659 CURVE SMOOTH",
"665 639 OFFCURVE",
"687 628 OFFCURVE",
"707 627 CURVE SMOOTH"
);
},
{
closed = 1;
nodes = (
"704 757 OFFCURVE",
"723 750 OFFCURVE",
"743 757 CURVE SMOOTH",
"751 760 OFFCURVE",
"758 757 OFFCURVE",
"762 750 CURVE SMOOTH",
"778 724 OFFCURVE",
"794 698 OFFCURVE",
"793 665 CURVE SMOOTH",
"791 618 OFFCURVE",
"741 590 OFFCURVE",
"690 608 CURVE SMOOTH",
"645 624 OFFCURVE",
"619 660 OFFCURVE",
"608 705 CURVE SMOOTH",
"599 740 OFFCURVE",
"614 757 OFFCURVE",
"650 757 CURVE SMOOTH",
"662 757 OFFCURVE",
"673 756 OFFCURVE",
"682 755 CURVE"
);
}
);
vertWidth = 740;
width = 1000;
}
);
note = cid08754;
},
{
glyphname = C.rotat;
lastChange = "2020-11-05 19:14:31 +0000";
layers = (
{
layerId = "FAEB3F87-0FE7-4D5C-BA65-CB0BBFD78DC9";
paths = (
{
closed = 1;
nodes = (
"742 307 OFFCURVE",
"650 334 OFFCURVE",
"559 368 CURVE",
"584 342 OFFCURVE",
"569 285 OFFCURVE",
"687 291 CURVE SMOOTH",
"736 294 OFFCURVE",
"792 313 OFFCURVE",
"845 339 CURVE"
);
},
{
closed = 1;
nodes = (
"119 351 OFFCURVE",
"119 347 OFFCURVE",
"119 343 CURVE",
"182 325 OFFCURVE",
"251 337 OFFCURVE",
"318 334 CURVE SMOOTH",
"324 334 OFFCURVE",
"331 336 OFFCURVE",
"331 347 CURVE SMOOTH",
"331 359 OFFCURVE",
"326 366 OFFCURVE",
"317 366 CURVE SMOOTH",
"304 366 OFFCURVE",
"291 364 OFFCURVE",
"277 363 CURVE SMOOTH",
"225 360 OFFCURVE",
"172 358 OFFCURVE",
"119 355 CURVE"
);
},
{
closed = 1;
nodes = (
"330 708 OFFCURVE",
"408 744 OFFCURVE",
"485 768 CURVE",
"409 771 OFFCURVE",
"333 776 OFFCURVE",
"255 725 CURVE"
);
},
{
closed = 1;
nodes = (
"236 466 OFFCURVE",
"250 451 OFFCURVE",
"264 441 CURVE SMOOTH",
"314 410 OFFCURVE",
"362 378 OFFCURVE",
"380 298 CURVE",
"381 290 OFFCURVE",
"387 283 OFFCURVE",
"395 289 CURVE SMOOTH",
"405 297 OFFCURVE",
"405 307 OFFCURVE",
"404 318 CURVE SMOOTH",
"400 350 OFFCURVE",
"388 371 OFFCURVE",
"371 390 CURVE SMOOTH",
"330 435 OFFCURVE",
"281 461 OFFCURVE",
"231 499 CURVE"
);
},
{
closed = 1;
nodes = (
"519 659 OFFCURVE",
"541 610 OFFCURVE",
"528 519 CURVE SMOOTH",
"524 489 OFFCURVE",
"521 459 OFFCURVE",
"517 429 CURVE SMOOTH",
"516 416 OFFCURVE",
"518 406 OFFCURVE",
"526 405 CURVE SMOOTH",
"537 404 OFFCURVE",
"539 417 OFFCURVE",
"542 428 CURVE SMOOTH",
"559 499 OFFCURVE",
"572 570 OFFCURVE",
"579 641 CURVE SMOOTH",
"581 665 OFFCURVE",
"576 678 OFFCURVE",
"558 682 CURVE SMOOTH",
"526 690 OFFCURVE",
"493 686 OFFCURVE",
"451 673 CURVE"
);
},
{
closed = 1;
nodes = (
"701 348 OFFCURVE",
"765 352 OFFCURVE",
"832 368 CURVE SMOOTH",
"861 375 OFFCURVE",
"878 397 OFFCURVE",
"886 433 CURVE SMOOTH",
"901 504 OFFCURVE",
"913 575 OFFCURVE",
"909 646 CURVE SMOOTH",
"905 721 OFFCURVE",
"881 755 OFFCURVE",
"837 753 CURVE SMOOTH",
"821 753 OFFCURVE",
"816 747 OFFCURVE",
"818 726 CURVE SMOOTH",
"825 675 OFFCURVE",
"817 622 OFFCURVE",
"807 570 CURVE SMOOTH",
"786 458 OFFCURVE",
"753 402 OFFCURVE",
"684 397 CURVE SMOOTH",
"670 396 OFFCURVE",
"655 395 OFFCURVE",
"634 377 CURVE"
);
},
{
closed = 1;
nodes = (
"266 404 OFFCURVE",
"255 414 OFFCURVE",
"246 427 CURVE SMOOTH",
"197 493 OFFCURVE",
"202 553 OFFCURVE",
"271 614 CURVE SMOOTH",
"371 705 OFFCURVE",
"475 718 OFFCURVE",
"578 699 CURVE SMOOTH",
"593 696 OFFCURVE",
"592 681 OFFCURVE",
"591 661 CURVE SMOOTH",
"589 586 OFFCURVE",
"575 512 OFFCURVE",
"558 438 CURVE SMOOTH",
"551 409 OFFCURVE",
"555 395 OFFCURVE",
"577 400 CURVE SMOOTH",
"622 410 OFFCURVE",
"667 420 OFFCURVE",
"712 429 CURVE SMOOTH",
"736 434 OFFCURVE",
"752 452 OFFCURVE",
"767 481 CURVE SMOOTH",
"800 545 OFFCURVE",
"803 614 OFFCURVE",
"807 682 CURVE SMOOTH",
"811 745 OFFCURVE",
"799 761 OFFCURVE",
"756 771 CURVE SMOOTH",
"691 787 OFFCURVE",
"624 780 OFFCURVE",
"556 762 CURVE SMOOTH",
"437 730 OFFCURVE",
"317 690 OFFCURVE",
"199 694 CURVE SMOOTH",
"144 696 OFFCURVE",
"91 671 OFFCURVE",
"62 578 CURVE SMOOTH",
"37 498 OFFCURVE",
"61 389 OFFCURVE",
"118 381 CURVE SMOOTH",
"169 374 OFFCURVE",
"223 386 OFFCURVE",
"284 385 CURVE"
);
},
{
closed = 1;
nodes = (
"633 267 OFFCURVE",
"630 268 OFFCURVE",
"627 269 CURVE",
"598 289 OFFCURVE",
"552 325 OFFCURVE",
"519 360 CURVE SMOOTH",
"499 380 OFFCURVE",
"498 403 OFFCURVE",
"500 433 CURVE SMOOTH",
"503 479 OFFCURVE",
"516 525 OFFCURVE",
"512 570 CURVE SMOOTH",
"509 619 OFFCURVE",
"491 649 OFFCURVE",
"456 649 CURVE SMOOTH",
"398 650 OFFCURVE",
"339 661 OFFCURVE",
"281 604 CURVE SMOOTH",
"264 588 OFFCURVE",
"241 571 OFFCURVE",
"239 544 CURVE SMOOTH",
"238 517 OFFCURVE",
"257 504 OFFCURVE",
"274 494 CURVE SMOOTH",
"318 467 OFFCURVE",
"361 440 OFFCURVE",
"396 394 CURVE SMOOTH",
"409 377 OFFCURVE",
"419 358 OFFCURVE",
"422 331 CURVE SMOOTH",
"425 308 OFFCURVE",
"424 283 OFFCURVE",
"403 269 CURVE SMOOTH",
"383 256 OFFCURVE",
"364 252 OFFCURVE",
"356 284 CURVE SMOOTH",
"351 307 OFFCURVE",
"338 313 OFFCURVE",
"321 313 CURVE SMOOTH",
"273 312 OFFCURVE",
"223 311 OFFCURVE",
"175 314 CURVE SMOOTH",
"121 317 OFFCURVE",
"72 329 OFFCURVE",
"47 402 CURVE SMOOTH",
"2 534 OFFCURVE",
"77 717 OFFCURVE",
"182 711 CURVE SMOOTH",
"198 710 OFFCURVE",
"213 726 OFFCURVE",
"227 736 CURVE SMOOTH",
"321 797 OFFCURVE",
"413 794 OFFCURVE",
"505 794 CURVE SMOOTH",
"573 795 OFFCURVE",
"641 799 OFFCURVE",
"708 799 CURVE SMOOTH",
"767 799 OFFCURVE",
"820 771 OFFCURVE",
"879 768 CURVE SMOOTH",
"906 766 OFFCURVE",
"912 726 OFFCURVE",
"917 694 CURVE SMOOTH",
"934 583 OFFCURVE",
"909 469 OFFCURVE",
"877 357 CURVE SMOOTH",
"865 315 OFFCURVE",
"837 296 OFFCURVE",
"805 290 CURVE SMOOTH",
"748 281 OFFCURVE",
"697 252 OFFCURVE",
"635 266 CURVE"
);
}
);
vertWidth = 820;
width = 1000;
}
);
note = cid08755;
},
